<svg width="155" height="40" viewBox="0 0 155 40" fill="none" xmlns="http://www.w3.org/2000/svg">
<path d="M97.7341 41.8824C98.8526 41.8824 99.8015 41.5325 100.581 40.8329C101.36 40.1333 101.749 39.2812 101.749 38.2766C101.749 37.272 101.36 36.4288 100.581 35.7472C99.8015 35.0655 98.8526 34.7247 97.7341 34.7247C96.6554 34.7247 95.7266 35.0745 94.9476 35.7741C94.1685 36.4737 93.779 37.3079 93.779 38.2766C93.779 39.2812 94.1586 40.1333 94.9176 40.8329C95.6766 41.5325 96.6155 41.8824 97.7341 41.8824ZM97.7341 49.0401C99.0524 49.0401 100.291 48.762 101.449 48.2059C102.608 47.6497 103.547 46.8874 104.266 45.9186C103.227 45.4163 102.169 45.0127 101.09 44.7078C100.011 44.4028 98.8927 44.2503 97.7341 44.2503C96.5755 44.2503 95.4569 44.4028 94.3783 44.7078C93.2996 45.0127 92.241 45.4163 91.2022 45.9186C91.9214 46.8874 92.8601 47.6497 94.0187 48.2059C95.1773 48.762 96.4157 49.0401 97.7341 49.0401ZM97.7341 52C94.618 52 91.9613 51.0044 89.764 49.0131C87.5668 47.0219 86.4682 44.6629 86.4682 41.9362C86.4682 39.1377 87.5668 36.7428 89.764 34.7516C91.9613 32.7603 94.618 31.7647 97.7341 31.7647C100.81 31.7647 103.457 32.7603 105.674 34.7516C107.891 36.7428 109 39.1377 109 41.9362C109 44.6629 107.891 47.0219 105.674 49.0131C103.457 51.0044 100.81 52 97.7341 52ZM70.588 20.8398H94.5581V17.6108H70.588V20.8398ZM84.3708 47.7484H64.5955C63.5968 47.7484 62.7478 47.4345 62.0487 46.8066C61.3496 46.1788 61 45.4163 61 44.5194V12.229C61 11.3321 61.3496 10.5697 62.0487 9.9418C62.7478 9.31394 63.5968 9 64.5955 9H100.551C101.549 9 102.398 9.31394 103.097 9.9418C103.796 10.5697 104.146 11.3321 104.146 12.229V29.9349C103.147 29.4685 102.109 29.1277 101.03 28.9124C99.9513 28.6971 98.8526 28.5895 97.7341 28.5895C97.1747 28.5895 96.6354 28.6164 96.1161 28.6702C95.5968 28.724 95.0774 28.8048 94.5581 28.9124V26.7597H70.588V29.9887H91.2022C89.764 30.6345 88.4757 31.4687 87.3371 32.4912C86.1985 33.5138 85.2697 34.6529 84.5506 35.9086H70.588V39.1377H83.2322C83.1124 39.6041 83.0225 40.0705 82.9625 40.5369C82.9026 41.0033 82.8727 41.4877 82.8727 41.99C82.8727 43.0305 82.9925 44.0171 83.2322 44.9499C83.4719 45.8828 83.8515 46.8156 84.3708 47.7484Z" fill="black"/>
</svg>
