<svg width="61" height="62" viewBox="0 0 61 62" fill="none" xmlns="http://www.w3.org/2000/svg">
<path fill-rule="evenodd" clip-rule="evenodd" d="M42.7836 49.4971C40.8543 50.1784 38.9765 50.9977 37.1649 51.9487C36.6999 52.2329 36.2349 52.5687 35.7725 52.9019C35.6636 52.7862 35.5602 52.6655 35.4625 52.5403C34.2603 51.3582 32.9382 50.3045 31.5177 49.3964C31.4328 49.3117 31.3315 49.2454 31.2201 49.2014C31.1086 49.1574 30.9893 49.1367 30.8695 49.1405C30.7497 49.1444 30.6319 49.1727 30.5235 49.2237C30.4151 49.2748 30.3182 49.3475 30.2389 49.4374C30.1597 49.5272 30.0996 49.6324 30.0625 49.7464C30.0254 49.8603 30.012 49.9807 30.0231 50.1C30.0342 50.2193 30.0697 50.3351 30.1272 50.4403C30.1848 50.5454 30.2633 50.6376 30.3578 50.7113C31.3136 51.9229 32.0861 53.2894 32.936 54.5785L33.1685 54.9402L32.936 55.1469C31.4994 56.6032 30.1803 58.171 28.9912 59.8356C28.8951 59.9273 28.8186 60.0375 28.7663 60.1596C28.714 60.2817 28.687 60.4132 28.687 60.546C28.687 60.6789 28.714 60.8103 28.7663 60.9324C28.8186 61.0545 28.8951 61.1648 28.9912 61.2564C29.0825 61.3486 29.1911 61.4218 29.3109 61.4717C29.4306 61.5216 29.559 61.5473 29.6887 61.5473C29.8184 61.5473 29.9469 61.5216 30.0666 61.4717C30.1863 61.4218 30.295 61.3486 30.3862 61.2564C31.2103 60.4814 32.0602 59.7839 32.9618 59.089C33.866 58.3915 34.3568 58.0557 35.0517 57.5674L35.2842 57.8516C36.315 59.1149 37.3716 60.3006 38.3765 61.538C38.464 61.6748 38.5837 61.788 38.7251 61.8679C38.8665 61.9477 39.0253 61.9918 39.1876 61.9961C39.35 62.0004 39.5109 61.9649 39.6563 61.8927C39.8018 61.8206 39.9274 61.7138 40.0221 61.5819C40.1334 61.4213 40.1957 61.2317 40.2012 61.0363C40.2067 60.8409 40.1552 60.6481 40.0531 60.4814C39.3814 59.0115 38.7097 57.5158 37.8856 56.0459L37.6015 55.6325L38.2215 55.1959C39.9239 53.8552 41.5462 52.4369 43.3778 51.1479C43.4815 51.0958 43.5738 51.0238 43.6494 50.9359C43.7251 50.848 43.7826 50.746 43.8186 50.6357C43.8547 50.5255 43.8685 50.4092 43.8593 50.2936C43.8502 50.178 43.8182 50.0653 43.7653 49.9621C43.6775 49.7857 43.533 49.644 43.355 49.5597C43.1769 49.4753 42.9757 49.4533 42.7836 49.4971ZM60.0842 35.1648C60.1875 35.1122 60.2795 35.0398 60.3548 34.9517C60.4301 34.8636 60.4873 34.7615 60.5232 34.6512C60.559 34.541 60.5728 34.4248 60.5638 34.3092C60.5547 34.1937 60.523 34.081 60.4704 33.9777C60.4179 33.8744 60.3454 33.7825 60.2573 33.7072C60.1692 33.6319 60.0671 33.5746 59.9569 33.5388C59.8467 33.5029 59.7305 33.4891 59.6149 33.4982C59.4993 33.5072 59.3867 33.5389 59.2834 33.5915C57.3459 34.3097 55.473 35.1691 53.6646 36.1697C53.1771 36.4658 52.7038 36.7847 52.2464 37.1255C52.1573 36.9934 52.0533 36.8721 51.9364 36.7639C50.7422 35.557 49.4194 34.4845 47.9916 33.5657C47.8271 33.4024 47.6047 33.3108 47.3729 33.3108C47.1411 33.3108 46.9188 33.4024 46.7542 33.5657C46.6688 33.6448 46.6006 33.7407 46.5539 33.8474C46.5073 33.9541 46.4832 34.0693 46.4832 34.1857C46.4832 34.3021 46.5073 34.4173 46.5539 34.524C46.6006 34.6307 46.6688 34.7266 46.7542 34.8057C47.7359 36.0405 48.5083 37.3813 49.3324 38.6962L49.5907 39.0579L49.3324 39.2645C47.9531 40.6964 46.6942 42.2396 45.5685 43.8784C45.4727 43.97 45.3966 44.0801 45.3445 44.2019C45.2925 44.3238 45.2656 44.455 45.2656 44.5875C45.2656 44.72 45.2925 44.8512 45.3445 44.973C45.3966 45.0949 45.4727 45.205 45.5685 45.2966C45.7573 45.4843 46.0127 45.5897 46.2789 45.5897C46.5451 45.5897 46.8005 45.4843 46.9893 45.2966C47.8108 44.5216 48.6375 43.8267 49.5649 43.1318C50.4949 42.4343 50.9573 42.0984 51.6522 41.5818L51.8847 41.8918C52.9181 43.1576 54.0005 44.4725 54.9796 45.5808C55.1226 45.7997 55.3451 45.9544 55.6001 46.0123C55.8551 46.0701 56.1227 46.0266 56.3461 45.8908C56.5651 45.7475 56.7215 45.5265 56.7838 45.2724C56.8461 45.0182 56.8097 44.7499 56.682 44.5216C55.9845 43.0543 55.3128 41.5585 54.4887 40.0886C54.4887 40.0886 54.3079 39.8303 54.2304 39.6753L54.8246 39.2361C56.527 37.8721 58.1751 36.4539 60.0842 35.1648Z" fill="#0C6FFF"/>
<path fill-rule="evenodd" clip-rule="evenodd" d="M46.6509 32.1216C47.0092 31.9998 47.3177 31.7639 47.5292 31.45C47.7617 31.1684 48.0975 30.3701 48.2009 30.241C48.3042 30.1118 48.5858 29.4143 48.7408 28.9751C49.0387 28.1312 49.2885 27.2727 49.49 26.3995L49.849 25.8312C50.1074 24.8857 50.1074 23.8885 49.849 22.9456C49.539 21.2923 48.764 19.2334 48.609 18.4584C48.1466 16.756 47.8134 15.0045 47.3742 13.3021C47.09 12.1421 46.78 11.0081 46.4442 9.84813C45.6885 6.93978 44.8294 4.05926 43.8686 1.21205C43.8078 0.984136 43.6602 0.78903 43.4575 0.66837C43.2548 0.547711 43.013 0.511052 42.7836 0.566218C42.5776 0.642712 42.3981 0.777313 42.267 0.953718C42.2762 0.851912 42.2652 0.749283 42.2346 0.651743C42.204 0.554204 42.1544 0.46368 42.0887 0.385385C42.0129 0.280443 41.916 0.192486 41.8042 0.127145C41.6925 0.0618027 41.5683 0.0205152 41.4397 0.00592494C41.311 -0.00866537 41.1808 0.00376289 41.0572 0.0424142C40.9336 0.0810655 40.8195 0.145088 40.7221 0.230385C39.1747 1.34122 37.604 2.42363 36.005 3.45438C33.7885 4.9243 31.4428 6.26505 29.172 7.65747C27.653 8.58488 26.1573 9.5898 24.6357 10.5172C22.96 11.5574 21.3445 12.6838 19.7894 13.8962C19.5213 14.1107 19.3086 14.3864 19.1692 14.7002C19.0299 15.014 18.9679 15.3567 18.9885 15.6994L17.5961 18.6651C17.3757 19.1473 17.2035 19.6459 17.0795 20.1608C17.0053 20.4233 16.9923 20.6993 17.0416 20.9676C17.0908 21.2358 17.201 21.4892 17.3636 21.7082C17.9707 22.3076 18.6889 22.7803 19.4794 23.0981C20.9911 23.5671 22.545 23.8872 24.119 24.0539C24.2581 24.1057 24.4071 24.1254 24.5548 24.1114C24.7026 24.0974 24.8452 24.0501 24.972 23.973C25.0988 23.8959 25.2065 23.7911 25.287 23.6664C25.3674 23.5417 25.4186 23.4004 25.4365 23.2531C25.5095 23.0033 25.483 22.735 25.3626 22.5044C25.2422 22.2737 25.0373 22.0986 24.7907 22.0156C24.0157 21.7056 23.0108 21.2174 21.98 20.7007C20.2518 19.8766 20.6135 20.3907 20.9467 17.1435L22.1092 17.376C23.0909 17.6343 24.0674 17.9185 25.049 18.2543C26.0281 18.5876 27.6272 19.2334 29.0429 19.7475C28.8234 21.137 28.4158 22.4902 27.8313 23.7697C26.9064 25.7972 25.8023 27.7381 24.5324 29.5693C23.2175 31.6851 21.6959 33.7724 20.1226 35.8856C18.614 37.9574 16.9985 39.9431 15.2763 41.8427C13.0234 44.4043 10.4194 46.6343 7.54179 48.4664C7.32952 48.4921 7.13468 48.5968 6.99591 48.7594C6.85715 48.9221 6.78459 49.131 6.79263 49.3447C6.79241 49.4612 6.81605 49.5764 6.86209 49.6833C6.90812 49.7903 6.97558 49.8867 7.0603 49.9666C7.14502 50.0464 7.2452 50.1081 7.35467 50.1478C7.46414 50.1874 7.58057 50.2043 7.69679 50.1972C10.1342 50.258 12.5727 50.1371 14.9921 49.8356C16.6747 49.6741 18.3355 49.3355 19.947 48.8255C22.1403 48.0468 24.2207 46.9809 26.134 45.6557C28.0282 44.315 29.7588 42.757 31.2904 41.0135C35.523 35.9233 38.7586 30.0812 40.828 23.793L45.9844 26.0353L46.8369 26.3453C43.5612 30.0834 46.501 29.4634 43.2512 28.4326C43.1344 28.3698 43.0063 28.3306 42.8743 28.3173C42.7423 28.3041 42.609 28.3171 42.4821 28.3555C42.3551 28.3939 42.237 28.457 42.1344 28.5411C42.0319 28.6253 41.947 28.7289 41.8846 28.846C41.7722 29.0805 41.7523 29.3487 41.8289 29.5972C41.9055 29.8458 42.073 30.0563 42.298 30.1867C43.1005 30.8859 43.9599 31.5042 44.8761 32.0415C45.4407 32.277 46.0705 32.3045 46.6535 32.119M39.539 21.0882C39.4174 21.0388 39.2871 21.0143 39.1559 21.0161C39.0246 21.0179 38.8951 21.046 38.7749 21.0988C38.6547 21.1515 38.5463 21.2278 38.4562 21.3232C38.366 21.4185 38.2958 21.531 38.2499 21.654C38.1588 21.9038 38.1701 22.1794 38.2814 22.4209C38.3927 22.6624 38.5949 22.8501 38.844 22.9431C36.7728 27.7429 34.0662 32.2428 30.797 36.3221C28.827 38.7857 26.5577 40.9943 24.0415 42.8967C22.3882 44.16 20.6005 45.232 18.707 46.0923C17.3378 46.7123 15.9195 47.1859 14.4522 47.5131C13.6255 47.7172 12.8015 47.743 11.874 47.8722C14.5142 46.2379 16.954 44.3001 19.1435 42.0985C21.0452 40.1399 22.7706 38.0177 24.2999 35.7564C25.297 34.2632 26.2167 32.7244 27.0589 31.14C28.224 29.0733 29.2082 26.9085 29.9987 24.6687C30.5473 23.1317 30.8854 21.5276 31.0036 19.8999C31.0116 19.7223 30.9698 19.5461 30.8831 19.3909C30.7964 19.2358 30.6682 19.1078 30.5128 19.0216C30.5205 18.9057 30.5012 18.7895 30.4564 18.6824C30.4116 18.5752 30.3424 18.48 30.2545 18.4041C28.8667 17.6422 27.4573 16.9203 26.0281 16.2393C25.1919 15.8174 24.3309 15.4465 23.45 15.1285C24.7649 14.3561 26.2839 13.5836 26.568 13.4028C29.1462 11.6255 31.9569 9.84555 34.535 7.93647C37.1428 6.01459 39.6632 3.97688 42.0887 1.82947C42.2139 1.69967 42.303 1.53936 42.347 1.36447C42.3225 1.47507 42.3225 1.5897 42.347 1.7003C43.1995 5.80005 43.662 9.92564 44.3569 14.0486C44.6669 15.8311 45.0802 17.5826 45.4935 19.3341L46.6509 23.2531L39.539 21.0882Z" fill="#020202"/>
<path fill-rule="evenodd" clip-rule="evenodd" d="M5.89363 13.8704C11.05 15.392 13.6281 12.6821 13.6281 8.89489C13.7092 7.6191 13.3135 6.35866 12.5178 5.35814C11.7221 4.35762 10.583 3.68836 9.32172 3.48022C8.08325 3.54442 6.87743 3.90005 5.80233 4.51817C4.72723 5.1363 3.81321 5.99947 3.13463 7.03747C2.62411 7.81145 2.37165 8.72716 2.41342 9.6534C2.45518 10.5796 2.78903 11.4689 3.36713 12.1938C4.02588 12.9869 4.90422 13.5707 5.89363 13.8704ZM6.30697 8.27489C7.08972 7.42239 8.16697 6.89797 9.32172 6.80497C10.4067 6.80497 10.9208 7.94164 11.0241 9.02406C11.4375 12.6071 8.70172 12.5296 7.05355 11.9355C6.41049 11.7288 5.8561 11.311 5.4803 10.7497C4.98947 9.82231 5.60947 8.97239 6.30697 8.27489ZM11.2799 28.2544C11.3631 26.9911 10.9786 25.7413 10.1996 24.7432C9.4207 23.7452 8.3018 23.0686 7.05614 22.8423C5.79104 22.8685 4.5516 23.204 3.44607 23.8196C2.34054 24.4352 1.40256 25.3121 0.714051 26.3737C0.207129 27.1504 -0.0409038 28.0676 0.00550324 28.9939C0.0519103 29.9201 0.390375 30.808 0.972385 31.5301C1.65438 32.2999 2.55338 32.8476 3.55055 33.1033C8.67847 34.7515 11.2282 32.0441 11.2799 28.2544ZM3.13722 30.1118C2.56888 29.1818 3.13722 28.3319 3.88638 27.5336C4.66914 26.6811 5.74639 26.1464 6.90113 26.0379C7.98355 26.0379 8.50022 27.1746 8.60355 28.2802C9.14605 33.0258 4.1163 31.7884 3.13722 30.1118Z" fill="#0C6FFF"/>
</svg>
