<svg width="14" height="14" viewBox="0 0 14 14" fill="none" xmlns="http://www.w3.org/2000/svg">
<path d="M9.1875 11.6211C9.09635 11.7122 8.98926 11.7578 8.86621 11.7578C8.74316 11.7578 8.64062 11.7122 8.55859 11.6211C8.46745 11.5391 8.42188 11.4342 8.42188 11.3066C8.42188 11.179 8.46745 11.0742 8.55859 10.9922L11.7715 7.76562H1.14844C1.02083 7.76562 0.913737 7.72233 0.827148 7.63574C0.74056 7.54915 0.697266 7.44661 0.697266 7.32812C0.697266 7.20052 0.742839 7.09342 0.833984 7.00684C0.92513 6.92025 1.02995 6.87695 1.14844 6.87695H11.7715L8.55859 3.65039C8.46745 3.55925 8.42188 3.45215 8.42188 3.3291C8.42188 3.20605 8.46745 3.10352 8.55859 3.02148C8.64974 2.93034 8.75684 2.88477 8.87988 2.88477C9.00293 2.88477 9.10547 2.93034 9.1875 3.02148L13.166 7C13.248 7.08203 13.2891 7.18685 13.2891 7.31445C13.2891 7.44206 13.248 7.54688 13.166 7.62891L9.1875 11.6211Z" fill="#4285F4"/>
</svg>
