<svg width="77" height="76" viewBox="0 0 77 76" fill="none" xmlns="http://www.w3.org/2000/svg">
<path d="M76.557 37.5517C76.557 44.9795 74.3116 52.2404 70.1047 58.4161C65.8978 64.5918 59.9185 69.405 52.923 72.2467C45.9275 75.0884 38.2301 75.831 30.8043 74.3807C23.3785 72.9303 16.558 69.3522 11.2053 64.0987C5.85269 58.8453 2.2084 52.1526 0.733395 44.8671C-0.741608 37.5817 0.0189192 30.0307 2.91882 23.1693C5.81872 16.3079 10.7277 10.4445 17.0249 6.3203C23.3221 2.19613 30.7245 -0.00339939 38.2961 3.94352e-06C48.4451 0.00456585 58.1769 3.96282 65.3517 11.0047C72.5265 18.0465 76.557 27.5953 76.557 37.5517Z" fill="#FFB600"/>
</svg>
