<svg width="55" height="66" viewBox="0 0 55 66" fill="none" xmlns="http://www.w3.org/2000/svg">
<path d="M11.043 14.6045C8.46976 15.7657 5.66593 16.3258 2.84404 16.2425C2.58129 16.2387 2.32179 16.3009 2.08926 16.4233C1.85674 16.5457 1.6586 16.7244 1.51298 16.9432C1.36736 17.1619 1.27889 17.4137 1.25566 17.6754C1.23244 17.9372 1.2752 18.2005 1.38004 18.4415L9.49804 36.4895C9.60595 36.7298 9.77318 36.9388 9.98401 37.0967C10.1949 37.2546 10.4424 37.3564 10.7033 37.3923C10.9643 37.4283 11.2301 37.3974 11.4758 37.3025C11.7216 37.2075 11.9391 37.0516 12.108 36.8495C13.9211 34.6896 16.2016 32.9703 18.777 31.8215L49.119 18.1805C51.1664 17.3038 52.8479 15.7466 53.879 13.7725C54.91 11.7984 55.2273 9.52867 54.777 7.3475C54.4681 5.98435 53.8601 4.70688 52.997 3.6075C52.1339 2.50812 51.0372 1.61432 49.7863 0.990732C48.5354 0.367146 47.1615 0.0293685 45.7641 0.00183095C44.3666 -0.0257066 42.9805 0.257684 41.706 0.831505L11.043 14.6045Z" fill="#C2F3FF"/>
<path d="M54.7829 7.33251C54.401 5.7385 53.6123 4.27074 52.4939 3.07251C52.1904 4.69054 51.4987 6.21071 50.4782 7.50246C49.4577 8.7942 48.1388 9.81889 46.6349 10.4885L15.6719 24.4085C13.0471 25.5907 10.7217 27.3481 8.86789 29.5505C8.69801 29.7592 8.4773 29.9208 8.22696 30.0196C7.97663 30.1184 7.70509 30.1511 7.43845 30.1146C7.1718 30.0782 6.91902 29.9738 6.70439 29.8114C6.48976 29.649 6.32051 29.4342 6.21289 29.1875L9.49489 36.4895C9.6028 36.7298 9.77003 36.9388 9.98087 37.0967C10.1917 37.2546 10.4392 37.3564 10.7002 37.3924C10.9611 37.4283 11.227 37.3974 11.4727 37.3025C11.7184 37.2075 11.936 37.0516 12.1049 36.8495C13.918 34.6896 16.1985 32.9703 18.7739 31.8215L49.1189 18.1805C51.1703 17.3043 52.8553 15.7452 53.8878 13.7678C54.9202 11.7904 55.2365 9.51662 54.7829 7.33251Z" fill="#66E1FF"/>
<path d="M11.043 14.6045C8.46976 15.7657 5.66593 16.3258 2.84404 16.2425C2.58129 16.2387 2.32179 16.3009 2.08926 16.4233C1.85674 16.5457 1.6586 16.7244 1.51298 16.9432C1.36736 17.1619 1.27889 17.4137 1.25566 17.6754C1.23244 17.9372 1.2752 18.2005 1.38004 18.4415L9.49804 36.4895C9.60595 36.7298 9.77318 36.9388 9.98401 37.0967C10.1949 37.2546 10.4424 37.3564 10.7033 37.3924C10.9643 37.4283 11.2301 37.3974 11.4758 37.3025C11.7216 37.2075 11.9391 37.0516 12.108 36.8495C13.9211 34.6896 16.2016 32.9703 18.777 31.8215L49.119 18.1805C51.1664 17.3038 52.8479 15.7466 53.879 13.7725C54.91 11.7984 55.2273 9.52867 54.777 7.3475C54.4681 5.98435 53.8601 4.70688 52.997 3.6075C52.1339 2.50812 51.0372 1.61432 49.7863 0.990732C48.5354 0.367146 47.1615 0.0293685 45.7641 0.00183095C44.3666 -0.0257066 42.9805 0.257684 41.706 0.831505L11.043 14.6045Z" stroke="#191919" stroke-linecap="round" stroke-linejoin="round"/>
<path d="M12.576 59.7124C12.576 61.3801 11.9135 62.9795 10.7343 64.1587C9.55506 65.3379 7.95568 66.0004 6.288 66.0004C4.62032 66.0004 3.02094 65.3379 1.84171 64.1587C0.662484 62.9795 2.48504e-08 61.3801 0 59.7124C0 57.2314 3.216 52.6714 5.046 50.2834C5.19298 50.0946 5.38113 49.9418 5.5961 49.8367C5.81108 49.7316 6.04721 49.677 6.2865 49.677C6.52579 49.677 6.76192 49.7316 6.9769 49.8367C7.19187 49.9418 7.38002 50.0946 7.527 50.2834C9.357 52.6714 12.576 57.2314 12.576 59.7124Z" fill="#FFEF5E" stroke="#191919" stroke-linecap="round" stroke-linejoin="round"/>
<path d="M17.904 32.1995L14.04 23.5985M26.508 28.3325L23.928 22.5965M35.109 24.4655L31.239 15.8645M43.713 20.5985L41.133 14.8625" stroke="#191919" stroke-linecap="round" stroke-linejoin="round"/>
</svg>
