<svg width="46" height="47" viewBox="0 0 46 47" fill="none" xmlns="http://www.w3.org/2000/svg">
<path fill-rule="evenodd" clip-rule="evenodd" d="M43.3985 22.469C42.8975 21.9879 42.2326 21.715 41.5381 21.7052C36.4699 21.5682 31.4605 21.4507 26.4119 21.3527L3.73441 21.0002C2.908 21.0002 2.11291 21.3077 1.50191 21.8619C0.898748 22.4298 0.534498 23.2073 0.483581 24.0337C0.366081 26.2075 0.248581 28.9844 0.170248 31.6653C0.170248 34.64 0.0527479 37.5345 0.0527479 39.3165C0.0240257 40.3701 0.0697201 41.4204 0.189831 42.4675C0.313206 43.3331 0.679415 44.1477 1.24733 44.8155C2.06787 45.6576 3.11558 46.2432 4.26316 46.4977C6.52504 46.9149 8.83 47.0735 11.131 46.9677H17.9402C23.2042 46.9677 28.4682 46.6544 33.7322 46.5565C35.5639 46.627 37.3897 46.5552 39.2096 46.3411C40.6078 46.1299 41.8885 45.4373 42.8306 44.3827C43.4827 43.6053 43.9507 42.6888 44.2014 41.7037C44.501 40.3156 44.639 38.8975 44.6127 37.4777V29.6482C44.4364 24.4822 44.3581 23.4834 43.3985 22.4651M43.046 37.4542C43.0656 38.7702 42.9285 40.0842 42.6348 41.3669C42.4515 42.1269 42.0889 42.832 41.5772 43.4232C40.8703 44.1477 39.9264 44.5982 38.9159 44.6941C37.1847 44.8292 35.4437 44.8292 33.7126 44.6941C28.4486 44.6941 23.1846 44.8508 17.9206 44.8508C15.6685 44.8508 13.4399 44.8508 11.1898 44.7529C9.3359 44.792 7.48984 44.7137 5.65162 44.5179C4.62225 44.4448 3.64841 44.0235 2.89037 43.3233C2.60088 42.9631 2.41835 42.5288 2.36358 42.07C2.26336 41.1348 2.23064 40.1937 2.26566 39.2539V33.2261C2.26566 30.1143 2.42233 26.6716 2.53983 24.1277C2.54299 23.8329 2.66267 23.5513 2.87275 23.3444C3.08607 23.1466 3.36518 23.0349 3.65608 23.031C11.4816 23.031 18.9957 22.894 26.3532 22.8744H41.4617C41.8534 22.8744 42.2294 23.0193 42.5172 23.2856C43.0264 23.7556 43.0656 23.8535 43.0852 29.5484C43.1635 32.4252 43.1047 35.2217 43.046 37.4542Z" fill="#020202"/>
<path fill-rule="evenodd" clip-rule="evenodd" d="M39.699 26.9301C39.6794 26.7587 39.596 26.6011 39.4653 26.4886C39.3346 26.3761 39.1664 26.3169 38.994 26.323C38.8386 26.3395 38.6935 26.4086 38.5828 26.5188C36.4893 26.4209 34.435 26.2642 32.3807 26.2055H27.9588C27.7927 26.2175 27.6358 26.2864 27.5146 26.4005C27.3933 26.5147 27.3151 26.6671 27.293 26.8321C27.2639 27.3705 27.0998 27.8929 26.8158 28.3512C26.5317 28.8095 26.1368 29.1888 25.6676 29.4543C24.5707 29.8978 23.382 30.0658 22.2052 29.9439C21.5934 29.9357 20.9836 29.8701 20.384 29.7481C19.8908 29.6534 19.4396 29.4069 19.0934 29.0431C18.8727 28.7637 18.7247 28.4341 18.6626 28.0835C18.5767 27.6315 18.5309 27.1728 18.5255 26.7127C18.5051 26.4693 18.3927 26.2428 18.2111 26.0794C18.0296 25.916 17.7925 25.828 17.5483 25.8334C14.8282 25.8334 12.1081 25.6963 9.40753 25.8334C8.2012 25.8686 7.00139 25.9731 5.80811 26.1467C5.5521 26.1884 5.31914 26.3195 5.15063 26.5167C4.98212 26.7139 4.88896 26.9644 4.8877 27.2238V32.7992C4.8877 33.9546 4.8877 35.1688 5.06395 36.5376C5.08483 37.4907 5.18275 38.4366 5.3577 39.3753C5.5457 40.0959 5.89428 40.7637 6.37603 41.3336C7.24746 42.3015 8.44548 42.9138 9.74045 43.053C11.2941 43.181 12.8464 43.181 14.3974 43.053C17.9596 43.053 21.5198 43.053 25.0624 42.9355C27.4516 42.9355 29.8369 42.818 32.2241 42.6809C33.8504 42.7341 35.4776 42.6093 37.0768 42.3088C37.8876 42.1267 38.6239 41.7037 39.1918 41.0966C39.7636 40.4151 40.1436 39.5887 40.2865 38.7094C40.404 37.5814 40.404 36.4528 40.2865 35.3235L39.699 26.9301ZM9.48586 27.8896C11.8946 27.7526 14.2994 27.8896 16.7258 27.7721C16.782 28.1442 16.8668 28.5091 16.9804 28.8668C17.1351 29.3858 17.4112 29.8617 17.7833 30.2573C18.2612 30.7566 18.8604 31.1189 19.5262 31.3128C20.3918 31.5458 21.2887 31.6457 22.1857 31.6066C23.9522 31.7782 25.7219 31.3129 27.1755 30.2945C27.9197 29.5797 28.4014 28.6358 28.5463 27.6135H32.2632C34.2216 27.6135 36.2954 27.6135 38.3302 27.7702L38.6631 34.8358C34.4994 34.3291 30.3133 34.0285 26.1199 33.935H18.1946C14.4953 34.0329 10.7979 34.2483 7.11824 34.3267V28.1403C7.8624 27.9836 8.6849 27.9249 9.48782 27.8857M38.6846 38.4118C38.5967 38.9826 38.3527 39.518 37.9796 39.9588C37.4502 40.4645 36.753 40.7573 36.0213 40.7813C34.7196 40.8858 33.4154 40.9184 32.1085 40.8793H26.7858C22.638 40.8793 18.4903 40.8793 14.3406 40.7813C12.9085 40.9067 11.4682 40.9067 10.0362 40.7813C9.29909 40.7156 8.60733 40.3974 8.07782 39.8805C7.82034 39.5553 7.64622 39.1721 7.57061 38.7643C7.41922 37.9576 7.34057 37.139 7.33561 36.3183V35.4762C11.4246 35.7308 15.5352 35.9462 19.6633 35.9854H27.4908C31.2488 35.9854 35.0245 35.9854 38.7629 36.1225C38.8315 36.8862 38.806 37.6539 38.6846 38.4118Z" fill="#410CFF"/>
<path fill-rule="evenodd" clip-rule="evenodd" d="M23.1649 27.7134C23.368 27.6984 23.5637 27.6309 23.7328 27.5175C24.1832 27.1455 24.5357 26.7146 24.4378 26.2446C24.3399 25.7746 24.2812 25.2655 23.7916 25.1284C23.5802 25.0209 23.3413 24.98 23.1062 25.0109C23.0567 24.9893 23.0034 24.9782 22.9495 24.9782C22.8956 24.9782 22.8422 24.9893 22.7928 25.0109C22.5539 25.0166 22.3194 25.0769 22.1074 25.1871C21.892 25.1871 21.8528 25.4809 21.657 25.6963C21.4612 25.9117 21.5395 26.6755 21.8137 27.1455C21.9694 27.3502 22.1762 27.5104 22.4134 27.61C22.6505 27.7097 22.9097 27.7453 23.1649 27.7134ZM3.42099 18.6718C3.43438 18.7563 3.46607 18.8368 3.51384 18.9078C3.56161 18.9788 3.6243 19.0385 3.69755 19.0827C3.77079 19.127 3.85281 19.1547 3.93787 19.1639C4.02294 19.1731 4.10899 19.1637 4.19002 19.1362C4.27104 19.1087 4.34508 19.0638 4.40697 19.0047C4.46885 18.9456 4.51708 18.8737 4.54829 18.7941C4.57949 18.7144 4.59292 18.6289 4.58763 18.5435C4.58234 18.4581 4.55846 18.3749 4.51766 18.2997L1.71528 9.96696C1.60739 9.69663 1.60739 9.3952 1.71528 9.12488C1.84543 8.87528 2.06086 8.6807 2.32237 8.57654C2.92162 8.38593 3.49606 8.13788 4.0457 7.83238C4.41648 7.61565 4.75527 7.35454 5.06208 7.04904C6.23708 5.93475 7.02041 4.50713 8.19345 3.46921C8.59628 3.0988 9.06898 2.81252 9.58387 2.62713C10.0872 2.46067 10.6257 2.42738 11.1486 2.52921C12.2061 2.70546 13.242 3.11671 14.3563 3.19504C14.9112 3.25379 15.466 3.25379 16.0209 3.19504C16.7951 3.08917 17.5604 2.92552 18.3102 2.70546C18.5504 2.61705 18.8142 2.61705 19.0544 2.70546C19.2989 2.81382 19.4943 3.00928 19.6027 3.25379L23.3784 12.7067C23.4435 12.8649 23.5687 12.991 23.7265 13.057C23.8844 13.1231 24.062 13.1239 24.2205 13.0592C24.3089 13.0335 24.3908 12.9892 24.4607 12.9293C24.5307 12.8694 24.587 12.7953 24.6259 12.7118C24.6649 12.6284 24.6855 12.5376 24.6865 12.4455C24.6875 12.3534 24.6688 12.2622 24.6317 12.1779L21.3221 2.53117C21.053 1.86991 20.5621 1.32293 19.9337 0.984084C19.2913 0.663989 18.5585 0.574119 17.8578 0.729501C17.2984 0.869599 16.7306 0.974251 16.158 1.04283C15.6381 1.11278 15.1112 1.11278 14.5913 1.04283C13.3204 0.942959 12.1473 0.394626 10.9351 0.296709C10.2712 0.237959 9.60345 0.326084 8.97678 0.551293C8.16212 0.825459 7.41012 1.25629 6.76582 1.82421C5.59083 2.90129 4.80945 4.40725 3.67362 5.58029C3.40206 5.83749 3.10831 6.06596 2.79237 6.26571C2.42681 6.47852 2.04885 6.66782 1.65849 6.83363C1.00049 7.14696 0.479575 7.68942 0.189742 8.36113C-0.0632472 9.03534 -0.0632472 9.77841 0.189742 10.4526L3.42099 18.6718ZM24.7492 19.1026C24.859 19.2102 25.0067 19.2705 25.1605 19.2705C25.3142 19.2705 25.4619 19.2102 25.5717 19.1026C26.7271 18.1234 27.5281 17.4968 28.1743 16.9093C28.8206 16.3237 28.8793 16.2062 29.1927 15.8733C29.506 15.5404 29.7997 15.1683 30.1111 14.757C30.4245 14.3458 31.0903 13.4469 31.7953 12.4893L32.6158 13.1747C33.1642 13.6251 33.8692 14.1715 34.5742 14.7198L35.101 15.1507L34.0434 16.1103C33.8659 16.2996 33.7027 16.5013 33.5539 16.7154C33.4063 16.9125 33.2758 17.1214 33.1622 17.342C32.9664 17.7337 32.8097 18.2233 32.4592 19.0634C32.3936 19.1863 32.3737 19.3284 32.4032 19.4645C32.4327 19.6007 32.5096 19.7219 32.6202 19.8066C32.7307 19.8912 32.8678 19.9339 33.0069 19.9269C33.146 19.9199 33.2781 19.8638 33.3796 19.7684C34.1042 19.2005 34.535 18.9067 34.8483 18.5934C35.0402 18.4119 35.2093 18.2096 35.3555 17.9863C35.5031 17.7683 35.6336 17.5398 35.7472 17.3009C35.8843 17.0268 36.0214 16.6742 36.2368 16.167C36.5627 16.4589 36.8052 16.8321 36.9394 17.2484C37.0736 17.6648 37.0947 18.1094 37.0005 18.5366C36.9659 18.6928 36.9886 18.8562 37.0646 18.9969C37.1405 19.1377 37.2646 19.2464 37.4141 19.3032C37.5636 19.36 37.7285 19.3611 37.8788 19.3063C38.029 19.2515 38.1545 19.1444 38.2323 19.0047C38.4959 18.3624 38.584 17.6616 38.4877 16.9741C38.3913 16.2866 38.114 15.637 37.684 15.0919C37.5006 14.7931 37.2909 14.5113 37.0573 14.2498C37.842 13.7668 38.56 13.1989 39.2115 12.5461C39.5966 12.1805 39.955 11.7895 40.2866 11.373C40.5738 10.9461 40.8349 10.5022 41.07 10.0414C41.4635 9.22822 41.7909 8.38472 42.0491 7.51904H42.2449C43.1447 7.37971 43.9628 6.91695 44.5458 6.21753C45.1288 5.51811 45.4366 4.63005 45.4116 3.71988C45.5209 2.84637 45.2798 1.96512 44.7411 1.26892C44.2023 0.572716 43.4097 0.118239 42.5367 0.00491778C42.3771 -0.0151984 42.2158 0.0268737 42.0863 0.122418H41.9688C41.199 0.22045 40.4588 0.48077 39.797 0.886168C39.0969 1.35807 38.568 2.04361 38.2891 2.84058C38.1101 3.30845 38.0627 3.81642 38.152 4.30933C37.4686 4.77933 36.7832 5.26892 36.1976 5.79767C35.7851 6.111 35.3999 6.45632 35.0422 6.83363C34.6714 7.2044 34.332 7.6026 34.0239 8.02821C33.4305 8.8135 32.9076 9.65363 32.4592 10.531L32.0283 10.2764C31.2852 9.82504 30.4484 9.55034 29.5824 9.47346C28.9557 9.43821 28.329 9.60271 27.8003 9.94346C27.664 10.0149 27.5611 10.137 27.5139 10.2835C27.4666 10.43 27.4788 10.5892 27.5477 10.7268C27.6221 10.8601 27.7455 10.9591 27.8917 11.003C28.0379 11.0468 28.1955 11.0321 28.331 10.9618C28.6808 10.8467 29.0583 10.8467 29.4081 10.9618C29.8507 11.0793 30.26 11.3006 30.6007 11.608C29.739 12.3522 29.0732 12.9005 28.6424 13.3901C28.2115 13.8778 27.9178 14.0736 27.6064 14.4261C27.2459 14.7507 26.9058 15.0973 26.5881 15.464C26.0593 16.169 25.5306 17.0483 24.6317 18.2997C24.5859 18.3598 24.5526 18.4285 24.5337 18.5017C24.5149 18.5748 24.5108 18.651 24.5217 18.7258C24.5327 18.8006 24.5584 18.8724 24.5975 18.9371C24.6365 19.0018 24.6881 19.0581 24.7492 19.1026ZM39.9929 3.44571C40.0516 2.88563 40.3003 2.36079 40.6979 1.95738C41.1522 1.61075 41.6809 1.36988 42.2449 1.25433H42.4016C42.8554 1.41555 43.234 1.73834 43.4648 2.16102C43.6956 2.5837 43.7626 3.07662 43.653 3.54558C43.6364 3.97923 43.4655 4.3927 43.1711 4.71153C42.8767 5.03035 42.4781 5.23357 42.0472 5.28458C41.7801 5.28623 41.5155 5.23323 41.2696 5.12883C41.0238 5.02442 40.8019 4.87083 40.6176 4.6775C40.4116 4.52931 40.2464 4.33156 40.1372 4.10255C40.028 3.87354 39.9784 3.62067 39.9929 3.36738V3.44571ZM35.5709 9.39904C35.9235 9.06613 36.2564 8.71363 36.5893 8.36113L37.5861 7.28404L38.8198 5.876C38.8738 5.98098 38.9395 6.07953 39.0157 6.16975C39.4132 6.62017 39.9087 6.97267 40.4629 7.20767C39.8754 8.12809 39.2291 9.02696 38.5045 9.92779L37.6644 11.142C37.3707 11.5708 37.1357 12.0017 36.8419 12.3933C36.5482 12.785 36.3719 12.9613 36.1369 13.2354L35.9215 13.0004C35.2184 12.3933 34.4743 11.8842 33.9651 11.4338L33.6714 11.2379C34.298 10.6113 34.9443 10.0238 35.5709 9.39708" fill="#020202"/>
<path fill-rule="evenodd" clip-rule="evenodd" d="M7.02041 11.4513L8.23458 10.4329C8.82208 9.7867 9.33124 9.0817 9.97553 8.47657C10.281 8.19261 10.6414 7.97328 11.033 7.83032C11.4874 7.71674 11.9652 7.71674 12.4215 7.83032C13.3615 7.9674 14.2427 8.33949 15.2787 8.45699C15.5973 8.49615 15.9171 8.49615 16.2383 8.45699C16.5542 8.42043 16.861 8.3421 17.1587 8.22199C17.2161 8.19306 17.2795 8.17799 17.3438 8.17799C17.408 8.17799 17.4714 8.19306 17.5288 8.22199C17.5987 8.23949 17.6643 8.27111 17.7216 8.31489C17.7788 8.35866 17.8265 8.41369 17.8617 8.47657C18.4101 9.57324 18.9192 10.6699 19.4284 11.7646C19.9356 12.8613 20.4252 14.0147 20.8952 15.131C20.9719 15.2731 21.0977 15.3825 21.2491 15.4388C21.4005 15.495 21.5672 15.4944 21.7181 15.4369C21.8691 15.3794 21.9939 15.269 22.0695 15.1262C22.1451 14.9835 22.1662 14.8181 22.129 14.661L19.544 7.59728C19.31 7.02454 18.8597 6.56715 18.2906 6.32436C17.7071 6.08861 17.0548 6.08861 16.4713 6.32436H15.5705C14.3387 6.12853 13.3223 5.61936 12.1865 5.52145C11.4917 5.47758 10.7955 5.58241 10.1444 5.82893C9.49336 6.07545 8.90234 6.45799 8.41083 6.95103C7.78011 7.64565 7.19155 8.37742 6.64833 9.1424L5.80624 9.94532C5.43764 10.2786 5.17826 10.7155 5.06208 11.1987C4.90737 11.6882 4.90737 12.2131 5.06208 12.7027L7.66666 18.5737C7.73847 18.6935 7.85057 18.7837 7.98288 18.8283C8.1152 18.8729 8.25907 18.8689 8.3887 18.8171C8.51834 18.7652 8.62527 18.6689 8.69033 18.5453C8.75539 18.4218 8.77433 18.2791 8.74374 18.1429L6.78541 12.0975C6.75732 11.9786 6.7646 11.8541 6.80635 11.7393C6.8481 11.6245 6.92251 11.5244 7.02041 11.4513Z" fill="#020202"/>
</svg>
