<svg width="152" height="373" viewBox="0 0 152 373" fill="none" xmlns="http://www.w3.org/2000/svg">
<path d="M66.8445 353.06H81.6824L106.221 367.074L64.0337 366.538L66.8445 353.06Z" fill="#101010"/>
<path d="M63.884 372.464L64.0338 366.538L106.222 367.074L106.072 373L63.884 372.464Z" fill="white"/>
<path d="M91.9387 358.224L87.075 359.644" stroke="white" stroke-width="1.52" stroke-linecap="round" stroke-linejoin="round"/>
<path d="M87.1894 355.618L82.3257 357.039" stroke="white" stroke-width="1.52" stroke-linecap="round" stroke-linejoin="round"/>
<path d="M82.8015 330.732H67.6815L66.8445 353.06H81.9732L82.8015 330.732Z" fill="#B38477"/>
<path d="M19.8547 353.06H34.6927L59.2229 367.074L17.0352 366.538L19.8547 353.06Z" fill="#101010"/>
<path d="M16.8853 372.464L17.035 366.538L59.2228 367.074L59.0819 373L16.8853 372.464Z" fill="white"/>
<path d="M44.9399 358.224L40.085 359.644" stroke="white" stroke-width="1.52" stroke-linecap="round" stroke-linejoin="round"/>
<path d="M40.1907 355.618L35.3269 357.039" stroke="white" stroke-width="1.52" stroke-linecap="round" stroke-linejoin="round"/>
<path d="M38.4198 330.732H23.2999L19.8547 353.06H34.9747L38.4198 330.732Z" fill="#B38477"/>
<path d="M87.683 138.618L87.6125 180.642C87.7975 186.445 87.6037 202.358 87.26 208.152L85.3744 345.226H59.4432L61.9015 197.91L41.4244 345.226L16.0659 344.596L35.5033 147.949L61.0733 140.49L87.6918 138.618H87.683Z" fill="#71ABC7"/>
<path d="M61.0732 197.909L73.4441 195.718" stroke="#171717" stroke-width="0.7" stroke-linecap="round" stroke-linejoin="round"/>
<path d="M87.6829 174.848L32.3665 179.654L31.7673 185.664L87.6124 180.641L87.6829 174.848Z" fill="#68A1BA"/>
<path d="M100.644 120.579L134.567 81.02H143.731L121.491 128.724L100.644 120.579Z" fill="#B38477"/>
<path d="M144.356 65.8399L147.343 50.829C147.511 49.9919 147.035 49.1736 146.268 48.9385C145.493 48.7128 144.682 49.1737 144.435 50.0013L142.33 57.0177L144.356 65.8399Z" fill="#9B6A5B"/>
<path d="M137.862 90.7733L142.761 84.5C142.761 84.5 148.77 79.6562 149.59 71.9532C150.101 67.1377 151.132 64.175 151.828 62.6325C152.189 61.8236 151.969 60.8643 151.282 60.3564C150.55 59.8203 149.563 59.9708 149.017 60.7138C147.969 62.1528 146.33 64.7205 145.272 67.9653L143.845 49.2205C143.801 48.3928 143.096 47.7909 142.33 47.9319C141.792 48.026 141.36 48.4774 141.263 49.0512L137.712 70.7023C137.712 70.7023 134.426 82.7506 132.62 85.8167L137.871 90.7733H137.862Z" fill="#B38477"/>
<path d="M83.3302 80.2768L119.526 113.553C123.403 116.581 124.707 122.121 122.628 126.749C120.011 132.571 113.182 134.593 108.134 131.028L70.2368 100.348C65.1616 96.7643 63.5932 89.5881 66.6595 83.9825C70.087 77.7185 77.8408 75.9973 83.3214 80.2768H83.3302Z" fill="#B38477"/>
<path d="M57.9893 82.9763C57.9893 82.9763 59.3638 94.9587 86.0528 115.556L104.556 94.5073L84.4139 72.3201L57.9893 82.9763Z" fill="#71ABC7"/>
<path d="M104.926 94.9493L103.19 93.04L84.0173 114.005L86.0439 115.556L104.926 94.9493Z" fill="white"/>
<path d="M52.7378 64.1094C52.7378 64.1094 41.5477 66.7805 33.9172 70.8907C29.1152 73.4771 28.5777 79.0639 29.1856 84.773L34.3842 136.013L26.0312 180.209L92.4673 174.406L88.8195 140.481L89.8064 86.5318C90.335 78.5748 85.762 71.2669 78.6955 68.6992C70.7743 65.8212 68.175 63.3852 63.9632 63.1218L52.7555 64.1094H52.7378Z" fill="#71ABC7"/>
<path d="M52.7378 64.1094L67.0119 79.995L69.2058 64.6079L52.7378 64.1094Z" fill="#B38477"/>
<path d="M52.7378 64.1094L67.0118 79.995L69.2058 64.6079L71.1266 65.5014L68.0604 84.4438L50.7993 64.6079L52.7378 64.1094Z" fill="white"/>
<path d="M89.7711 88.1963L89.4539 107.759" stroke="#171717" stroke-width="0.82" stroke-linecap="round" stroke-linejoin="round"/>
<path d="M41.8121 96.7363L19.1057 141.6C17.1673 146.284 12.374 148.833 7.69528 147.657C1.80062 146.18 -1.50356 139.484 0.672794 133.455L20.6389 87.378C22.8328 81.321 29.0711 78.1514 34.8512 80.1453C41.3186 82.3744 44.5523 90.0868 41.8032 96.7269L41.8121 96.7363Z" fill="#B38477"/>
<path d="M33.9176 70.8811C33.9176 70.8811 23.2473 74.8784 10.1099 107.111L33.3272 121.905L49.3195 96.1533L33.9176 70.8811Z" fill="#71ABC7"/>
<path d="M33.001 122.385L34.3844 120.175L11.0877 104.665L10.1008 107.12L33.001 122.385Z" fill="white"/>
<path d="M34.3843 120.175L45.83 101.759" stroke="#171717" stroke-width="0.82" stroke-linecap="round" stroke-linejoin="round"/>
<path d="M47.1781 108.766L20.7271 155.238L54.3416 175.666L80.8808 130.182L47.1781 108.766Z" fill="#3056A9"/>
<path d="M47.7068 113.497L24.9917 153.404L53.857 170.954L76.6515 131.884L47.7068 113.497Z" fill="white"/>
<path d="M58.8002 116.149L56.1304 120.645L65.3116 126.683L68.4131 122.263L58.8002 116.149Z" fill="#EAB258"/>
<path d="M8.62931 123.41L54.4473 149.755L50.2708 161.032L5.64233 146.886L8.62931 123.41Z" fill="#B38477"/>
<path d="M50.8964 149.858C50.8964 149.858 67.99 143.678 68.2632 150.526C68.5363 157.373 67.6023 173.794 49.5659 160.561L50.8964 149.858Z" fill="#B38477"/>
<path d="M50.4295 150.714L52.4296 147.619C53.5839 145.832 55.2139 144.459 57.0995 143.669L60.6063 142.211C61.4434 141.863 62.4038 142.174 62.9149 142.964C63.4788 143.829 63.3466 145.005 62.6153 145.701L57.9013 150.206L50.4207 150.704L50.4295 150.714Z" fill="#B38477"/>
<path d="M77.7176 30.8238C78.352 33.8429 81.1628 35.7334 83.9912 35.0562C86.8196 34.379 88.5906 31.3787 87.9562 28.3596C87.3218 25.3405 84.511 23.45 81.6826 24.1272C78.8543 24.8044 77.0832 27.8047 77.7176 30.8238Z" fill="#9B6A5B"/>
<path d="M69.664 43.2951L69.2058 64.6077L52.7378 64.1092L57.4958 28.0867L69.664 43.2951Z" fill="#B38477"/>
<path d="M69.3822 56.1995L58.3242 40.4832L69.5849 44.4804L69.3822 56.1995Z" fill="#1F0C03"/>
<path d="M76.9333 5.65491C82.2376 6.41674 84.8193 12.408 85.348 17.7878C85.9559 23.9859 86.0881 32.3567 84.2906 37.0594C81.4975 44.3297 75.1711 49.8319 66.2101 47.2454C66.2101 47.2454 56.5267 45.8816 55.0112 28.999C53.2137 9.02203 65.655 4.04659 76.9421 5.65491H76.9333Z" fill="#B38477"/>
<path d="M82.2554 25.7545C82.3788 26.4505 83.0044 26.9113 83.6564 26.7797C84.3084 26.648 84.7402 25.9802 84.6168 25.2842C84.4935 24.5882 83.8679 24.1274 83.2158 24.259C82.5638 24.3907 82.1321 25.0585 82.2554 25.7545Z" fill="#1F0C03"/>
<path d="M72.1226 25.7545C72.246 26.4505 72.8716 26.9113 73.5236 26.7797C74.1756 26.648 74.6074 25.9802 74.484 25.2842C74.3606 24.5882 73.735 24.1274 73.083 24.259C72.431 24.3907 71.9992 25.0585 72.1226 25.7545Z" fill="#1F0C03"/>
<path d="M80.0351 27.1746L80.8897 30.8709C80.9779 31.2659 80.74 31.6609 80.3699 31.7362L79.1011 31.9995" stroke="#1D0004" stroke-width="0.48" stroke-linecap="round" stroke-linejoin="round"/>
<path d="M81.2069 16.4901C81.2069 16.4901 80.7311 18.0138 82.511 18.3241C83.8591 18.5593 84.7138 18.6909 85.4715 19.0389C85.9033 19.2364 86.3967 19.0766 86.6522 18.6627C86.8549 18.3241 86.8637 17.8915 86.6522 17.5623C86.2381 16.8851 85.3393 15.8317 83.7093 15.5119C81.6122 15.1075 81.2069 16.4995 81.2069 16.4995V16.4901Z" fill="#1F0C03"/>
<path d="M74.9861 16.5561C74.9861 16.5561 75.5324 18.0892 73.2415 18.3526C71.5057 18.5595 69.4263 19.2555 68.4483 19.5847C67.8932 19.7728 67.2588 19.5941 66.9504 19.1802C66.7037 18.8416 66.7125 18.409 66.9856 18.0798C67.5495 17.412 69.7083 15.7849 71.8229 15.5122C74.5368 15.1642 74.9861 16.5561 74.9861 16.5561Z" fill="#1F0C03"/>
<path d="M73.541 34.3604C73.541 34.3604 75.594 36.7305 78.5369 35.8182" stroke="#1D0004" stroke-width="0.48" stroke-linecap="round" stroke-linejoin="round"/>
<path d="M80.8984 30.1371C80.8984 30.1371 63.0294 29.3941 58.3154 40.483C58.3154 40.483 61.1879 49.7002 73.2944 47.6216C73.2944 47.6216 82.1408 46.192 84.9692 34.7081L80.8984 30.1371Z" fill="white"/>
<path d="M58.3242 28.322L66.9856 35.1879" stroke="white" stroke-miterlimit="10"/>
<path d="M56.5532 35.4795L59.0732 41.1509" stroke="white" stroke-miterlimit="10"/>
<path d="M57.2669 30.2971L53.0023 16.9133C54.7116 12.7843 57.3021 13.4145 57.3021 13.4145C57.2493 13.1417 60.809 11.2607 60.7649 10.9785C72.1049 -1.27666 82.8456 9.85928 82.8456 9.85928C82.8456 9.85928 78.6339 -1.3425 61.1966 0.13414C48.9139 1.17813 42.9664 11.4676 43.0281 20.0453C43.125 32.7613 49.6188 34.9622 55.7161 41.5929L57.2669 30.3159V30.2971Z" fill="#1F0C03"/>
<path d="M59.1789 12.7654C59.1789 12.7654 62.9325 7.20685 69.5937 8.87159C74.9949 10.226 83.7356 11.5333 79.1009 6.32274C79.1009 6.32274 74.8628 1.41315 65.7432 3.0779C56.6237 4.73324 59.1789 12.7748 59.1789 12.7748V12.7654Z" fill="#1F0C03"/>
<path d="M59.4345 29.7985C59.4345 29.7985 61.5227 22.9043 58.3243 8.35425L51.575 12.5773L52.8085 26.6383L59.4345 29.7985Z" fill="#1F0C03"/>
<path d="M48.0593 31.4916C48.7642 34.8023 51.8481 36.8903 54.9496 36.1378C58.06 35.3854 60.0072 32.0935 59.3023 28.7829C58.5974 25.4628 55.5135 23.3842 52.412 24.1366C49.3105 24.889 47.3544 28.1809 48.0593 31.4916Z" fill="#B38477"/>
<path d="M51.2048 28.143C51.2048 28.143 55.5047 27.1743 56.2977 32.2155" stroke="#1D0004" stroke-width="0.48" stroke-linecap="round" stroke-linejoin="round"/>
</svg>
