<svg width="68" height="68" viewBox="0 0 68 68" fill="none" xmlns="http://www.w3.org/2000/svg">
<path d="M50.9999 52.4166C52.1271 52.4166 53.2081 51.9688 54.0051 51.1718C54.8021 50.3748 55.2499 49.2938 55.2499 48.1666C55.2499 47.0394 54.8021 45.9584 54.0051 45.1614C53.2081 44.3643 52.1271 43.9166 50.9999 43.9166C49.8727 43.9166 48.7917 44.3643 47.9947 45.1614C47.1977 45.9584 46.7499 47.0394 46.7499 48.1666C46.7499 49.2938 47.1977 50.3748 47.9947 51.1718C48.7917 51.9688 49.8727 52.4166 50.9999 52.4166ZM55.2499 26.9166H48.1666V33.9999H60.8032L55.2499 26.9166ZM16.9999 52.4166C18.1271 52.4166 19.2081 51.9688 20.0051 51.1718C20.8022 50.3748 21.2499 49.2938 21.2499 48.1666C21.2499 47.0394 20.8022 45.9584 20.0051 45.1614C19.2081 44.3643 18.1271 43.9166 16.9999 43.9166C15.8727 43.9166 14.7917 44.3643 13.9947 45.1614C13.1977 45.9584 12.7499 47.0394 12.7499 48.1666C12.7499 49.2938 13.1977 50.3748 13.9947 51.1718C14.7917 51.9688 15.8727 52.4166 16.9999 52.4166ZM56.6666 22.6666L65.1666 33.9999V48.1666H59.4999C59.4999 50.4209 58.6044 52.5829 57.0103 54.177C55.4163 55.7711 53.2543 56.6666 50.9999 56.6666C48.7456 56.6666 46.5836 55.7711 44.9895 54.177C43.3955 52.5829 42.4999 50.4209 42.4999 48.1666H25.4999C25.4999 50.4209 24.6044 52.5829 23.0103 54.177C21.4163 55.7711 19.2543 56.6666 16.9999 56.6666C14.7456 56.6666 12.5836 55.7711 10.9895 54.177C9.39545 52.5829 8.49992 50.4209 8.49992 48.1666H2.83325V16.9999C2.83325 13.8549 5.35492 11.3333 8.49992 11.3333H48.1666V22.6666H56.6666ZM22.6666 16.9999V25.4999H14.1666V31.1666H22.6666V39.6666H28.3333V31.1666H36.8333V25.4999H28.3333V16.9999H22.6666Z" fill="#0B0B0B"/>
</svg>
