<svg width="50" height="50" viewBox="0 0 50 50" fill="none" xmlns="http://www.w3.org/2000/svg">
<path d="M31.3024 16.0728C31.3024 19.6329 28.4126 22.5181 24.8493 22.5181C21.2899 22.5181 18.4048 19.6321 18.4048 16.0728C18.4048 12.5134 21.2899 9.62744 24.8493 9.62744C28.4126 9.62744 31.3024 12.5134 31.3024 16.0728Z" fill="#141414"/>
<path d="M24.8593 0.40918C21.8765 0.40918 17.7101 1.59824 14.6921 4.61621L18.2765 11.1467C19.0596 10.1498 20.0592 9.34407 21.1997 8.79049C22.3401 8.23691 23.5916 7.94996 24.8593 7.95137C27.5616 7.95137 29.9663 9.22793 31.4983 11.2131L35.014 4.46621C32.4022 1.6123 27.7187 0.40918 24.8593 0.40918ZM27.5155 5.20449H25.8468V6.87168H23.8421V5.20449H22.1733V3.20059H23.8421V1.52637H25.8468V3.20059H27.5155V5.20449ZM16.3796 34.1021H18.0304L15.6726 42.1834H34.0952L31.7483 34.1021H33.4007L35.7624 42.1834H41.1835L37.4835 29.9397C36.9054 27.9186 34.371 24.36 29.9976 24.2521L19.9429 24.2436C15.4702 24.2654 12.8827 27.8936 12.2976 29.9389L8.52568 42.1826H14.0233L16.3796 34.1021ZM0.739746 44.76H48.9663V49.3482H0.739746V44.76Z" fill="#141414"/>
</svg>
