<svg width="50" height="50" viewBox="0 0 50 50" fill="none" xmlns="http://www.w3.org/2000/svg">
<path d="M1.70312 36.8047C1.70312 36.8047 1.67969 11.8243 1.67969 11.1094C1.67969 10.3243 2.08984 10.1875 2.74609 10.168C3.375 10.1485 46.6836 10.1289 47.3672 10.1485C48.2617 10.1719 48.3438 10.7344 48.375 11.4493C48.4062 12.1641 48.3828 36.8243 48.3828 36.8243L23.918 37.2774L1.70312 36.8047Z" fill="#BACFD4"/>
<path d="M1.70312 36.8047C1.70312 36.8047 1.71484 47.1719 1.71484 47.7109C1.71484 48.25 2.10547 48.6406 2.84375 48.6406C3.58203 48.6406 46.8242 48.543 47.4141 48.543C48.0039 48.543 48.3438 48.0039 48.3945 47.1211C48.4453 46.2383 48.3906 36.8203 48.3906 36.8203L1.70312 36.8047Z" fill="#6BA4AE"/>
<path d="M13.2148 40.0664L13.2578 48.6094H36.4297L36.4687 39.9023L13.2148 40.0664Z" fill="#546F7A"/>
<path d="M15.6641 40.4961V48.6016H16.9531V40.3828L15.6641 40.4961ZM24.2305 40.3437V48.5898H25.5352V40.2187L24.2305 40.3437ZM33.0625 40.3594V48.6094H34.4023V40.1836L33.0625 40.3594Z" fill="#B9CED3"/>
<path d="M15.4102 36.9023C15.4102 36.9023 15.2734 3.50781 15.2734 2.78516C15.2734 2.0625 15.5508 1.49219 16.2734 1.44531C16.9961 1.39844 32.5859 1.39844 33.2188 1.44531C33.8516 1.49219 34.2539 1.88281 34.2539 2.69531C34.2539 3.50781 34.3438 36.9023 34.3438 36.9023L40.9414 37.7148V39.7031C40.9414 40.3359 40.7148 40.5859 40.0586 40.5859H9.21484C8.62891 40.5859 8.44531 39.9766 8.44531 39.3438V37.2188L15.4102 36.9023Z" fill="#F1EDEC"/>
<path d="M8.46085 37.9102L40.9413 37.8945C40.9413 37.8945 40.9608 37.1953 40.9413 36.8477C40.914 36.3555 40.496 36.3398 39.5429 36.3398H9.21866C8.8046 36.3398 8.48429 36.4844 8.45304 36.8984C8.42179 37.3125 8.46085 37.8906 8.46085 37.9102Z" fill="#FEFFFD"/>
<path d="M18.5508 25.5508C18.6406 25.6406 30.7812 25.6953 30.8594 25.6133C30.9297 25.5391 30.9844 21.0469 30.8906 20.9531C30.7695 20.832 18.6445 20.8594 18.5508 20.9531C18.457 21.0469 18.457 25.4531 18.5508 25.5508ZM18.582 29.3594C18.4219 29.4141 18.5508 33.9258 18.5508 33.9258L30.9219 33.832C30.9219 33.832 31.0312 29.4648 30.8281 29.3633C30.7031 29.2969 18.7734 29.2969 18.582 29.3594ZM35.9609 13.207V18.1836H40.6523V13.1445L35.9609 13.207ZM42.5078 13.1445H46.9492L47.0117 18.1211H42.4766L42.5078 13.1445ZM42.4453 21.0781L42.4141 25.8945H46.918L46.9805 21.0781H42.4453ZM40.6523 21.0469H35.9297V25.8945H40.7148L40.6523 21.0469ZM40.6836 29.043H35.9609V33.9844H40.7461C40.7461 33.9883 40.6211 28.9805 40.6836 29.043ZM42.4453 29.0117H46.9141V34.0508H42.4453C42.4453 34.0508 42.4922 28.9648 42.4453 29.0117ZM9.51562 33.9219V28.918L14.1133 28.8555V33.8594L9.51562 33.9219ZM7.75391 33.8906V28.8867H3.0625L3.09375 33.957C3.09375 33.9531 7.81641 33.8906 7.75391 33.8906ZM3.03125 20.9531H7.78516V25.7695H3.03125V20.9531ZM9.57812 20.9219V25.7695H14.0508V20.9531L9.57812 20.9219ZM9.64062 12.957H13.9844V18.0273H9.64062V12.957ZM7.69141 13.1445L3.09375 13.1133V17.9609H7.69141V13.1445Z" fill="#546F7A"/>
<path d="M22.2423 8.11719C22.2423 8.11719 22.2344 3.29297 22.2696 2.96484C22.3009 2.63281 22.5001 2.56641 22.7344 2.56641C22.9649 2.56641 26.9727 2.56641 27.2032 2.59766C27.4337 2.62891 27.5352 2.82813 27.5352 3.19531V8.09375C27.5352 8.09375 32.3009 8.125 32.5001 8.125C32.6993 8.125 32.8985 8.35547 32.8985 8.62109V12.9883C32.8985 13.2852 32.8673 13.5859 32.5001 13.6484C32.1329 13.7109 27.504 13.6484 27.504 13.6484V19.1523C27.504 19.3789 27.3126 19.5742 26.9923 19.5977C26.6719 19.6211 22.6993 19.5977 22.4766 19.5977C22.254 19.5977 22.254 18.9297 22.254 18.7031V13.7656H17.0665C16.8399 13.7656 16.7423 13.543 16.7188 13.1211C16.6954 12.6992 16.7344 8.87891 16.7423 8.65625C16.7579 8.30859 16.8907 8.14063 17.1368 8.11719C17.379 8.09766 22.2423 8.11719 22.2423 8.11719Z" fill="#DD0C26"/>
<path d="M24.2695 4.51953H25.5039V17.8398H24.2695V4.51953Z" fill="white"/>
<path d="M18.6289 10.2578H30.957V11.5117H18.6289V10.2578Z" fill="white"/>
</svg>
