<svg width="492" height="449" viewBox="0 0 492 449" fill="none" xmlns="http://www.w3.org/2000/svg">
<mask id="mask0_1_926" style="mask-type:luminance" maskUnits="userSpaceOnUse" x="0" y="0" width="492" height="449">
<path d="M491.017 0H0V448.6H491.017V0Z" fill="white"/>
</mask>
<g mask="url(#mask0_1_926)">
<rect x="-72.8259" y="-2.52771" width="598.478" height="453.05" fill="#C4C4C4"/>
<path opacity="0.5" d="M490.843 -0.302612H0V448.893H490.843V-0.302612Z" fill="#00416B"/>
</g>
<path fill-rule="evenodd" clip-rule="evenodd" d="M241.797 171.376H249.237C249.718 171.542 250.209 171.67 250.708 171.758C260.405 172.818 269.583 176.991 277.051 183.736C284.518 190.482 289.93 199.488 292.585 209.587C293.569 213.387 293.99 217.348 294.668 221.238V228.296C294.514 228.881 294.392 229.476 294.304 230.076C293.277 240.435 289.412 250.23 283.2 258.217C276.988 266.203 268.711 272.02 259.421 274.928C256.114 275.969 252.634 276.467 249.237 277.215H241.797C241.319 277.049 240.83 276.921 240.334 276.832C230.745 275.785 221.659 271.703 214.224 265.1C206.788 258.497 201.336 249.67 198.556 239.734C197.548 236.022 197.085 232.141 196.365 228.341V219.44C196.519 218.929 196.646 218.409 196.746 217.882C199.895 195.995 211.253 181.389 230.571 174.064C234.159 172.622 238.044 172.221 241.797 171.376ZM199.424 224.051C199.391 230.579 200.557 237.05 202.853 243.093C205.149 249.135 208.531 254.63 212.804 259.261C217.078 263.892 222.159 267.569 227.755 270.08C233.352 272.592 239.354 273.888 245.418 273.895C270.663 273.895 291.626 251.643 291.593 224.87C291.593 196.885 271.109 174.634 245.434 174.642C233.258 174.659 221.582 179.865 212.961 189.124C204.339 198.382 199.472 210.939 199.424 224.051Z" fill="white"/>
<path fill-rule="evenodd" clip-rule="evenodd" d="M233.06 200.793L270.919 224.327L233.06 247.878V200.793Z" fill="white"/>
</svg>
