<svg width="77" height="76" viewBox="0 0 77 76" fill="none" xmlns="http://www.w3.org/2000/svg">
<path d="M76.5575 37.5512C76.5575 44.9789 74.312 52.2397 70.1051 58.4154C65.8982 64.591 59.9189 69.4042 52.9233 72.2458C45.9278 75.0875 38.2303 75.8301 30.8045 74.3797C23.3786 72.9294 16.5581 69.3513 11.2054 64.0979C5.85273 58.8446 2.20841 52.1519 0.733399 44.8666C-0.741612 37.5812 0.0189193 30.0303 2.91883 23.169C5.81875 16.3077 10.7278 10.4443 17.025 6.32022C23.3222 2.1961 30.7247 -0.00339935 38.2963 3.94347e-06C48.4454 0.0045658 58.1772 3.96277 65.3521 11.0045C72.5269 18.0463 76.5575 27.595 76.5575 37.5512Z" fill="#FFB600"/>
</svg>
