<svg width="45" height="56" viewBox="0 0 45 56" fill="none" xmlns="http://www.w3.org/2000/svg">
<path d="M0 33.6955C2.83354 33.6955 6.78654 32.8524 9.26833 34.6725L14.1872 38.2738C16.0158 39.6138 17.9951 39.1727 20.0358 38.8545C22.7214 38.4329 25.125 40.7249 25.125 43.7064C25.125 44.5215 19.3379 46.5958 18.5032 46.9894C17.6995 47.3694 16.8073 47.5229 15.9228 47.4334C15.0383 47.3439 14.195 47.0147 13.4838 46.4813L7.93392 42.4138" stroke="black" stroke-width="1.5" stroke-linecap="round" stroke-linejoin="round"/>
<path d="M25.125 41.875L36.5457 36.5987C37.5529 36.2507 38.6393 36.2013 39.6739 36.4564C40.7086 36.7114 41.6475 37.2602 42.3775 38.0365L44.2479 39.9934C44.9179 40.6913 44.7616 41.8694 43.9325 42.3496L22.0067 55.0824C21.359 55.462 20.6401 55.7042 19.8947 55.794C19.1493 55.8838 18.3934 55.8193 17.674 55.6044L0 50.3254M22.3389 27.9167C22.3389 27.9167 28.2014 21.6661 28.2014 13.9583C28.2014 6.25054 22.3389 0 22.3389 0C22.3389 0 16.4764 6.25054 16.4764 13.9583C16.4764 21.6661 22.3389 27.9167 22.3389 27.9167ZM22.3389 27.9167C22.3389 27.9167 30.901 27.7268 36.2973 22.2217C41.6935 16.7137 41.8806 7.97579 41.8806 7.97579C41.8806 7.97579 38.3352 8.05396 34.371 9.57821M22.3389 27.9167C22.3389 27.9167 13.7769 27.7268 8.38058 22.2217C2.98429 16.7137 2.79725 7.97579 2.79725 7.97579C2.79725 7.97579 6.34267 8.05396 10.3068 9.57821" stroke="black" stroke-width="1.5" stroke-linecap="round" stroke-linejoin="round"/>
</svg>
