<svg width="75" height="75" viewBox="0 0 75 75" fill="none" xmlns="http://www.w3.org/2000/svg">
<g clip-path="url(#clip0_142_50)">
<path d="M49.0112 24.3329L29.2827 41.6467C29.1365 41.7779 28.9496 41.839 28.7889 41.9477V58.5634C28.7889 58.9446 28.9411 59.3103 29.212 59.5799C29.4829 59.8494 29.8503 60.0009 30.2334 60.0009H67.7889C68.172 60.0009 68.5394 59.8494 68.8103 59.5799C69.0812 59.3103 69.2334 58.9446 69.2334 58.5634V41.9513C69.0799 41.8471 68.8975 41.7878 68.7585 41.6638L49.0112 24.3329ZM57.6778 47.7821C57.6778 47.9728 57.6017 48.1556 57.4663 48.2904C57.3308 48.4252 57.1471 48.5009 56.9556 48.5009H51.9V53.5321C51.9 53.7228 51.8239 53.9056 51.6885 54.0404C51.5531 54.1752 51.3694 54.2509 51.1778 54.2509H46.8445C46.6529 54.2509 46.4692 54.1752 46.3338 54.0404C46.1984 53.9056 46.1223 53.7228 46.1223 53.5321V48.5009H41.0667C40.8752 48.5009 40.6915 48.4252 40.556 48.2904C40.4206 48.1556 40.3445 47.9728 40.3445 47.7821V43.4696C40.3445 43.279 40.4206 43.0962 40.556 42.9614C40.6915 42.8266 40.8752 42.7509 41.0667 42.7509H46.1223V37.7196C46.1223 37.529 46.1984 37.3462 46.3338 37.2114C46.4692 37.0766 46.6529 37.0009 46.8445 37.0009H51.1778C51.3694 37.0009 51.5531 37.0766 51.6885 37.2114C51.8239 37.3462 51.9 37.529 51.9 37.7196V42.7509H56.9556C57.1471 42.7509 57.3308 42.8266 57.4663 42.9614C57.6017 43.0962 57.6778 43.279 57.6778 43.4696V47.7821ZM74.5318 35.2292L51.4261 14.9245C50.7647 14.3295 49.905 14 49.0134 14C48.1219 14 47.2621 14.3295 46.6007 14.9245L23.4896 35.2292C23.3484 35.3553 23.2336 35.5079 23.1517 35.6783C23.0698 35.8486 23.0225 36.0333 23.0123 36.2219C23.0022 36.4104 23.0295 36.5991 23.0926 36.7772C23.1558 36.9553 23.2536 37.1192 23.3804 37.2596L25.3132 39.3997C25.44 39.5402 25.5933 39.6545 25.7645 39.736C25.9357 39.8175 26.1213 39.8646 26.3107 39.8747C26.5002 39.8848 26.6898 39.8577 26.8687 39.7948C27.0477 39.732 27.2124 39.6347 27.3535 39.5084L48.056 21.3348C48.3199 21.1032 48.6597 20.9753 49.0116 20.9753C49.3635 20.9753 49.7033 21.1032 49.9672 21.3348L70.6697 39.5075C70.8108 39.6338 70.9755 39.7311 71.1545 39.7939C71.3334 39.8568 71.523 39.8839 71.7125 39.8738C71.9019 39.8637 72.0875 39.8166 72.2587 39.7351C72.4299 39.6536 72.5832 39.5393 72.71 39.3988L74.6419 37.2587C74.8977 36.975 75.0298 36.6019 75.0091 36.2213C74.9884 35.8407 74.8167 35.4838 74.5318 35.2292Z" fill="#060606"/>
</g>
<defs>
<clipPath id="clip0_142_50">
<rect width="75" height="75" fill="white"/>
</clipPath>
</defs>
</svg>
