<svg width="21" height="24" viewBox="0 0 21 24" fill="none" xmlns="http://www.w3.org/2000/svg">
<path fill-rule="evenodd" clip-rule="evenodd" d="M10.5371 23.7086C8.45672 23.7171 6.42098 23.0276 4.68826 21.7276C2.95553 20.4275 1.60394 18.5755 0.805018 16.4067C0.00609364 14.2378 -0.204124 11.8498 0.201007 9.54582C0.606139 7.24181 1.60836 5.12565 3.0805 3.46588C4.55264 1.80612 6.42834 0.67763 8.4695 0.223576C10.5107 -0.230478 12.6252 0.0104116 14.5449 0.915661C16.4646 1.82091 18.1029 3.34968 19.2518 5.30801C20.4006 7.26634 21.0083 9.56592 20.9977 11.9149C20.9541 15.0304 19.8375 18.0043 17.8847 20.2059C15.932 22.4076 13.2965 23.6639 10.5371 23.7086ZM10.4297 22.4184C12.2834 22.4338 14.0994 21.8272 15.6472 20.6754C17.1951 19.5237 18.405 17.8787 19.1236 15.9493C19.8421 14.0198 20.0368 11.8929 19.683 9.8383C19.3292 7.78371 18.4428 5.89411 17.1363 4.40922C15.8299 2.92434 14.1622 1.91108 12.3449 1.49808C10.5276 1.08508 8.64261 1.29092 6.9291 2.08948C5.21558 2.88805 3.75078 4.24334 2.72054 5.98339C1.69031 7.72344 1.14108 9.76985 1.14255 11.8629C1.13241 13.2464 1.36526 14.6185 1.82763 15.8998C2.29001 17.1811 2.97274 18.3462 3.83635 19.3277C4.69996 20.3093 5.72731 21.0878 6.85903 21.6183C7.99074 22.1488 9.20436 22.4207 10.4297 22.4184Z" fill="white"/>
<path fill-rule="evenodd" clip-rule="evenodd" d="M9.91587 8.06143C9.91587 6.83184 9.91587 5.59357 9.91587 4.36397C9.89715 4.21012 9.92101 4.05354 9.98416 3.91558C10.0473 3.77763 10.1467 3.66509 10.2687 3.59335C10.6674 3.36821 11.0356 3.69724 11.0356 4.2774C11.0356 6.13045 11.0356 7.97482 11.0356 9.82788C11.0547 10.2288 11.0547 10.6306 11.0356 11.0315C11.0212 11.2101 11.0562 11.3893 11.1359 11.5444C11.2156 11.6995 11.3359 11.8228 11.4803 11.8974C12.6153 12.6941 13.735 13.5167 14.8624 14.3393C15.2305 14.6077 15.3225 14.9714 15.1231 15.3091C14.9237 15.6468 14.594 15.6815 14.2259 15.413C12.8914 14.4519 11.5494 13.508 10.2303 12.5122C10.1355 12.4254 10.0572 12.3177 10.0005 12.1956C9.94384 12.0735 9.9098 11.9396 9.90051 11.8022C9.90051 10.5553 9.90051 9.29968 9.90051 8.05277L9.91587 8.06143Z" fill="white"/>
</svg>
