<svg width="24" height="24" viewBox="0 0 24 24" fill="none" xmlns="http://www.w3.org/2000/svg">
<path fill-rule="evenodd" clip-rule="evenodd" d="M12.315 2C14.745 2 15.099 2.013 16.123 2.06C17.187 2.109 17.914 2.278 18.55 2.525C19.2175 2.77587 19.8222 3.16936 20.322 3.678C20.8307 4.17777 21.2241 4.7825 21.475 5.45C21.722 6.086 21.791 6.813 21.839 7.877C21.887 8.901 21.899 9.255 21.899 11.685C21.899 14.115 21.887 14.469 21.839 15.493C21.79 16.557 21.621 17.284 21.374 17.92C21.1231 18.5875 20.7296 19.1922 20.221 19.692C19.7212 20.2006 19.1165 20.5941 18.449 20.845C17.813 21.092 17.086 21.161 16.022 21.209C14.998 21.257 14.644 21.269 12.214 21.269C9.784 21.269 9.43001 21.257 8.406 21.209C7.342 21.16 6.615 20.991 5.979 20.744C5.31151 20.4931 4.70678 20.0996 4.207 19.591C3.69836 19.0912 3.30488 18.4865 3.054 17.819C2.807 17.183 2.738 16.456 2.69 15.392C2.642 14.368 2.63 14.014 2.63 11.584C2.63 9.154 2.642 8.8 2.69 7.776C2.739 6.712 2.908 5.985 3.155 5.349C3.40588 4.6815 3.79936 4.07677 4.308 3.577C4.89431 3.07025 5.5924 2.70972 6.345 2.525C6.981 2.278 7.708 2.209 8.77201 2.161C9.793 2.013 10.148 2 12.315 2ZM11.154 3.545C8.79901 3.545 8.487 3.555 7.537 3.601C6.43701 3.651 5.904 3.821 5.402 4.011C4.93219 4.20913 4.51262 4.50979 4.174 4.891C3.83735 5.31544 3.60634 5.81379 3.5 6.345C3.31 6.847 3.14 7.38 3.09 8.48C3.044 9.43 3.034 9.742 3.034 12.097C3.034 14.452 3.044 14.764 3.09 15.714C3.14 16.814 3.31 17.347 3.5 17.849C3.69813 18.3188 3.9988 18.7384 4.38 19.077C4.71862 19.4582 5.13819 19.7589 5.608 19.957C6.11 20.147 6.643 20.317 7.743 20.367C8.693 20.413 9.005 20.423 11.36 20.423C13.715 20.423 14.027 20.413 14.977 20.367C16.077 20.317 16.61 20.147 17.112 19.957C17.5818 19.7589 18.0014 19.4582 18.34 19.077C18.7212 18.7384 19.0219 18.3188 19.22 17.849C19.41 17.347 19.58 16.814 19.63 15.714C19.676 14.764 19.686 14.452 19.686 12.097C19.686 9.742 19.676 9.43 19.63 8.48C19.58 7.38 19.41 6.847 19.22 6.345C19.0219 5.87519 18.7212 5.45562 18.34 5.117C18.0014 4.73579 17.5818 4.43513 17.112 4.237C16.61 4.047 16.077 3.877 14.977 3.827C14.027 3.781 13.715 3.771 11.36 3.771L11.154 3.545ZM12 8.232C11.5052 8.232 11.0152 8.32946 10.5581 8.51882C10.1009 8.70818 9.68552 8.98573 9.33563 9.33562C8.98574 9.68551 8.70819 10.1009 8.51883 10.558C8.32947 11.0152 8.23201 11.5052 8.23201 12C8.23201 12.4948 8.32947 12.9848 8.51883 13.442C8.70819 13.8991 8.98574 14.3145 9.33563 14.6644C9.68552 15.0143 10.1009 15.2918 10.5581 15.4812C11.0152 15.6705 11.5052 15.768 12 15.768C12.9993 15.768 13.9577 15.371 14.6644 14.6644C15.371 13.9577 15.768 12.9993 15.768 12C15.768 11.0007 15.371 10.0423 14.6644 9.33562C13.9577 8.62898 12.9993 8.232 12 8.232ZM12 14.262C11.703 14.262 11.4088 14.2035 11.1344 14.0898C10.8599 13.9761 10.6106 13.8095 10.4005 13.5995C10.1905 13.3894 10.0239 13.1401 9.91019 12.8656C9.79651 12.5912 9.738 12.2971 9.738 12C9.738 11.7029 9.79651 11.4088 9.91019 11.1344C10.0239 10.8599 10.1905 10.6106 10.4005 10.4005C10.6106 10.1905 10.8599 10.0239 11.1344 9.91018C11.4088 9.79651 11.703 9.738 12 9.738C12.5999 9.738 13.1753 9.97632 13.5995 10.4005C14.0237 10.8247 14.262 11.4001 14.262 12C14.262 12.5999 14.0237 13.1753 13.5995 13.5995C13.1753 14.0237 12.5999 14.262 12 14.262ZM16.536 6.345C16.2177 6.345 15.9125 6.47143 15.6875 6.69647C15.4624 6.92152 15.336 7.22674 15.336 7.545C15.336 7.86326 15.4624 8.16848 15.6875 8.39353C15.9125 8.61857 16.2177 8.745 16.536 8.745C16.8543 8.745 17.1595 8.61857 17.3845 8.39353C17.6096 8.16848 17.736 7.86326 17.736 7.545C17.736 7.22674 17.6096 6.92152 17.3845 6.69647C17.1595 6.47143 16.8543 6.345 16.536 6.345Z" fill="#9CA3AF"/>
</svg>
