<svg width="344" height="35" viewBox="0 0 344 35" fill="none" xmlns="http://www.w3.org/2000/svg">
<path d="M324.892 34.0647H18.5962C13.6642 34.0647 8.93416 32.2704 5.4467 29.0762C1.95924 25.882 1.80932e-06 21.5498 1.80932e-06 17.0325C-0.00107579 14.7955 0.479209 12.58 1.41337 10.5131C2.34754 8.44618 3.71727 6.56809 5.4443 4.98629C7.17133 3.40449 9.22179 2.15004 11.4785 1.29443C13.7352 0.43882 16.1538 -0.000985328 18.5962 1.65752e-06H324.892C327.334 -0.000985328 329.753 0.43882 332.01 1.29443C334.266 2.15004 336.317 3.40449 338.044 4.98629C339.771 6.56809 341.141 8.44618 342.075 10.5131C343.009 12.58 343.489 14.7955 343.488 17.0325C343.488 21.5498 341.529 25.882 338.041 29.0762C334.554 32.2704 329.824 34.0647 324.892 34.0647Z" fill="#EEEEEE"/>
</svg>
