<svg width="31" height="41" viewBox="0 0 31 41" fill="none" xmlns="http://www.w3.org/2000/svg">
<g clip-path="url(#clip0_1_1574)">
<path d="M17.3244 37.6848C16.3153 38.6858 14.6765 38.6858 13.6674 37.6848L0.750732 24.8723C-0.258382 23.8713 -0.258382 22.2458 0.750732 21.2448C1.75985 20.2438 3.39865 20.2438 4.40776 21.2448L12.9166 29.693V5.12505C12.9166 3.70766 14.071 2.56255 15.5 2.56255C16.9289 2.56255 18.0833 3.70766 18.0833 5.12505V29.685L26.5921 21.2528C27.6013 20.2518 29.2401 20.2518 30.2492 21.2528C31.2583 22.2538 31.2583 23.8793 30.2492 24.8803L17.3325 37.6928L17.3244 37.6848Z" fill="#FFFFFE"/>
</g>
<defs>
<clipPath id="clip0_1_1574">
<rect width="31" height="41" fill="white" transform="matrix(1 0 0 -1 0 41)"/>
</clipPath>
</defs>
</svg>
