<svg width="77" height="71" viewBox="0 0 77 71" fill="none" xmlns="http://www.w3.org/2000/svg">
<path d="M73.3906 63.2344V67.6719H62.5023C62.5384 67.3058 62.5625 66.9397 62.5625 66.5625C62.5625 63.6203 61.2949 60.7985 59.0386 58.718C56.7823 56.6376 53.7221 55.4688 50.5312 55.4688C47.3404 55.4688 44.2802 56.6376 42.0239 58.718C39.7676 60.7985 38.5 63.6203 38.5 66.5625C38.5 66.9397 38.5241 67.3058 38.5602 67.6719H27.6719V63.2344C27.6738 62.6465 27.9279 62.0831 28.3788 61.6674C28.8296 61.2517 29.4405 61.0174 30.0781 61.0156H30.1984C30.6729 61.0138 31.1361 60.8827 31.53 60.6387C31.9238 60.3948 32.2307 60.049 32.412 59.6447C32.5933 59.2404 32.6409 58.7958 32.5489 58.3666C32.4569 57.9374 32.2293 57.5429 31.8948 57.2327L31.8106 57.1439C31.5876 56.9386 31.4106 56.6948 31.2898 56.4264C31.1691 56.158 31.1069 55.8703 31.1069 55.5797C31.1069 55.2891 31.1691 55.0014 31.2898 54.733C31.4106 54.4645 31.5876 54.2207 31.8106 54.0155L36.9239 49.3006C37.1465 49.0949 37.4109 48.9318 37.702 48.8204C37.9931 48.7091 38.3052 48.6518 38.6203 48.6518C38.9355 48.6518 39.2475 48.7091 39.5386 48.8204C39.8297 48.9318 40.0941 49.0949 40.3167 49.3006L40.413 49.3783C40.7494 49.6867 41.1773 49.8965 41.6427 49.9814C42.1082 50.0662 42.5904 50.0223 43.0289 49.8551C43.4673 49.688 43.8424 49.405 44.1069 49.0419C44.3714 48.6787 44.5136 48.2515 44.5156 47.8141V47.7031C44.5175 47.1152 44.7717 46.5519 45.2225 46.1362C45.6734 45.7205 46.2843 45.4861 46.9219 45.4844H54.1406C54.7782 45.4861 55.3891 45.7205 55.84 46.1362C56.2908 46.5519 56.545 47.1152 56.5469 47.7031V47.8141C56.5489 48.2515 56.6911 48.6787 56.9556 49.0419C57.2201 49.405 57.5952 49.688 58.0336 49.8551C58.4721 50.0223 58.9543 50.0662 59.4198 49.9814C59.8852 49.8965 60.3131 49.6867 60.6495 49.3783L60.7458 49.3006C60.9684 49.0949 61.2328 48.9318 61.5239 48.8204C61.815 48.7091 62.127 48.6518 62.4422 48.6518C62.7573 48.6518 63.0694 48.7091 63.3605 48.8204C63.6516 48.9318 63.916 49.0949 64.1386 49.3006L69.2519 54.0155C69.4749 54.2207 69.6519 54.4645 69.7727 54.733C69.8934 55.0014 69.9556 55.2891 69.9556 55.5797C69.9556 55.8703 69.8934 56.158 69.7727 56.4264C69.6519 56.6948 69.4749 56.9386 69.2519 57.1439L69.1677 57.2327C68.8332 57.5429 68.6056 57.9374 68.5136 58.3666C68.4216 58.7958 68.4692 59.2404 68.6505 59.6447C68.8318 60.049 69.1387 60.3948 69.5325 60.6387C69.9264 60.8827 70.3896 61.0138 70.8641 61.0156H70.9844C71.622 61.0174 72.2329 61.2517 72.6837 61.6674C73.1346 62.0831 73.3887 62.6465 73.3906 63.2344Z" fill="#EC455A"/>
<path d="M65.8383 14.4635H65.7319C65.3123 14.4622 64.9026 14.3696 64.5542 14.1972C64.2059 14.0248 63.9345 13.7804 63.7741 13.4946C63.6138 13.2089 63.5717 12.8946 63.653 12.5913C63.7344 12.288 63.9357 12.0091 64.2315 11.7899L64.306 11.7271C64.5033 11.5821 64.6598 11.4097 64.7666 11.22C64.8734 11.0303 64.9284 10.827 64.9284 10.6216C64.9284 10.4162 64.8734 10.2129 64.7666 10.0232C64.6598 9.83346 64.5033 9.66114 64.306 9.51607L59.7836 6.18377C59.5867 6.0384 59.3528 5.92307 59.0954 5.84438C58.8379 5.76568 58.5619 5.72518 58.2832 5.72518C58.0045 5.72518 57.7285 5.76568 57.471 5.84438C57.2136 5.92307 56.9797 6.0384 56.7828 6.18377L56.6977 6.23866C56.4001 6.45664 56.0217 6.60493 55.6101 6.6649C55.1984 6.72486 54.7719 6.69382 54.3841 6.57568C53.9963 6.45753 53.6646 6.25755 53.4306 6.00088C53.1967 5.74421 53.0709 5.44231 53.0691 5.13312V5.05471C53.0674 4.6392 52.8427 4.24106 52.4439 3.94724C52.0452 3.65343 51.5048 3.48781 50.9409 3.48657H44.5563C43.9924 3.48781 43.4521 3.65343 43.0533 3.94724C42.6546 4.24106 42.4298 4.6392 42.4281 5.05471V5.13312C42.4264 5.44231 42.3006 5.74421 42.0666 6.00088C41.8327 6.25755 41.501 6.45753 41.1132 6.57568C40.7254 6.69382 40.2989 6.72486 39.8872 6.6649C39.4756 6.60493 39.0972 6.45664 38.7996 6.23866L38.7144 6.18377C38.5176 6.0384 38.2837 5.92307 38.0262 5.84438C37.7688 5.76568 37.4928 5.72518 37.2141 5.72518C36.9353 5.72518 36.6593 5.76568 36.4019 5.84438C36.1444 5.92307 35.9106 6.0384 35.7137 6.18377L31.1913 9.51607C30.994 9.66114 30.8374 9.83346 30.7307 10.0232C30.6239 10.2129 30.5689 10.4162 30.5689 10.6216C30.5689 10.827 30.6239 11.0303 30.7307 11.22C30.8374 11.4097 30.994 11.5821 31.1913 11.7271L31.2657 11.7899C31.5616 12.0091 31.7628 12.288 31.8442 12.5913C31.9256 12.8946 31.8835 13.2089 31.7231 13.4946C31.5628 13.7804 31.2914 14.0248 30.9431 14.1972C30.5947 14.3696 30.185 14.4622 29.7654 14.4635H29.659C29.095 14.4648 28.5547 14.6304 28.156 14.9242C27.7572 15.218 27.5324 15.6162 27.5308 16.0317V20.7361C27.5324 21.1516 27.7572 21.5498 28.156 21.8436C28.5547 22.1374 29.095 22.303 29.659 22.3042H29.7654C30.185 22.3055 30.5947 22.3982 30.9431 22.5706C31.2914 22.743 31.5628 22.9874 31.7231 23.2732C31.8835 23.5589 31.9256 23.8732 31.8442 24.1765C31.7628 24.4798 31.5616 24.7586 31.2657 24.9779L31.1913 25.0406C30.994 25.1857 30.8374 25.358 30.7307 25.5477C30.6239 25.7374 30.5689 25.9408 30.5689 26.1462C30.5689 26.3516 30.6239 26.5549 30.7307 26.7446C30.8374 26.9343 30.994 27.1066 31.1913 27.2517L35.7137 30.584C35.9106 30.7294 36.1444 30.8447 36.4019 30.9234C36.6593 31.0021 36.9353 31.0426 37.2141 31.0426C37.4928 31.0426 37.7688 31.0021 38.0262 30.9234C38.2837 30.8447 38.5176 30.7294 38.7144 30.584L38.7996 30.5291C39.0972 30.3111 39.4756 30.1629 39.8872 30.1029C40.2989 30.0429 40.7254 30.074 41.1132 30.1921C41.501 30.3103 41.8327 30.5102 42.0666 30.7669C42.3006 31.0236 42.4264 31.3255 42.4281 31.6347V31.7131C42.4298 32.1286 42.6546 32.5267 43.0533 32.8205C43.4521 33.1144 43.9924 33.28 44.5563 33.2812H50.9409C51.5048 33.28 52.0452 33.1144 52.4439 32.8205C52.8427 32.5267 53.0674 32.1286 53.0691 31.7131V31.6347C53.0709 31.3255 53.1967 31.0236 53.4306 30.7669C53.6646 30.5102 53.9963 30.3103 54.3841 30.1921C54.7719 30.074 55.1984 30.0429 55.6101 30.1029C56.0217 30.1629 56.4001 30.3111 56.6977 30.5291L56.7828 30.584C56.9797 30.7294 57.2136 30.8447 57.471 30.9234C57.7285 31.0021 58.0045 31.0426 58.2832 31.0426C58.5619 31.0426 58.8379 31.0021 59.0954 30.9234C59.3528 30.8447 59.5867 30.7294 59.7836 30.584L64.306 27.2517C64.5033 27.1066 64.6598 26.9343 64.7666 26.7446C64.8734 26.5549 64.9284 26.3516 64.9284 26.1462C64.9284 25.9408 64.8734 25.7374 64.7666 25.5477C64.6598 25.358 64.5033 25.1857 64.306 25.0406L64.2315 24.9779C63.9357 24.7586 63.7344 24.4798 63.653 24.1765C63.5717 23.8732 63.6138 23.5589 63.7741 23.2732C63.9345 22.9874 64.2059 22.743 64.5542 22.5706C64.9026 22.3982 65.3123 22.3055 65.7319 22.3042H65.8383C66.4022 22.303 66.9426 22.1374 67.3413 21.8436C67.7401 21.5498 67.9648 21.1516 67.9665 20.7361V16.0317C67.9648 15.6162 67.7401 15.218 67.3413 14.9242C66.9426 14.6304 66.4022 14.4648 65.8383 14.4635ZM47.7486 26.2246C45.644 26.2246 43.5867 25.7647 41.8368 24.9032C40.0869 24.0416 38.723 22.8171 37.9176 21.3844C37.1123 19.9517 36.9015 18.3752 37.3121 16.8542C37.7227 15.3333 38.7362 13.9362 40.2243 12.8397C41.7125 11.7431 43.6085 10.9964 45.6727 10.6939C47.7368 10.3913 49.8764 10.5466 51.8208 11.14C53.7652 11.7335 55.427 12.7384 56.5963 14.0278C57.7655 15.3172 58.3896 16.8332 58.3896 18.3839C58.3896 20.4634 57.2685 22.4577 55.273 23.9281C53.2774 25.3985 50.5708 26.2246 47.7486 26.2246Z" fill="#F6CC4F"/>
<path d="M13.2344 47.7031H33.6875C36.2402 47.7031 38.6884 48.6382 40.4934 50.3026C42.2984 51.9669 43.3125 54.2243 43.3125 56.5781V67.6719H3.60938V56.5781C3.60938 54.2243 4.62343 51.9669 6.42847 50.3026C8.23351 48.6382 10.6817 47.7031 13.2344 47.7031Z" fill="#365E7D"/>
<path d="M31.2812 47.7031V54.3594C29.728 52.6953 26.6564 49.3872 25.0972 47.7031H31.2812ZM23.0278 47.7031C21.3434 49.2696 18.4872 52.7807 16.8438 54.3594V47.7031H23.0278Z" fill="#E1ECFD"/>
<path d="M26.4688 53.25L28.875 63.2344L24.0625 67.6719L19.25 63.2344L21.6562 53.25H26.4688Z" fill="#E28086"/>
<path d="M28.5021 51.3752L24.0626 55.4688L19.623 51.3752L23.0279 47.7031H25.0973L28.5021 51.3752Z" fill="#DD636E"/>
<path d="M34.8906 21.0782H9.625C9.62633 19.5613 10.1095 18.0779 11.0147 16.8113C11.92 15.5446 13.2078 14.5502 14.7191 13.9508C16.2303 13.3514 17.8989 13.1733 19.5187 13.4384C21.1385 13.7035 22.6387 14.4002 23.8339 15.4426C24.9838 14.7766 26.314 14.4229 27.6719 14.422C29.4836 14.4183 31.2294 15.0487 32.5566 16.1859V16.197C33.2931 16.8156 33.8813 17.5694 34.2832 18.4101C34.6852 19.2507 34.8921 20.1595 34.8906 21.0782Z" fill="#2D2D30"/>
<path d="M28.875 39.9375H19.25V47.7031H28.875V39.9375Z" fill="#FFCBBE"/>
<path d="M13.2344 21.0781H34.8906V33.2812C34.8906 35.9293 33.7498 38.4688 31.7191 40.3413C29.6885 42.2137 26.9343 43.2656 24.0625 43.2656C21.1907 43.2656 18.4365 42.2137 16.4059 40.3413C14.3752 38.4688 13.2344 35.9293 13.2344 33.2812V21.0781Z" fill="#FFDDCE"/>
<path d="M34.8906 24.4062H37.2969C38.2541 24.4062 39.1722 24.7569 39.8491 25.381C40.526 26.0052 40.9062 26.8517 40.9062 27.7344C40.9062 28.617 40.526 29.4636 39.8491 30.0877C39.1722 30.7119 38.2541 31.0625 37.2969 31.0625H34.8906V24.4062Z" fill="#FFCBBE"/>
<path d="M13.2344 31.0625H10.8281C9.87086 31.0625 8.9528 30.7119 8.27591 30.0877C7.59902 29.4636 7.21875 28.617 7.21875 27.7344C7.21875 26.8517 7.59902 26.0052 8.27591 25.381C8.9528 24.7569 9.87086 24.4062 10.8281 24.4062H13.2344V31.0625Z" fill="#FFCBBE"/>
<path d="M70.8641 31.0625H70.9844C71.9408 31.0599 72.8572 30.7084 73.5334 30.0848C74.2097 29.4612 74.5909 28.6162 74.5938 27.7344V21.0781C74.5909 20.1963 74.2097 19.3513 73.5334 18.7277C72.8572 18.1041 71.9408 17.7526 70.9844 17.75H70.8641C70.6271 17.7532 70.3946 17.6904 70.197 17.5696C69.9995 17.4488 69.8462 17.2758 69.7572 17.0733C69.6633 16.8582 69.6429 16.6218 69.6988 16.3958C69.7547 16.1697 69.8843 15.9649 70.07 15.8086L70.1061 15.7753C70.7768 15.1487 71.1528 14.3038 71.1528 13.4234C71.1528 12.5431 70.7768 11.6981 70.1061 11.0716L64.9928 6.35672C64.3272 5.74034 63.4254 5.39017 62.4821 5.38186C61.5389 5.37356 60.6299 5.70779 59.9517 6.31234L59.7953 6.43438C59.6289 6.5907 59.4158 6.69769 59.183 6.74166C58.9503 6.78562 58.7087 6.76456 58.4891 6.68116C58.2694 6.59777 58.0818 6.45583 57.9501 6.27353C57.8184 6.09122 57.7488 5.87684 57.75 5.65781V5.54688C57.7471 4.66501 57.366 3.82002 56.6897 3.19644C56.0134 2.57287 55.097 2.22138 54.1406 2.21875H46.9219C45.9655 2.22138 45.0491 2.57287 44.3728 3.19644C43.6965 3.82002 43.3154 4.66501 43.3125 5.54688V5.65781C43.316 5.87633 43.2478 6.09072 43.1168 6.27285C42.9859 6.45499 42.7983 6.59637 42.5786 6.67844C42.3453 6.76502 42.089 6.78379 41.8438 6.73224C41.5987 6.68069 41.3765 6.56127 41.207 6.39L41.1709 6.35672C40.4914 5.73831 39.5751 5.39157 38.6203 5.39157C37.6656 5.39157 36.7492 5.73831 36.0697 6.35672L30.9564 11.0716C30.6036 11.4043 30.3296 11.8009 30.1515 12.2362C29.9734 12.6716 29.8951 13.1363 29.9217 13.6009C29.1887 13.4143 28.4323 13.3174 27.6719 13.3125C26.3953 13.3106 25.1355 13.5801 23.9903 14.1002C22.5704 13.0723 20.8655 12.4333 19.0705 12.2563C17.2755 12.0793 15.4626 12.3713 13.839 13.099C12.2154 13.8267 10.8465 14.9608 9.88862 16.3717C8.93072 17.7827 8.42245 19.4135 8.42188 21.0781C8.42188 21.3723 8.54863 21.6545 8.77426 21.8626C8.99989 22.0706 9.30591 22.1875 9.625 22.1875H12.0312V23.2969H10.8281C9.55177 23.2969 8.32769 23.7644 7.42517 24.5966C6.52265 25.4288 6.01562 26.5575 6.01562 27.7344C6.01562 28.9113 6.52265 30.04 7.42517 30.8722C8.32769 31.7044 9.55177 32.1719 10.8281 32.1719H12.0312V33.2812C12.0362 35.2262 12.5943 37.1359 13.6499 38.8197C14.7055 40.5036 16.2216 41.9027 18.0469 42.8773V46.5938H13.2344C10.3639 46.5979 7.61236 47.6511 5.58265 49.5226C3.55295 51.3942 2.4107 53.9314 2.40625 56.5781V67.6719C2.40625 67.9661 2.53301 68.2483 2.75864 68.4563C2.98427 68.6644 3.29029 68.7812 3.60938 68.7812H73.3906C73.7097 68.7812 74.0157 68.6644 74.2414 68.4563C74.467 68.2483 74.5938 67.9661 74.5938 67.6719V63.2344C74.5909 62.3525 74.2097 61.5075 73.5334 60.8839C72.8572 60.2604 71.9408 59.9089 70.9844 59.9062H70.8641C70.6271 59.9095 70.3946 59.8466 70.197 59.7258C69.9995 59.6051 69.8462 59.4321 69.7572 59.2295C69.6633 59.0145 69.6429 58.7781 69.6988 58.552C69.7547 58.326 69.8843 58.1211 70.07 57.9648L70.1061 57.9316C70.7768 57.305 71.1528 56.46 71.1528 55.5797C71.1528 54.6993 70.7768 53.8544 70.1061 53.2278L64.9928 48.513C64.325 47.9005 63.4239 47.5531 62.4821 47.5448C61.5402 47.5365 60.6321 47.868 59.9517 48.4686L59.7953 48.5906C59.6289 48.7469 59.4158 48.8539 59.183 48.8979C58.9503 48.9419 58.7087 48.9208 58.4891 48.8374C58.2694 48.754 58.0818 48.6121 57.9501 48.4298C57.8184 48.2475 57.7488 48.0331 57.75 47.8141V47.7031C57.7477 46.8816 57.413 46.0904 56.8116 45.4844C57.413 44.8783 57.7477 44.0871 57.75 43.2656V43.1547C57.7465 42.9362 57.8147 42.7218 57.9457 42.5396C58.0766 42.3575 58.2642 42.2161 58.4839 42.1341C58.7172 42.0475 58.9735 42.0287 59.2187 42.0803C59.4638 42.1318 59.686 42.2512 59.8555 42.4225L59.8916 42.4558C60.5711 43.0742 61.4874 43.4209 62.4422 43.4209C63.3969 43.4209 64.3133 43.0742 64.9928 42.4558L70.1061 37.7409C70.7703 37.1251 71.1471 36.2943 71.1561 35.4258C71.1651 34.5574 70.8055 33.72 70.1542 33.0927L70.0219 32.9484C69.8523 32.795 69.7363 32.5985 69.6886 32.3839C69.6409 32.1693 69.6638 31.9465 69.7542 31.744C69.8447 31.5414 69.9986 31.3684 70.1963 31.247C70.394 31.1256 70.6265 31.0614 70.8641 31.0625ZM12.0312 29.9531H10.8281C10.1899 29.9531 9.57791 29.7194 9.12665 29.3033C8.67539 28.8872 8.42188 28.3228 8.42188 27.7344C8.42188 27.1459 8.67539 26.5816 9.12665 26.1655C9.57791 25.7494 10.1899 25.5156 10.8281 25.5156H12.0312V29.9531ZM10.9244 19.9688C11.1412 18.7788 11.7051 17.6656 12.5557 16.7487C13.4063 15.8317 14.5116 15.1455 15.7529 14.7636C16.9943 14.3816 18.3249 14.3184 19.6023 14.5807C20.8796 14.843 22.0554 15.4208 23.0038 16.2523C23.1988 16.4197 23.4481 16.5234 23.7133 16.5474C23.9785 16.5715 24.2449 16.5146 24.4716 16.3855C25.2947 15.9082 26.231 15.622 27.2004 15.5515C28.1697 15.4809 29.1431 15.6281 30.0373 15.9803C30.9314 16.3326 31.7196 16.8795 32.3344 17.5741C32.9492 18.2687 33.3722 19.0904 33.5672 19.9688H10.9244ZM14.4375 33.2812V22.1875H33.6875V33.2812C33.6875 35.635 32.6734 37.8924 30.8684 39.5568C29.0634 41.2212 26.6152 42.1562 24.0625 42.1562C21.5098 42.1562 19.0616 41.2212 17.2566 39.5568C15.4516 37.8924 14.4375 35.635 14.4375 33.2812ZM30.0781 48.8125V51.3641L27.708 48.8125H30.0781ZM20.4531 46.5938V43.8647C22.8028 44.5451 25.3222 44.5451 27.6719 43.8647V46.5938H20.4531ZM26.8658 51.3086L24.0625 53.9045L21.2592 51.3086L23.5813 48.8125H24.5437L26.8658 51.3086ZM18.0469 48.8125H20.417L18.0469 51.3641V48.8125ZM12.0312 66.5625V61.0156H9.625V66.5625H4.8125V56.5781C4.81505 54.5193 5.70317 52.5454 7.28202 51.0896C8.86088 49.6338 11.0015 48.8148 13.2344 48.8125H15.6406V54.3594C15.641 54.5858 15.716 54.8068 15.8557 54.993C15.9953 55.1792 16.1931 55.3219 16.4227 55.4022C16.558 55.4458 16.7004 55.4683 16.8438 55.4688C17.0178 55.4704 17.1901 55.4365 17.3482 55.3693C17.5064 55.3022 17.6464 55.2035 17.7581 55.0805L19.6831 53.0059L20.3328 53.605L18.0709 62.9903C18.0282 63.1736 18.0356 63.3639 18.0923 63.5439C18.149 63.724 18.2533 63.8883 18.3958 64.022L21.163 66.5625H12.0312ZM20.5734 62.8794L22.3541 55.4577L23.2083 56.2564C23.4364 56.4627 23.7431 56.5782 24.0625 56.5782C24.3819 56.5782 24.6886 56.4627 24.9167 56.2564L25.7709 55.4577L27.5516 62.8794L24.0625 66.1077L20.5734 62.8794ZM42.1094 66.5625H37.2969V61.0156H34.8906V66.5625H26.962L29.7292 64.022C29.8717 63.8883 29.976 63.724 30.0327 63.5439C30.0894 63.3639 30.0968 63.1736 30.0541 62.9903L27.7922 53.605L28.4419 53.0059L30.3669 55.0805C30.4786 55.2035 30.6186 55.3022 30.7768 55.3693C30.9349 55.4365 31.1072 55.4704 31.2812 55.4688C31.4247 55.4683 31.567 55.4458 31.7023 55.4022C31.9319 55.3219 32.1297 55.1792 32.2693 54.993C32.409 54.8068 32.484 54.5858 32.4844 54.3594V48.8125H33.6875C35.9203 48.8148 38.061 49.6338 39.6399 51.0896C41.2187 52.5454 42.1068 54.5193 42.1094 56.5781V66.5625ZM41.207 48.5462L41.1709 48.513C40.8042 48.1771 40.362 47.9196 39.8756 47.7586C39.3891 47.5976 38.8703 47.537 38.3556 47.5811C36.8987 46.9355 35.3039 46.5982 33.6875 46.5938H30.0781V42.8773C31.4091 42.1627 32.5808 41.2215 33.5311 40.1039L36.0697 42.4558C36.7375 43.0682 37.6386 43.4157 38.5804 43.424C39.5223 43.4323 40.4304 43.1007 41.1108 42.5002L41.2672 42.3781C41.4336 42.2218 41.6467 42.1148 41.8795 42.0708C42.1122 42.0269 42.3538 42.0479 42.5734 42.1313C42.7931 42.2147 42.9807 42.3567 43.1124 42.539C43.2441 42.7213 43.3137 42.9357 43.3125 43.1547V43.2656C43.3148 44.0871 43.6495 44.8783 44.2509 45.4844C43.6495 46.0904 43.3148 46.8816 43.3125 47.7031V47.8141C43.316 48.0326 43.2478 48.247 43.1168 48.4291C42.9859 48.6112 42.7983 48.7526 42.5786 48.8347C42.3453 48.9213 42.089 48.94 41.8438 48.8885C41.5987 48.8369 41.3765 48.7175 41.207 48.5462ZM44.5156 66.5625V58.2755C46.2906 57.1657 48.3867 56.5742 50.5312 56.5781C53.4017 56.5822 56.1533 57.6355 58.183 59.507C60.2127 61.3786 61.3549 63.9157 61.3594 66.5625H44.5156ZM57.5695 50.887C58.215 51.1427 58.9285 51.2149 59.6187 51.0944C60.3089 50.9738 60.9443 50.666 61.4436 50.2103L61.6 50.0883C61.7101 49.9855 61.8413 49.9039 61.9858 49.8482C62.1304 49.7925 62.2855 49.7639 62.4422 49.7639C62.5989 49.7639 62.754 49.7925 62.8986 49.8482C63.0431 49.9039 63.1743 49.9855 63.2844 50.0883L68.3977 54.8031C68.5114 54.9105 68.6005 55.0379 68.6599 55.1777C68.7192 55.3174 68.7474 55.4668 68.7429 55.6168C68.7384 55.7669 68.7013 55.9145 68.6337 56.0511C68.5661 56.1876 68.4695 56.3103 68.3495 56.4117L68.3134 56.445C67.8093 56.9104 67.466 57.5032 67.327 58.1484C67.188 58.7936 67.2595 59.4623 67.5324 60.0701C67.8054 60.6779 68.2675 61.1974 68.8605 61.5632C69.4534 61.9289 70.1507 62.1244 70.8641 62.125H70.9844C71.3035 62.125 71.6095 62.2419 71.8351 62.4499C72.0607 62.658 72.1875 62.9402 72.1875 63.2344V66.5625H63.7656C63.7634 63.3267 62.3683 60.2239 59.8869 57.9359C57.4055 55.6478 54.0405 54.3614 50.5312 54.3594C48.4199 54.3541 46.3388 54.8224 44.4675 55.7239C44.3145 54.0682 43.7148 52.4741 42.723 51.0867C42.9867 51.0461 43.2449 50.9791 43.493 50.887C44.1569 50.6417 44.7248 50.2169 45.1221 49.6685C45.5193 49.12 45.7273 48.4735 45.7188 47.8141V47.7031C45.7188 47.4089 45.8455 47.1267 46.0711 46.9187C46.2968 46.7106 46.6028 46.5938 46.9219 46.5938H54.1406C54.4597 46.5938 54.7657 46.7106 54.9914 46.9187C55.217 47.1267 55.3438 47.4089 55.3438 47.7031V47.8141C55.3352 48.4735 55.5432 49.12 55.9404 49.6685C56.3377 50.2169 56.9056 50.6417 57.5695 50.887ZM68.2653 34.4683L68.3977 34.6125C68.5091 34.714 68.5976 34.835 68.658 34.9683C68.7184 35.1016 68.7495 35.2446 68.7495 35.3891C68.7495 35.5335 68.7184 35.6766 68.658 35.8099C68.5976 35.9432 68.5091 36.0641 68.3977 36.1656L63.2844 40.8805C63.1679 40.9853 63.0298 41.0675 62.8782 41.1222C62.7266 41.1769 62.5646 41.203 62.4019 41.1988C62.2392 41.1947 62.079 41.1605 61.931 41.0981C61.7829 41.0358 61.6499 40.9467 61.5398 40.8361L61.5037 40.8028C60.999 40.338 60.3561 40.0215 59.6564 39.8933C58.9567 39.7651 58.2314 39.831 57.5723 40.0827C56.9132 40.3343 56.3497 40.7604 55.953 41.3072C55.5564 41.854 55.3444 42.4969 55.3438 43.1547V43.2656C55.3438 43.5598 55.217 43.842 54.9914 44.0501C54.7657 44.2581 54.4597 44.375 54.1406 44.375H46.9219C46.6028 44.375 46.2968 44.2581 46.0711 44.0501C45.8455 43.842 45.7188 43.5598 45.7188 43.2656V43.1547C45.7194 42.503 45.512 41.8654 45.1226 41.3216C44.7331 40.7777 44.1787 40.3515 43.5285 40.0961C42.8782 39.8406 42.1608 39.7672 41.4656 39.885C40.7704 40.0028 40.1282 40.3065 39.6189 40.7584L39.4625 40.8805C39.3524 40.9832 39.2212 41.0648 39.0767 41.1205C38.9321 41.1762 38.777 41.2049 38.6203 41.2049C38.4636 41.2049 38.3085 41.1762 38.1639 41.1205C38.0194 41.0648 37.8882 40.9832 37.7781 40.8805L34.8425 38.1847C35.6638 36.661 36.0921 34.9828 36.0938 33.2812V32.1719H37.2969C38.1815 32.1659 39.0472 31.9356 39.7994 31.5063C41.6106 33.8231 44.247 35.4794 47.2481 36.1859C50.2492 36.8923 53.4241 36.6039 56.2181 35.3711C59.012 34.1383 61.2473 32.0395 62.5334 29.4413C63.8195 26.8431 64.0746 23.9109 63.2542 21.1569C62.4338 18.4029 60.5899 16.0023 58.0449 14.3746C55.4998 12.7468 52.4154 11.9954 49.3306 12.2516C46.2457 12.5079 43.3566 13.7554 41.168 15.7764C38.9794 17.7973 37.6305 20.4631 37.357 23.308C37.3386 23.299 37.3177 23.2951 37.2969 23.2969H36.0938V21.0781C36.0932 20.0574 35.874 19.0468 35.4487 18.1044C35.0234 17.162 34.4003 16.3064 33.6153 15.5867C33.4514 15.1194 33.1712 14.6939 32.7972 14.3442L32.6648 14.2C32.5534 14.0985 32.4649 13.9775 32.4045 13.8442C32.3441 13.7109 32.313 13.5679 32.313 13.4234C32.313 13.279 32.3441 13.1359 32.4045 13.0026C32.4649 12.8693 32.5534 12.7484 32.6648 12.6469L37.7781 7.93203C37.8946 7.82717 38.0327 7.74495 38.1843 7.69026C38.3359 7.63557 38.4979 7.60953 38.6606 7.61366C38.8233 7.6178 38.9835 7.65205 39.1315 7.71436C39.2796 7.77667 39.4126 7.86578 39.5227 7.97641L39.5588 8.00969C40.0635 8.47454 40.7064 8.79105 41.4061 8.91922C42.1058 9.0474 42.8311 8.98149 43.4902 8.72984C44.1493 8.47818 44.7128 8.05206 45.1095 7.50529C45.5061 6.95852 45.7181 6.31563 45.7188 5.65781V5.54688C45.7188 5.25265 45.8455 4.97048 46.0711 4.76243C46.2968 4.55438 46.6028 4.4375 46.9219 4.4375H54.1406C54.4597 4.4375 54.7657 4.55438 54.9914 4.76243C55.217 4.97048 55.3438 5.25265 55.3438 5.54688V5.65781C55.3431 6.30955 55.5505 6.94705 55.9399 7.49092C56.3294 8.03479 56.8838 8.46099 57.534 8.71644C58.1843 8.97188 58.9017 9.04529 59.5969 8.92751C60.2921 8.80973 60.9343 8.50597 61.4436 8.05406L61.6 7.93203C61.7101 7.82926 61.8413 7.74766 61.9858 7.69197C62.1304 7.63628 62.2855 7.60761 62.4422 7.60761C62.5989 7.60761 62.754 7.63628 62.8986 7.69197C63.0431 7.74766 63.1743 7.82926 63.2844 7.93203L68.3977 12.6469C68.5114 12.7543 68.6005 12.8816 68.6599 13.0214C68.7192 13.1612 68.7474 13.3105 68.7429 13.4606C68.7384 13.6106 68.7013 13.7583 68.6337 13.8948C68.5661 14.0314 68.4695 14.154 68.3495 14.2555L68.3134 14.2887C67.8093 14.7542 67.466 15.3469 67.327 15.9921C67.188 16.6374 67.2595 17.3061 67.5324 17.9138C67.8054 18.5216 68.2675 19.0412 68.8605 19.4069C69.4534 19.7727 70.1507 19.9682 70.8641 19.9688H70.9844C71.3035 19.9688 71.6095 20.0856 71.8351 20.2937C72.0607 20.5017 72.1875 20.7839 72.1875 21.0781V27.7344C72.1875 28.0286 72.0607 28.3108 71.8351 28.5188C71.6095 28.7269 71.3035 28.8438 70.9844 28.8438H70.8641C70.1572 28.8432 69.4659 29.0344 68.876 29.3935C68.2862 29.7526 67.824 30.2638 67.547 30.8634C67.2699 31.463 67.1903 32.1245 67.3181 32.7655C67.4458 33.4065 67.7752 33.9987 68.2653 34.4683ZM36.0938 29.9531V25.5156H37.2969C37.9351 25.5156 38.5471 25.7494 38.9984 26.1655C39.4496 26.5816 39.7031 27.1459 39.7031 27.7344C39.7031 28.3228 39.4496 28.8872 38.9984 29.3033C38.5471 29.7194 37.9351 29.9531 37.2969 29.9531H36.0938ZM39.7272 23.9292C39.8374 21.5393 40.8699 19.2643 42.6384 17.5142C44.407 15.7642 46.7953 14.6542 49.373 14.3843C51.9506 14.1144 54.548 14.7024 56.6971 16.0423C58.8461 17.3822 60.4054 19.3859 61.094 21.6922C61.7825 23.9985 61.555 26.4557 60.4524 28.6209C59.3497 30.7862 57.4446 32.5171 55.0803 33.5016C52.716 34.4862 50.0481 34.6596 47.5574 33.9907C45.0666 33.3218 42.917 31.8545 41.4958 29.8533C42.1121 28.8512 42.2719 27.6646 41.9404 26.5539C41.6088 25.4433 40.8128 24.4993 39.7272 23.9292Z" fill="black"/>
<path d="M19.25 26.625C18.9309 26.625 18.6249 26.7419 18.3993 26.9499C18.1736 27.158 18.0469 27.4402 18.0469 27.7344V28.8438C18.0469 29.138 18.1736 29.4201 18.3993 29.6282C18.6249 29.8362 18.9309 29.9531 19.25 29.9531C19.5691 29.9531 19.8751 29.8362 20.1007 29.6282C20.3264 29.4201 20.4531 29.138 20.4531 28.8438V27.7344C20.4531 27.4402 20.3264 27.158 20.1007 26.9499C19.8751 26.7419 19.5691 26.625 19.25 26.625ZM28.875 29.9531C29.1941 29.9531 29.5001 29.8362 29.7257 29.6282C29.9514 29.4201 30.0781 29.138 30.0781 28.8438V27.7344C30.0781 27.4402 29.9514 27.158 29.7257 26.9499C29.5001 26.7419 29.1941 26.625 28.875 26.625C28.5559 26.625 28.2499 26.7419 28.0243 26.9499C27.7986 27.158 27.6719 27.4402 27.6719 27.7344V28.8438C27.6719 29.138 27.7986 29.4201 28.0243 29.6282C28.2499 29.8362 28.5559 29.9531 28.875 29.9531Z" fill="black"/>
</svg>
