<svg width="468" height="429" viewBox="0 0 468 429" fill="none" xmlns="http://www.w3.org/2000/svg">
<mask id="mask0_1_1443" style="mask-type:luminance" maskUnits="userSpaceOnUse" x="0" y="0" width="468" height="429">
<path d="M467.032 0H0V429H467.032V0Z" fill="white"/>
</mask>
<g mask="url(#mask0_1_1443)">
<rect x="-69.2686" y="-2.41724" width="569.244" height="433.256" fill="#C4C4C4"/>
<path opacity="0.5" d="M466.867 -0.289307H0V429.281H466.867V-0.289307Z" fill="#00416B"/>
</g>
<path fill-rule="evenodd" clip-rule="evenodd" d="M229.986 163.888H237.062C237.519 164.047 237.987 164.17 238.461 164.254C247.685 165.267 256.415 169.258 263.517 175.709C270.62 182.16 275.768 190.772 278.293 200.43C279.228 204.064 279.629 207.852 280.274 211.572V218.322C280.127 218.881 280.012 219.45 279.928 220.024C278.951 229.93 275.274 239.298 269.366 246.935C263.458 254.573 255.585 260.136 246.748 262.916C243.603 263.912 240.293 264.388 237.062 265.103H229.986C229.531 264.945 229.066 264.822 228.594 264.737C219.474 263.736 210.832 259.832 203.759 253.518C196.687 247.203 191.501 238.762 188.857 229.26C187.898 225.71 187.457 221.999 186.773 218.364V209.853C186.92 209.364 187.04 208.866 187.135 208.363C190.131 187.432 200.934 173.464 219.308 166.459C222.721 165.08 226.416 164.697 229.986 163.888ZM189.683 214.262C189.652 220.505 190.76 226.694 192.944 232.472C195.128 238.25 198.344 243.505 202.409 247.934C206.474 252.363 211.307 255.879 216.63 258.28C221.953 260.682 227.662 261.922 233.429 261.928C257.441 261.928 277.381 240.649 277.349 215.045C277.349 188.284 257.866 167.004 233.445 167.012C221.863 167.028 210.758 172.007 202.558 180.861C194.357 189.715 189.728 201.723 189.683 214.262Z" fill="white"/>
<path fill-rule="evenodd" clip-rule="evenodd" d="M221.675 192.02L257.685 214.526L221.675 237.048V192.02Z" fill="white"/>
</svg>
