<svg width="96" height="79" viewBox="0 0 96 79" fill="none" xmlns="http://www.w3.org/2000/svg">
<path d="M10.5208 68.9161C9.93197 68.9161 9.4541 68.4886 9.4541 67.9596V34.4643C9.4541 33.9363 9.93197 33.5078 10.5208 33.5078C11.1096 33.5078 11.5874 33.9363 11.5874 34.4643V67.9596C11.5874 68.4886 11.1106 68.9161 10.5208 68.9161Z" fill="black"/>
<path d="M85.4798 68.9161C84.8899 68.9161 84.4131 68.4885 84.4131 67.9596V34.4624C84.4131 33.9344 84.8899 33.5059 85.4798 33.5059C86.0696 33.5059 86.5464 33.9344 86.5464 34.4624V67.9596C86.5464 68.4885 86.0686 68.9161 85.4798 68.9161Z" fill="black"/>
<path d="M94.9333 78.088H27.0016C26.4128 78.088 25.9349 77.6604 25.9349 77.1315C25.9349 76.6025 26.4128 76.175 27.0016 76.175H93.8667V71.4861C93.8667 70.0695 92.5813 68.916 91.0005 68.916H4.99947C3.41867 68.916 2.13333 70.0695 2.13333 71.4861V76.175H12.4192C13.008 76.175 13.4859 76.6025 13.4859 77.1315C13.4859 77.6604 13.008 78.088 12.4192 78.088H1.06667C0.477867 78.088 0 77.6604 0 77.1315V71.4861C0 69.0145 2.2432 67.0029 4.99947 67.0029H91.0016C93.7579 67.0029 96.0011 69.0145 96.0011 71.4861V77.1315C96 77.6604 95.5232 78.088 94.9333 78.088Z" fill="black"/>
<path d="M59.7336 35.6217C52.6755 35.6217 46.9336 30.4727 46.9336 24.1435V11.1167C46.9336 10.5887 47.4115 10.1602 48.0003 10.1602H62.5187C62.8888 10.1602 63.2323 10.3323 63.4275 10.6155L72.3757 23.6422C72.4781 23.7924 72.5336 23.9665 72.5336 24.1435C72.5336 30.4727 66.7917 35.6217 59.7336 35.6217ZM49.0669 12.0732V24.1435C49.0669 29.4177 53.852 33.7086 59.7336 33.7086C65.5171 33.7086 70.2392 29.5612 70.396 24.4084L61.9235 12.0732H49.0669Z" fill="black"/>
<path d="M83.2003 35.6217C76.2446 35.6217 70.5678 30.622 70.4046 24.4199L61.611 11.6189C61.4094 11.3233 61.3998 10.9531 61.5886 10.6509C61.7774 10.3486 62.1336 10.1611 62.5198 10.1611H78.555C78.8152 10.1611 79.067 10.2472 79.2622 10.4022L95.6408 23.429C95.8702 23.6088 96.0003 23.8699 96.0003 24.1435C96.0003 30.4727 90.2584 35.6217 83.2003 35.6217ZM64.428 12.0732L72.3747 23.6413C72.4782 23.7924 72.5336 23.9665 72.5336 24.1435C72.5336 29.4177 77.3187 33.7086 83.2003 33.7086C88.924 33.7086 93.6099 29.6444 93.8563 24.5653L78.1486 12.0732H64.428Z" fill="black"/>
<path d="M36.2668 35.6217C29.2087 35.6217 23.4668 30.4727 23.4668 24.1435C23.4668 23.9665 23.5212 23.7924 23.6247 23.6422L32.5729 10.6155C32.7671 10.3333 33.1105 10.1602 33.4817 10.1602H48.0001C48.5889 10.1602 49.0668 10.5887 49.0668 11.1167V24.1435C49.0668 30.4727 43.3249 35.6217 36.2668 35.6217ZM25.6044 24.4084C25.7612 29.5602 30.4844 33.7086 36.2668 33.7086C42.1484 33.7086 46.9335 29.4177 46.9335 24.1435V12.0732H34.078L25.6044 24.4084Z" fill="black"/>
<path d="M12.8 35.6217C5.74187 35.6217 0 30.4727 0 24.1435C0 23.8699 0.1312 23.6088 0.3584 23.428L16.7381 10.4012C16.9333 10.2453 17.1851 10.1602 17.4464 10.1602H33.4816C33.8677 10.1602 34.224 10.3476 34.4128 10.6499C34.6016 10.9522 34.592 11.3233 34.3904 11.6179L25.5968 24.4189C25.4325 30.6219 19.7557 35.6217 12.8 35.6217ZM2.144 24.5653C2.3904 29.6444 7.07627 33.7086 12.8 33.7086C18.6816 33.7086 23.4667 29.4177 23.4667 24.1435C23.4667 23.9665 23.5211 23.7924 23.6245 23.6422L31.5712 12.0741H17.8507L2.144 24.5653Z" fill="black"/>
<path d="M94.9333 25.1H1.06667C0.477867 25.1 0 24.6715 0 24.1435C0 23.6155 0.477867 23.187 1.06667 23.187H94.9333C95.5232 23.187 96 23.6155 96 24.1435C96 24.6715 95.5232 25.1 94.9333 25.1Z" fill="black"/>
<path d="M78.7265 12.0731H17.4466C16.8578 12.0731 16.3799 11.6446 16.3799 11.1166V4.46119C16.3799 2.00103 18.6113 0 21.3548 0H74.8183C77.5607 0 79.7932 2.00103 79.7932 4.46119V11.1166C79.7932 11.6446 79.3153 12.0731 78.7265 12.0731ZM18.5132 10.1601H77.6599V4.46119C77.6599 3.05607 76.3852 1.91303 74.8183 1.91303H21.3548C19.7879 1.91303 18.5132 3.05607 18.5132 4.46119V10.1601Z" fill="black"/>
<path d="M68.9987 68.916C68.4088 68.916 67.932 68.4885 67.932 67.9595V45.5378C67.932 43.9204 66.4643 42.6042 64.6605 42.6042H49.0669V48.9574C49.0669 49.4863 48.5891 49.9139 48.0003 49.9139C47.4115 49.9139 46.9336 49.4863 46.9336 48.9574V41.6477C46.9336 41.1187 47.4115 40.6912 48.0003 40.6912H64.6595C67.6397 40.6912 70.0643 42.8653 70.0643 45.5378V67.9595C70.0653 68.4885 69.5875 68.916 68.9987 68.916Z" fill="black"/>
<path d="M48.0003 68.916C47.4115 68.916 46.9336 68.4884 46.9336 67.9595V56.9175C46.9336 56.3885 47.4115 55.9609 48.0003 55.9609C48.5891 55.9609 49.0669 56.3885 49.0669 56.9175V67.9595C49.0669 68.4884 48.5891 68.916 48.0003 68.916Z" fill="black"/>
<path d="M53.7464 60.009C53.1565 60.009 52.6797 59.5815 52.6797 59.0525V56.9692C52.6797 56.4403 53.1565 56.0127 53.7464 56.0127C54.3362 56.0127 54.813 56.4403 54.813 56.9692V59.0525C54.813 59.5815 54.3352 60.009 53.7464 60.009Z" fill="black"/>
<path d="M27.0012 68.916C26.4124 68.916 25.9346 68.4885 25.9346 67.9595V45.5378C25.9346 42.8653 28.3591 40.6912 31.3394 40.6912H47.9996C48.5884 40.6912 49.0663 41.1187 49.0663 41.6477V48.9574C49.0663 49.4863 48.5884 49.9139 47.9996 49.9139C47.4108 49.9139 46.933 49.4863 46.933 48.9574V42.6042H31.3394C29.5356 42.6042 28.0679 43.9204 28.0679 45.5378V67.9595C28.0679 68.4885 27.59 68.916 27.0012 68.916Z" fill="black"/>
<path d="M48.0003 68.916C47.4115 68.916 46.9336 68.4884 46.9336 67.9595V56.9175C46.9336 56.3885 47.4115 55.9609 48.0003 55.9609C48.5891 55.9609 49.0669 56.3885 49.0669 56.9175V67.9595C49.0669 68.4884 48.5891 68.916 48.0003 68.916Z" fill="black"/>
<path d="M42.2551 60.009C41.6663 60.009 41.1885 59.5815 41.1885 59.0525V56.9692C41.1885 56.4403 41.6663 56.0127 42.2551 56.0127C42.8439 56.0127 43.3218 56.4403 43.3218 56.9692V59.0525C43.3218 59.5815 42.8439 60.009 42.2551 60.009Z" fill="black"/>
</svg>
