<svg width="96" height="79" viewBox="0 0 96 79" fill="none" xmlns="http://www.w3.org/2000/svg">
<path d="M10.5208 68.9161C9.93197 68.9161 9.4541 68.4886 9.4541 67.9596V34.4643C9.4541 33.9363 9.93197 33.5078 10.5208 33.5078C11.1096 33.5078 11.5874 33.9363 11.5874 34.4643V67.9596C11.5874 68.4886 11.1106 68.9161 10.5208 68.9161Z" fill="black"/>
<path d="M85.4793 68.9161C84.8894 68.9161 84.4126 68.4885 84.4126 67.9596V34.4624C84.4126 33.9344 84.8894 33.5059 85.4793 33.5059C86.0691 33.5059 86.5459 33.9344 86.5459 34.4624V67.9596C86.5459 68.4885 86.0681 68.9161 85.4793 68.9161Z" fill="black"/>
<path d="M94.9333 78.088H27.0016C26.4128 78.088 25.9349 77.6604 25.9349 77.1315C25.9349 76.6025 26.4128 76.175 27.0016 76.175H93.8667V71.4861C93.8667 70.0695 92.5813 68.916 91.0005 68.916H4.99947C3.41867 68.916 2.13333 70.0695 2.13333 71.4861V76.175H12.4192C13.008 76.175 13.4859 76.6025 13.4859 77.1315C13.4859 77.6604 13.008 78.088 12.4192 78.088H1.06667C0.477867 78.088 0 77.6604 0 77.1315V71.4861C0 69.0145 2.2432 67.0029 4.99947 67.0029H91.0016C93.7579 67.0029 96.0011 69.0145 96.0011 71.4861V77.1315C96 77.6604 95.5232 78.088 94.9333 78.088Z" fill="black"/>
<path d="M59.7331 35.6217C52.675 35.6217 46.9331 30.4727 46.9331 24.1435V11.1167C46.9331 10.5887 47.411 10.1602 47.9998 10.1602H62.5182C62.8883 10.1602 63.2318 10.3323 63.427 10.6155L72.3752 23.6422C72.4776 23.7924 72.5331 23.9665 72.5331 24.1435C72.5331 30.4727 66.7912 35.6217 59.7331 35.6217ZM49.0664 12.0732V24.1435C49.0664 29.4177 53.8515 33.7086 59.7331 33.7086C65.5166 33.7086 70.2387 29.5612 70.3955 24.4084L61.923 12.0732H49.0664Z" fill="black"/>
<path d="M83.1998 35.6217C76.2441 35.6217 70.5673 30.622 70.4041 24.4199L61.6105 11.6189C61.4089 11.3233 61.3993 10.9531 61.5881 10.6509C61.7769 10.3486 62.1332 10.1611 62.5193 10.1611H78.5545C78.8147 10.1611 79.0665 10.2472 79.2617 10.4022L95.6404 23.429C95.8697 23.6088 95.9998 23.8699 95.9998 24.1435C95.9998 30.4727 90.258 35.6217 83.1998 35.6217ZM64.4276 12.0732L72.3742 23.6413C72.4777 23.7924 72.5332 23.9665 72.5332 24.1435C72.5332 29.4177 77.3182 33.7086 83.1998 33.7086C88.9236 33.7086 93.6094 29.6444 93.8558 24.5653L78.1481 12.0732H64.4276Z" fill="black"/>
<path d="M36.2668 35.6217C29.2087 35.6217 23.4668 30.4727 23.4668 24.1435C23.4668 23.9665 23.5212 23.7924 23.6247 23.6422L32.5729 10.6155C32.7671 10.3333 33.1105 10.1602 33.4817 10.1602H48.0001C48.5889 10.1602 49.0668 10.5887 49.0668 11.1167V24.1435C49.0668 30.4727 43.3249 35.6217 36.2668 35.6217ZM25.6044 24.4084C25.7612 29.5602 30.4844 33.7086 36.2668 33.7086C42.1484 33.7086 46.9335 29.4177 46.9335 24.1435V12.0732H34.078L25.6044 24.4084Z" fill="black"/>
<path d="M12.8 35.6217C5.74187 35.6217 0 30.4727 0 24.1435C0 23.8699 0.1312 23.6088 0.3584 23.428L16.7381 10.4012C16.9333 10.2453 17.1851 10.1602 17.4464 10.1602H33.4816C33.8677 10.1602 34.224 10.3476 34.4128 10.6499C34.6016 10.9522 34.592 11.3233 34.3904 11.6179L25.5968 24.4189C25.4325 30.6219 19.7557 35.6217 12.8 35.6217ZM2.144 24.5653C2.3904 29.6444 7.07627 33.7086 12.8 33.7086C18.6816 33.7086 23.4667 29.4177 23.4667 24.1435C23.4667 23.9665 23.5211 23.7924 23.6245 23.6422L31.5712 12.0741H17.8507L2.144 24.5653Z" fill="black"/>
<path d="M94.9333 25.1H1.06667C0.477867 25.1 0 24.6715 0 24.1435C0 23.6155 0.477867 23.187 1.06667 23.187H94.9333C95.5232 23.187 96 23.6155 96 24.1435C96 24.6715 95.5232 25.1 94.9333 25.1Z" fill="black"/>
<path d="M78.7265 12.0731H17.4466C16.8578 12.0731 16.3799 11.6446 16.3799 11.1166V4.46119C16.3799 2.00103 18.6113 0 21.3548 0H74.8183C77.5607 0 79.7932 2.00103 79.7932 4.46119V11.1166C79.7932 11.6446 79.3153 12.0731 78.7265 12.0731ZM18.5132 10.1601H77.6599V4.46119C77.6599 3.05607 76.3852 1.91303 74.8183 1.91303H21.3548C19.7879 1.91303 18.5132 3.05607 18.5132 4.46119V10.1601Z" fill="black"/>
<path d="M68.9982 68.916C68.4083 68.916 67.9315 68.4885 67.9315 67.9595V45.5378C67.9315 43.9204 66.4638 42.6042 64.66 42.6042H49.0664V48.9574C49.0664 49.4863 48.5886 49.9139 47.9998 49.9139C47.411 49.9139 46.9331 49.4863 46.9331 48.9574V41.6477C46.9331 41.1187 47.411 40.6912 47.9998 40.6912H64.659C67.6392 40.6912 70.0638 42.8653 70.0638 45.5378V67.9595C70.0648 68.4885 69.587 68.916 68.9982 68.916Z" fill="black"/>
<path d="M47.9998 68.916C47.411 68.916 46.9331 68.4884 46.9331 67.9595V56.9175C46.9331 56.3885 47.411 55.9609 47.9998 55.9609C48.5886 55.9609 49.0664 56.3885 49.0664 56.9175V67.9595C49.0664 68.4884 48.5886 68.916 47.9998 68.916Z" fill="black"/>
<path d="M53.7464 60.009C53.1565 60.009 52.6797 59.5815 52.6797 59.0525V56.9692C52.6797 56.4403 53.1565 56.0127 53.7464 56.0127C54.3362 56.0127 54.813 56.4403 54.813 56.9692V59.0525C54.813 59.5815 54.3352 60.009 53.7464 60.009Z" fill="black"/>
<path d="M27.0017 68.916C26.4129 68.916 25.9351 68.4885 25.9351 67.9595V45.5378C25.9351 42.8653 28.3596 40.6912 31.3399 40.6912H48.0001C48.5889 40.6912 49.0668 41.1187 49.0668 41.6477V48.9574C49.0668 49.4863 48.5889 49.9139 48.0001 49.9139C47.4113 49.9139 46.9335 49.4863 46.9335 48.9574V42.6042H31.3399C29.5361 42.6042 28.0684 43.9204 28.0684 45.5378V67.9595C28.0684 68.4885 27.5905 68.916 27.0017 68.916Z" fill="black"/>
<path d="M47.9998 68.916C47.411 68.916 46.9331 68.4884 46.9331 67.9595V56.9175C46.9331 56.3885 47.411 55.9609 47.9998 55.9609C48.5886 55.9609 49.0664 56.3885 49.0664 56.9175V67.9595C49.0664 68.4884 48.5886 68.916 47.9998 68.916Z" fill="black"/>
<path d="M42.2551 60.009C41.6663 60.009 41.1885 59.5815 41.1885 59.0525V56.9692C41.1885 56.4403 41.6663 56.0127 42.2551 56.0127C42.8439 56.0127 43.3218 56.4403 43.3218 56.9692V59.0525C43.3218 59.5815 42.8439 60.009 42.2551 60.009Z" fill="black"/>
</svg>
