<svg width="106" height="85" viewBox="0 0 106 85" fill="none" xmlns="http://www.w3.org/2000/svg">
<path d="M94.8618 62.7854H28.5717C28.0217 62.7854 27.5447 62.4445 27.4234 61.9642L17.1261 21.4309C16.0837 17.3258 12.0746 14.46 7.3776 14.46H1.17778C0.527644 14.46 0 13.9871 0 13.4044C0 12.8218 0.527644 12.3489 1.17778 12.3489H7.3776C13.1805 12.3489 18.1342 15.8903 19.4227 20.9622L29.5104 60.6754H93.9207L103.345 23.5789H45.8297C45.1796 23.5789 44.6519 23.106 44.6519 22.5234C44.6519 21.9407 45.1796 21.4678 45.8297 21.4678H104.822C105.181 21.4678 105.519 21.6145 105.742 21.8647C105.966 22.1159 106.051 22.4442 105.969 22.7577L96.0089 61.9642C95.8876 62.4445 95.4118 62.7854 94.8618 62.7854Z" fill="black"/>
<path d="M22.8937 77.3459C17.7656 77.3459 13.5928 73.6071 13.5928 69.0113C13.5928 64.4154 17.7645 60.6755 22.8937 60.6755H94.7876C95.4389 60.6755 95.9654 61.1474 95.9654 61.7311C95.9654 62.3148 95.4389 62.7866 94.7876 62.7866H22.8937C19.0647 62.7866 15.9483 65.5796 15.9483 69.0113C15.9483 72.4429 19.0647 75.2348 22.8937 75.2348C23.5438 75.2348 24.0715 75.7066 24.0715 76.2904C24.0715 76.8741 23.5438 77.3459 22.8937 77.3459Z" fill="black"/>
<path d="M86.4773 84.0412C81.7097 84.0412 77.8301 80.5642 77.8301 76.2903C77.8301 72.0163 81.7097 68.5393 86.4773 68.5393C91.2461 68.5393 95.1257 72.0163 95.1257 76.2903C95.1257 80.5642 91.2461 84.0412 86.4773 84.0412ZM86.4773 70.6504C83.0088 70.6504 80.1856 73.1795 80.1856 76.2903C80.1856 79.401 83.0076 81.9301 86.4773 81.9301C89.9471 81.9301 92.7702 79.401 92.7702 76.2903C92.7702 73.1795 89.9471 70.6504 86.4773 70.6504Z" fill="black"/>
<path d="M39.9964 84.0412C35.2287 84.0412 31.3491 80.5642 31.3491 76.2903C31.3491 72.0163 35.2287 68.5393 39.9964 68.5393C44.7652 68.5393 48.6448 72.0163 48.6448 76.2903C48.6448 80.5642 44.7652 84.0412 39.9964 84.0412ZM39.9964 70.6504C36.5266 70.6504 33.7047 73.1795 33.7047 76.2903C33.7047 79.401 36.5266 81.9301 39.9964 81.9301C43.4661 81.9301 46.2892 79.401 46.2892 76.2903C46.2892 73.1795 43.4661 70.6504 39.9964 70.6504Z" fill="black"/>
<path d="M68.4113 77.3457H47.4668C46.8167 77.3457 46.2891 76.8739 46.2891 76.2902C46.2891 75.7065 46.8167 75.2346 47.4668 75.2346H68.4113C69.0626 75.2346 69.589 75.7065 69.589 76.2902C69.589 76.8739 69.0626 77.3457 68.4113 77.3457Z" fill="black"/>
<path d="M94.7865 23.578H63.6343C62.983 23.578 62.4565 23.1051 62.4565 22.5224V7.93886C62.4565 7.35619 62.983 6.8833 63.6343 6.8833H94.7865C95.4379 6.8833 95.9643 7.35619 95.9643 7.93886V22.5224C95.9643 23.1061 95.4379 23.578 94.7865 23.578ZM64.8121 21.4669H93.6088V8.99441H64.8121V21.4669Z" fill="black"/>
<path d="M32.7554 23.5779C32.1053 23.5779 31.5776 23.1051 31.5776 22.5224V1.05556C31.5776 0.472889 32.1053 0 32.7554 0H73.6302C74.2815 0 74.808 0.472889 74.808 1.05556V7.93883C74.808 8.5215 74.2815 8.99439 73.6302 8.99439C72.9789 8.99439 72.4524 8.5215 72.4524 7.93883V2.11111H33.9332V22.5224C33.9332 23.1061 33.4055 23.5779 32.7554 23.5779Z" fill="black"/>
<path d="M61.2444 54.9057C60.9311 54.9057 60.6319 54.7948 60.4117 54.5964L48.5821 43.9933C44.9804 40.7644 44.9804 35.512 48.5821 32.2851C52.0518 29.1744 57.6204 29.0604 61.2444 31.9463C64.866 29.0604 70.4358 29.1744 73.9079 32.2851C77.5095 35.513 77.5095 40.7655 73.9067 43.9933L62.0771 54.5964C61.8568 54.7948 61.5577 54.9057 61.2444 54.9057ZM55.114 31.9737C53.3509 31.9737 51.589 32.5743 50.2475 33.7766C47.5645 36.1812 47.5645 40.0941 50.2475 42.4997L61.2444 52.3576L72.2413 42.5008C74.9243 40.0962 74.9243 36.1822 72.2425 33.7777C69.5571 31.3721 65.1923 31.3731 62.5081 33.7777L62.0771 34.164C61.6166 34.5757 60.8722 34.5757 60.4117 34.164L59.9806 33.7777C58.6391 32.5754 56.876 31.9737 55.114 31.9737Z" fill="black"/>
</svg>
