<svg width="46" height="57" viewBox="0 0 46 57" fill="none" xmlns="http://www.w3.org/2000/svg">
<mask id="mask0_1_2455" style="mask-type:luminance" maskUnits="userSpaceOnUse" x="0" y="0" width="46" height="57">
<path d="M0.439072 48.8532C0.0855932 46.3724 0.164463 43.7883 0 41.2527C4.21742 41.453 8.43485 41.6533 12.6528 41.8528C16.4347 42.0324 20.3145 42.5252 24.0796 42.7017C24.6375 42.7279 25.1928 42.747 25.7451 42.7573C24.1385 39.3831 22.5739 35.9866 21.0518 32.5695C19.6131 29.3407 18.2043 26.0682 17.405 22.6026C16.3866 18.1863 16.384 13.5609 17.5838 9.18356C18.1863 6.98574 19.0716 4.88091 20.1659 2.90486C20.5425 2.22445 21.2254 0.508318 21.8991 0.145856C22.6588 -0.263503 24.3638 0.305626 25.1887 0.432011C31.9467 1.4717 38.7891 2.53525 45.0858 5.32048C44.8101 5.19886 42.6578 7.87599 42.277 8.26627C40.9444 9.62947 39.846 11.3599 38.7581 12.9393C37.2729 15.0966 37.5056 17.3453 37.6703 19.9262C38.1334 27.1922 39.4683 34.3516 40.337 41.5666C40.6256 43.9687 40.8613 46.4328 40.3265 48.788C38.6388 56.2225 31.1372 55.608 25.4346 55.7432C19.3314 55.8878 14.2118 55.8362 8.22581 56.2495C6.093 56.3965 3.63957 56.3878 1.36021 56.3902C1.09232 53.8728 0.796178 51.3595 0.439072 48.8532Z" fill="white"/>
</mask>
<g mask="url(#mask0_1_2455)">
<path d="M26.5192 43.3994C26.8983 43.7293 27.2774 44.0592 27.6566 44.389C27.8108 44.5226 28.0065 44.6482 28.1223 44.8207C28.1869 44.9168 28.2499 45.0416 28.0772 44.9717C27.8861 44.8938 27.6981 44.8151 27.5003 44.7571C27.1094 44.6434 26.7037 44.5854 26.2974 44.5878C26.1498 44.5886 26.0008 44.5973 25.8603 44.645C25.7661 44.6768 25.6759 44.7261 25.5781 44.7443C25.4685 44.765 25.3547 44.7459 25.2497 44.7078C25.1088 44.6569 24.9787 44.5742 24.8711 44.4661C24.7953 44.3906 24.7307 44.3024 24.6493 44.2332C24.4581 44.0695 24.1995 44.0282 23.9535 44.0123C23.7076 43.9964 23.4545 43.9988 23.2255 43.9034C22.978 43.8008 22.7778 43.5846 22.6732 43.3279C22.5687 43.0703 22.5575 42.7747 22.6292 42.5052C22.6753 42.3319 22.7562 42.1666 22.8782 42.0402C23.1379 41.7715 23.539 41.7222 23.9013 41.7604C24.4176 41.8144 24.9177 42.0195 25.3363 42.3414C25.7574 42.665 26.117 43.0497 26.5192 43.3994Z" fill="#161111"/>
</g>
</svg>
