<svg width="30" height="90" viewBox="0 0 30 90" fill="none" xmlns="http://www.w3.org/2000/svg">
<path d="M22.3654 0.05896C15.3577 -0.740681 12.5338 6.75734 11.1785 12.6036C8.31533 24.9512 5.97191 37.4315 4.15276 49.996C3.24848 56.2461 2.23011 62.4787 1.48145 68.7518C0.707108 75.1728 0.296895 81.9387 0 88.3732C2.70907 89.3064 5.6176 89.4908 8.46416 89.5194C11.0388 89.5448 13.6156 89.4574 16.1827 89.5981C16.6669 89.1999 16.8021 88.471 16.8868 87.816C17.2547 84.9791 17.6233 82.1167 17.4209 79.2608C17.2093 76.2729 16.3738 73.3318 16.4849 70.3376C16.5937 67.4132 17.5977 64.62 18.2194 61.7672C19.4954 55.9082 19.2053 49.8569 19.8398 43.916C20.4691 38.0189 23.0422 34.1025 24.9452 28.8405C27.6936 21.2351 35.8238 1.59545 22.3654 0.05896Z" fill="#4AADB7"/>
</svg>
