<svg width="12" height="21" viewBox="0 0 12 21" fill="none" xmlns="http://www.w3.org/2000/svg">
<path d="M11.0886 2.81756C10.9889 1.98453 10.6406 1.18251 10.0302 0.651537C7.82807 -1.26251 5.72638 1.46072 4.94373 3.41451C2.75667 8.87448 0.296895 14.3798 0 20.42C0.804563 19.3906 1.60913 18.3621 2.41444 17.3335C2.82013 16.8145 3.22732 16.2938 3.56653 15.7247C4.07042 14.8805 4.34691 13.8043 4.94675 13.0428C5.42873 12.4299 5.88956 11.8036 6.3587 11.1566C6.71905 10.6598 7.18139 10.256 7.61729 9.83151C8.6145 8.85779 9.49309 7.74338 10.1715 6.50258C10.6746 5.58133 11.0712 4.56787 11.1151 3.50671C11.1249 3.277 11.1166 3.04648 11.0886 2.81756Z" fill="#DAEFED"/>
</svg>
