<svg width="9" height="15" viewBox="0 0 9 15" fill="none" xmlns="http://www.w3.org/2000/svg">
<path d="M6.39204 13.7176C6.30743 13.9664 6.19261 14.1977 6.01205 14.3789C5.50514 14.8916 4.68319 14.8209 4.01763 14.5832C3.26821 14.3169 2.67443 14.1015 1.90235 14.0467C1.2164 13.9974 0.488894 14.146 0.157247 13.3289C-0.0557919 12.8051 -0.00745561 12.1763 0.044671 11.5707C0.213894 9.59461 0.383124 7.6122 0.807692 5.63059C1.22395 3.68871 1.6576 2.02585 3.28108 0.807309C4.24202 0.0855657 5.5769 -0.318231 6.59375 0.313692C7.4104 0.82241 7.7919 1.85416 7.94828 2.839C8.2905 4.99469 7.82816 7.19171 7.36809 9.32276C7.09688 10.5794 6.82569 11.8369 6.55372 13.0928C6.50915 13.3011 6.46079 13.5149 6.39204 13.7176Z" fill="#007782"/>
</svg>
