<svg width="3" height="7" viewBox="0 0 3 7" fill="none" xmlns="http://www.w3.org/2000/svg">
<path d="M1.46436 6.43131C1.34122 6.54577 1.21052 6.64433 1.05263 6.68805C0.860748 6.37726 0.966511 5.75805 0.938559 5.39321C0.904563 4.95285 0.838082 4.49738 0.551764 4.15241C0.409737 3.98151 0.221633 3.84878 0.113602 3.65165C-0.0140706 3.41716 -0.00878313 3.131 0.0101033 2.86233C0.0773392 1.88623 0.271493 0.921256 0.585009 0C0.63638 0.664513 0.906079 1.28611 1.172 1.8918C1.42206 2.46172 1.67211 3.03085 1.92292 3.59998C2.10272 4.00934 2.32709 4.39167 2.54542 4.77956C2.79321 5.21992 2.58395 5.47269 2.21302 5.79223C2.08686 5.90113 1.94408 5.98777 1.8164 6.09508C1.69402 6.19761 1.58296 6.32162 1.46436 6.43131Z" fill="#161111"/>
</svg>
