<svg width="14" height="17" viewBox="0 0 14 17" fill="none" xmlns="http://www.w3.org/2000/svg">
<path d="M6.30302 9.38073C5.49106 10.1987 3.92998 11.1676 4.41158 12.5443C4.82656 13.7303 6.4004 14.177 6.7529 15.4846C6.82051 15.7357 6.8051 16.0632 6.58685 16.1872C6.48751 16.2445 6.3686 16.2445 6.25596 16.2413C4.96639 16.2103 2.33309 16.3128 1.28285 15.4234C0.355528 14.638 0.00151909 12.4919 8.17544e-06 11.3401C-0.00256038 8.85534 0.600447 6.10427 1.33717 3.76179C1.63686 2.80873 2.09897 0.680874 2.98732 0.131617C3.73583 -0.331793 5.26306 0.551319 5.96753 0.886755C7.89123 1.80245 9.76688 2.83019 11.583 3.96368C12.2972 4.4096 13.0605 4.95409 13.2629 5.80063C13.3556 6.18853 13.3156 6.5987 13.247 6.99216C13.0647 8.03504 12.621 9.51269 11.5918 9.92682C9.84681 10.6303 8.35999 8.12724 6.98498 8.78063C6.8261 8.85614 6.697 8.9849 6.57151 9.11208C6.48184 9.20031 6.3927 9.29012 6.30302 9.38073Z" fill="black"/>
</svg>
