<svg width="21" height="9" viewBox="0 0 21 9" fill="none" xmlns="http://www.w3.org/2000/svg">
<path d="M20.0151 0.395059C19.9561 0.392674 19.8957 0.398239 19.839 0.405392C17.8016 0.646239 15.2678 0.875154 13.3519 0C12.2731 1.58259 10.5703 2.57857 8.81993 3.21447C7.52205 3.68662 6.17733 3.98231 4.84697 4.33046C3.68281 4.6349 2.25047 4.7295 1.19207 5.33361C0.579397 5.68335 0.060381 6.30334 0.00447709 7.03542C-0.00987663 7.21824 0.00751127 7.41059 0.0974108 7.56797C0.2689 7.86605 0.63605 7.94792 0.963163 7.99959C6.73033 8.90892 12.6433 8.61641 18.449 8.35649C18.8743 8.33662 19.3677 8.27938 19.5966 7.90023C19.7235 7.68959 19.7348 7.4257 19.7416 7.17611C19.7892 5.51245 20.074 4.0801 20.2666 2.45935C20.3082 2.10166 20.5091 0.811583 20.2765 0.506352C20.2145 0.424481 20.1171 0.399033 20.0151 0.395059Z" fill="#161111"/>
</svg>
