<svg width="16" height="14" viewBox="0 0 16 14" fill="none" xmlns="http://www.w3.org/2000/svg">
<path d="M7.60973 10.4176C9.0859 11.509 10.0801 12.6091 11.8781 13.1226C12.6041 13.3292 13.3882 13.4008 14.1006 13.1472C15.57 12.6226 15.9107 10.943 15.0495 9.6601C14.3424 8.60769 13.1775 8.03061 12.1055 7.40743C11.2586 6.91461 9.91012 6.32163 9.43871 5.38766C9.02548 4.56894 8.85323 3.66518 8.25038 2.95218C7.74498 2.35443 7.28113 1.81869 7.0424 1.03812C6.95326 0.745609 6.86712 0.438001 6.66315 0.218616C6.45918 -0.000768235 6.09428 -0.0898043 5.87747 0.116068C4.6506 1.28214 7.71172 3.38459 5.67576 4.67944C5.25875 4.94492 4.75863 5.02123 4.27212 5.05382C2.8511 5.14841 1.42857 5.16669 0 5.18656C0.0581703 5.7708 0.346763 6.55851 0.710894 7.00364C1.38476 7.83031 2.34418 8.7603 3.3633 9.12673C3.49701 9.17522 3.63301 9.21338 3.76899 9.24121C5.18774 9.52656 6.34963 9.48602 7.60973 10.4176Z" fill="#D98C73"/>
</svg>
