<svg width="15" height="7" viewBox="0 0 15 7" fill="none" xmlns="http://www.w3.org/2000/svg">
<path d="M4.15729 2.53511C4.35597 2.5049 4.55466 2.47707 4.7541 2.45005C5.62968 2.33241 6.41837 2.47469 7.29924 2.27041C8.34252 2.02718 9.36617 1.69255 10.3702 1.30703C10.8567 1.12024 12.8942 -0.145197 13.3074 0.0137775C13.735 0.18706 14.1497 0.396106 14.5456 0.640132C14.5932 0.670337 14.6453 0.706112 14.6589 0.762548C14.7594 1.17827 13.2417 2.7855 12.9599 3.04939C12.1387 3.82121 11.1234 4.34264 10.1171 4.79254C8.95143 5.31398 7.74723 5.77739 6.48939 5.94431C4.33936 6.22888 2.16061 5.63034 0 5.8068C0.197175 5.11208 0.395102 4.41896 0.592277 3.72424C0.645914 3.53665 0.704087 3.34032 0.839314 3.20519C0.997961 3.04621 1.22989 3.00488 1.4467 2.9707C2.35023 2.82842 3.253 2.66865 4.15729 2.53511Z" fill="#DAEFED"/>
</svg>
