<svg width="17" height="15" viewBox="0 0 17 15" fill="none" xmlns="http://www.w3.org/2000/svg">
<path d="M16.5863 8.6835C16.1595 7.87909 15.1494 7.84173 14.3902 7.64301C13.6491 7.44985 13.0122 7.03969 12.4101 6.55244C12.5861 6.69551 13.714 4.37927 13.7556 4.1416C13.9361 3.13132 13.6695 2.0169 13.0152 1.24747C11.9689 0.017005 10.1468 -0.307306 8.6857 0.292822C7.09319 0.947797 5.90561 2.79667 6.28183 4.55175C5.10861 4.29898 3.9384 4.93091 2.9276 5.60655C2.34967 5.99206 1.76796 6.41811 1.41214 7.03175C1.116 7.54365 1.00118 8.14616 0.89088 8.73516C0.609094 10.2422 0.307664 11.7469 0.0447645 13.258C-0.212847 14.7444 0.673304 14.7754 1.88355 14.7754C2.7206 14.4582 3.24715 13.4607 3.75104 12.7532C4.28591 12.0037 4.83287 10.9974 5.77568 10.7772C6.56664 10.592 6.93984 11.4401 7.49132 11.832C8.23771 12.3622 9.28553 12.2509 10.0931 11.956C10.3575 11.8598 10.6159 11.7334 10.8931 11.6937C12.0981 11.5236 12.5045 12.8208 13.5237 13.0346C14.6191 13.2636 15.8308 12.1595 16.3899 11.2096C16.7585 10.5832 16.9489 9.36709 16.5863 8.6835Z" fill="#161111"/>
</svg>
