<svg width="25" height="25" viewBox="0 0 25 25" fill="none" xmlns="http://www.w3.org/2000/svg">
<path d="M14.7383 7.10324C16.2099 9.42188 17.603 11.824 19.4448 13.4924C20.6029 14.5416 21.9499 15.3484 23.0702 16.4438C24.1898 17.5391 25.0971 19.0462 24.9838 20.6502C24.8259 22.8958 22.6683 24.5236 20.5372 24.7398C14.2261 25.3813 10.0431 18.3833 7.71098 13.1641C7.01747 11.6118 6.40253 9.78991 5.41061 8.41716C4.58565 7.27573 4.11123 5.90616 3.3044 4.72498C3.20468 4.57872 3.09892 4.43167 2.95462 4.3339C2.592 4.08669 2.11456 4.22421 1.70434 4.36808C0.879381 4.659 0.451029 5.12321 0.120894 5.98723C0.248566 5.65259 0.000773333 4.79175 1.7874e-05 4.40464C-0.00149304 3.95475 0.0929432 3.63203 0.223638 3.21234C0.517511 2.26644 0.993456 1.57411 1.80708 1.03677C3.15633 0.144132 4.93392 -0.164275 6.49999 0.0813406C10.4042 0.691802 12.6494 3.81247 14.7383 7.10324Z" fill="#BAE1DF"/>
</svg>
