<svg width="37" height="36" viewBox="0 0 37 36" fill="none" xmlns="http://www.w3.org/2000/svg">
<path d="M0.835013 4.78825C1.14702 3.89322 1.7257 3.1063 2.34669 2.35594C3.18827 1.34089 4.28595 0.458583 5.58307 0.128711C6.8802 -0.201161 8.28232 0.0929446 9.17528 1.12787C9.87332 1.93705 10.6809 2.34958 10.8403 3.31932C11.4673 7.12835 11.5882 11.528 12.8544 15.0953C13.3628 16.5269 13.6227 17.6898 14.536 18.8805C15.6435 20.3224 16.9739 21.4949 18.4704 22.5266C19.5387 23.2627 20.5683 23.9001 21.7809 24.4478C26.5765 26.617 31.6691 27.7402 36.8258 28.6201C36.7216 31.4999 36.7412 32.8401 36.8243 35.7223C35.8755 35.6261 34.9198 35.5514 33.9687 35.4329C26.745 34.5339 19.8801 35.1889 13.5713 31.0635C8.64192 27.8403 5.10184 23.6052 2.25603 18.1993C0.0697309 14.0461 -0.771847 9.39533 0.835013 4.78825Z" fill="#E3AE3D"/>
</svg>
