<svg width="30" height="58" viewBox="0 0 30 58" fill="none" xmlns="http://www.w3.org/2000/svg">
<path d="M19.5649 5.21309C21.6439 1.72678 24.4784 -0.637963 29.0784 0.152934C29.6215 6.0954 27.9399 10.8956 24.7103 15.7642C23.2243 18.0042 22.4696 20.2521 21.2261 22.5715C17.8598 28.8534 14.1694 34.9349 10.4616 40.9982C8.56615 44.0974 6.66242 47.1919 4.7919 50.3085C3.89819 51.7965 2.94856 53.271 2.12889 54.8059C1.96873 55.1048 -0.00602983 57.7493 1.38434e-05 57.6603C0.678416 48.187 2.57083 39.0238 6.65182 30.4852C8.61752 26.3734 11.5177 23.0254 13.5952 19.1067C15.6599 15.2102 17.0666 9.40285 19.5649 5.21309Z" fill="#BAE1DF"/>
</svg>
