<svg width="37" height="33" viewBox="0 0 37 33" fill="none" xmlns="http://www.w3.org/2000/svg">
<path d="M15.3291 31.6703C13.1445 30.8913 11.0236 29.924 8.82315 29.1943C7.1863 28.6514 5.48946 28.2992 3.78855 28.0655C2.65279 27.909 1.32281 27.7643 0 27.8016C1.15676 25.6889 2.31359 23.5753 3.47043 21.4625C3.91713 20.647 4.36444 19.8299 4.8752 19.0565C5.77178 17.6988 6.85428 16.4906 7.9512 15.3078C11.0328 11.9845 14.2655 8.81533 17.6332 5.81549C19.5241 4.13036 21.3833 2.10662 23.5432 0.800648C25.4719 -0.364634 27.8621 -0.0236389 29.9525 0.368233C33.1315 0.963592 35.1259 2.85301 36.4124 5.98798C37.0493 7.53798 36.7577 9.57046 36.3913 11.1737C35.2853 16.0272 31.6863 17.5812 28.1568 20.2766C25.1312 22.5873 22.935 25.8709 20.674 29.0035C20.0454 29.8747 19.3134 31.2824 18.4491 31.9C17.3885 32.6591 16.5741 32.1138 15.3291 31.6703Z" fill="#E3AE3D"/>
</svg>
