<svg width="14" height="35" viewBox="0 0 14 35" fill="none" xmlns="http://www.w3.org/2000/svg">
<path d="M7.97274 3.79874C7.36687 2.60484 6.58195 1.53255 5.40872 0.725757C4.27327 -0.0556024 2.69964 -0.311542 1.57703 0.488894C0.523921 1.24005 0.139391 2.67876 0.0366488 4.01256C-0.111421 5.93774 0.181698 7.9273 1.05274 9.62753C1.74625 10.9828 2.77896 12.1139 3.52384 13.4381C4.14256 14.5398 4.55202 15.7544 5.0476 16.9229C6.26918 19.8043 8.43659 22.2072 9.59245 25.0496C10.814 28.0543 12.1565 31.1431 12.2819 34.4697C12.1754 31.6439 13.0184 28.8825 13.3176 26.0734C13.7422 22.0856 12.6853 18.352 12.0688 14.4731C11.7568 12.505 10.6833 10.8175 9.96715 9.00276C9.288 7.28266 8.79846 5.42664 7.97274 3.79874Z" fill="#BAE1DF"/>
</svg>
