<svg width="21" height="25" viewBox="0 0 21 25" fill="none" xmlns="http://www.w3.org/2000/svg">
<path d="M8.77065 0.673455C7.75984 0.616225 6.74073 0.64961 5.73975 0.49461C4.62092 0.321328 3.51644 -0.085644 2.3893 0.0160996C1.55149 0.0924073 0.607925 0.581255 0.236995 1.41587C-0.041014 2.04143 -0.182284 3.4881 0.435681 3.92925C0.630589 4.06835 0.870827 4.11366 1.10351 4.15579C1.52732 4.23289 1.95112 4.31079 2.37493 4.38789C3.02236 4.50554 3.53003 4.61523 3.85715 5.2082C4.17217 5.77892 4.1903 6.48159 4.60958 7.01336C5.1029 7.63733 5.93767 7.82969 6.52315 8.35669C7.35038 9.10069 7.45313 10.1507 7.64124 11.1825C7.90867 12.6474 8.33323 14.0432 8.48583 15.5391C8.61275 16.7768 8.64146 18.0478 9.063 19.2107C9.72554 21.0428 11.3022 22.3814 13.0284 23.1214C15.4073 24.1412 18.847 25.3359 20.0481 22.2781C21.4699 18.6566 20.6933 14.1942 18.1436 11.3383C17.5181 10.638 16.7762 9.99333 16.4604 9.09194C16.2429 8.47036 16.2535 7.78995 16.1568 7.13577C15.6975 4.031 12.4958 1.1162 9.59711 0.746586C9.32288 0.712406 9.04714 0.690148 8.77065 0.673455Z" fill="#161111"/>
</svg>
