<svg width="87" height="6" viewBox="0 0 87 6" fill="none" xmlns="http://www.w3.org/2000/svg">
<path d="M65.1402 0.193263C68.3864 0.256853 71.6327 0.335543 74.8781 0.429337C77.4195 0.502466 79.9692 0.586725 82.4795 1.0088C83.8152 1.23296 87.5169 2.56913 85.4734 4.08177C84.4082 4.87029 82.2605 4.80433 81.026 4.90289C77.9113 5.1493 74.7965 5.02212 71.6772 5.03643C65.237 5.06584 58.8012 4.8385 52.3609 4.81307C41.6598 4.77094 30.9588 5.22082 20.2547 5.1779C16.3497 5.1628 12.4417 5.11829 8.53904 4.94898C7.08705 4.88619 -0.89741 5.17075 0.0831752 2.05008C0.713228 0.0438258 7.53804 0.692455 9.22045 0.633635C27.8531 -0.0229295 46.5008 -0.168404 65.1402 0.193263Z" fill="#DAEFED"/>
</svg>
