<svg width="19" height="8" viewBox="0 0 19 8" fill="none" xmlns="http://www.w3.org/2000/svg">
<path d="M0.128806 2.99859C0.832138 1.07023 4.23473 1.91518 5.73658 2.17669C7.3865 2.46444 8.62922 2.17669 10.1417 1.38977C11.3451 0.762612 12.5689 0.0496049 13.9099 0.00111771C13.9711 -0.0012669 14.0353 -0.00205537 14.0919 0.0225857C14.2687 0.0980985 14.2816 0.377896 14.1652 0.53687C14.0496 0.696639 13.8578 0.768174 13.6802 0.841303C13.2481 1.02015 12.4571 1.41917 12.3272 1.95412C12.1602 2.6393 17.4923 1.57577 18.0687 2.01533C18.5544 2.38495 18.7365 3.06774 18.7199 3.69728C18.6761 5.41977 17.5089 6.52464 15.9829 6.80841C14.0285 7.17166 12.0076 7.53412 10.079 7.04448C8.99109 6.76787 8.12081 6.96976 7.02993 6.92287C5.77587 6.86961 4.52029 6.81238 3.27303 6.66215C2.4458 6.56279 1.58231 6.40381 0.929591 5.86012C0.38566 5.40704 0.0396673 4.7012 0.00416073 3.9731C-0.0147257 3.58838 0.0313522 3.26726 0.128806 2.99859Z" fill="#D98C73"/>
</svg>
