<svg width="44" height="57" viewBox="0 0 44 57" fill="none" xmlns="http://www.w3.org/2000/svg">
<path d="M0.00351013 41.3211C3.74394 41.4984 7.48444 41.6756 11.2249 41.8529C15.0068 42.0325 18.8866 42.5261 22.6516 42.7018C23.2095 42.728 23.7649 42.7471 24.3172 42.7575C22.7106 39.3832 21.1459 35.9868 19.6238 32.5696C18.1852 29.3408 16.7764 26.0683 15.9776 22.6027C14.9592 18.1864 14.9566 13.561 16.1564 9.18446C16.7589 6.98585 17.6442 4.88103 18.7385 2.90498C19.1151 2.22536 19.798 0.508435 20.4717 0.145974C21.2314 -0.263385 22.9364 0.304948 23.7613 0.432128C30.5198 1.47182 37.3617 2.53537 43.6584 5.3206C43.3834 5.19898 41.2304 7.8761 40.8489 8.26639C39.517 9.62959 38.4178 11.36 37.3307 12.9394C35.8447 15.0967 36.0782 17.3446 36.2421 19.9272C36.7052 27.1923 38.0401 34.3517 38.9089 41.5668C39.1982 43.9689 39.7391 48.3859 39.205 50.7404C37.5173 58.1748 20.755 56.4563 14.7645 56.128C6.68259 55.6853 2.47288 54.6718 0.775591 54.1249C0.25916 49.8787 -0.0359248 45.6095 0.00351013 41.3211Z" fill="#4AADB7"/>
</svg>
