<svg width="8" height="18" viewBox="0 0 8 18" fill="none" xmlns="http://www.w3.org/2000/svg">
<path d="M7.37485 15.664C7.27286 16.1687 7.11574 16.6766 6.74859 17.0073C6.33837 17.3761 5.75818 17.4397 5.21803 17.4429C2.86175 17.4564 1.13779 17.0717 0.932306 14.3906C0.726066 11.6983 0.21613 9.06653 0.0234876 6.3743C-0.0686783 5.07389 0.0937517 3.3228 0.809171 2.22667C1.34177 1.41193 2.03602 0.686999 2.898 0.293537C3.76074 -0.0999241 4.80404 -0.123782 5.61238 0.380962C6.71384 1.06932 7.13463 2.50965 7.38091 3.8339C8.09104 7.64929 8.10462 11.607 7.42093 15.4279C7.40582 15.5066 7.39071 15.5853 7.37485 15.664Z" fill="#007782"/>
</svg>
