<svg width="29" height="40" viewBox="0 0 29 40" fill="none" xmlns="http://www.w3.org/2000/svg">
<path d="M21.7899 21.5331C19.6402 17.9252 15.9248 15.7624 12.8018 13.0542C9.80163 10.4534 7.27281 7.25247 5.39056 3.67237C4.73376 2.42283 2.9099 -0.587346 1.2295 0.101013C-1.05084 1.03578 0.43284 7.40826 0.997926 8.98608C3.81415 16.8577 10.5624 22.0276 16.5489 27.129C18.1324 28.4787 19.7037 29.8451 21.2063 31.2942C21.9318 31.9937 22.6413 32.7114 23.3258 33.4546C23.958 34.1414 24.9125 34.9005 25.3075 35.7447C25.7081 36.6015 26.1087 37.4584 26.5093 38.3153C26.7901 38.9162 27.1262 39.5704 27.7266 39.7921C27.7794 39.8112 27.8404 39.8263 27.8885 39.7977C27.9285 39.7739 27.9489 39.7254 27.9649 39.6801C28.1596 39.1149 27.6749 38.2946 27.5069 37.7437C27.2717 36.9735 27.0488 36.1985 26.8306 35.4227C26.3782 33.8147 25.9479 32.2011 25.4766 30.5995C24.5503 27.4549 23.459 24.3343 21.7899 21.5331Z" fill="#239C96"/>
</svg>
