<svg width="9" height="4" viewBox="0 0 9 4" fill="none" xmlns="http://www.w3.org/2000/svg">
<path d="M4.97449 3.66985C5.42852 3.54824 5.8342 3.3829 6.11825 3.18577C6.49523 2.92346 6.78306 2.54273 7.04067 2.15086C7.41916 1.57378 7.74627 0.959344 8.01521 0.317883C7.17136 0.206601 6.30938 0.0968985 5.47687 0.280514C4.58014 0.479232 3.45376 1.18588 3.50286 2.28042C3.3563 1.50462 2.80255 0.874292 2.16797 0.451421C1.53263 0.0285488 0.731083 -0.106585 0.00206568 0.0857742C-0.0379736 1.13977 0.509731 2.12065 1.15112 2.93142C1.42384 3.27639 1.73433 3.61659 2.14001 3.7549C2.83428 3.99098 4.01204 3.92819 4.97449 3.66985Z" fill="#DAEFED"/>
</svg>
