<svg width="21" height="18" viewBox="0 0 21 18" fill="none" xmlns="http://www.w3.org/2000/svg">
<path d="M12.7593 3.13835C13.8517 3.65502 14.9116 4.22575 15.902 4.87516C18.877 6.82577 20.8239 10.4075 20.913 14.0941C20.9258 14.6338 20.8986 15.191 20.6826 15.6814C20.3351 16.4676 19.5562 16.9524 18.7652 17.1925C17.2513 17.6527 15.6067 17.3801 14.1403 16.7736C12.6732 16.1687 11.3466 15.2474 10.011 14.3691C7.3019 12.5878 3.58126 11.3049 1.47126 8.76367C0.440819 7.52208 -0.22926 5.84012 0.0729235 4.22255C0.28143 3.10655 0.918276 2.14 1.54077 1.2108C2.88171 -0.792281 5.09672 0.136917 7.02163 0.837994C8.90801 1.52476 10.882 2.25127 12.7593 3.13835Z" fill="#E3AE3D"/>
</svg>
