<svg width="52" height="25" viewBox="0 0 52 25" fill="none" xmlns="http://www.w3.org/2000/svg">
<path d="M50.8949 8.68032C51.503 4.35145 50.0692 -0.978956 45.0424 0.154531C41.8453 0.87548 40.0171 4.7306 37.6117 6.74084C34.7319 9.14691 31.1918 10.6921 27.5255 11.0546C22.6483 11.5363 17.8934 10.0292 13.2262 8.76299C9.12558 7.65097 1.16986 4.98814 0.0729328 11.8391C-0.328216 14.347 0.971929 16.8961 2.83111 18.5208C4.6903 20.1456 7.03599 21.0048 9.35298 21.7282C18.1563 24.4752 28.5144 25.879 37.3616 22.5985C42.2071 20.8021 47.3336 16.7809 49.8818 12.0212C50.3668 11.1158 50.7173 9.9402 50.8949 8.68032Z" fill="#E3AE3D"/>
</svg>
