<svg width="43" height="48" viewBox="0 0 43 48" fill="none" xmlns="http://www.w3.org/2000/svg">
<path d="M0.0440109 12.472C-0.0338768 11.6311 -0.00773788 10.7766 0.117291 9.95151C0.363192 8.33235 0.977454 6.71717 2.1358 5.62025C3.07801 4.72761 4.30087 4.24432 5.50892 3.83814C8.69953 2.76586 11.8407 2.51627 15.0779 1.94238C17.6827 1.48135 20.2936 1.04178 22.9218 0.756424C25.235 0.506039 27.5943 0.149947 29.9121 0.0863571C30.9198 0.0585366 31.9269 0.030713 32.9354 0.00368736C37.067 -0.109979 39.9483 2.41135 41.2681 6.58681C41.8861 8.5422 41.9669 10.6343 42.0092 12.6938C42.2487 24.229 41.4796 35.7872 39.7171 47.1754C39.668 47.4949 28.3309 45.8885 27.3918 45.4799C27.4598 40.229 27.66 34.9812 27.9939 29.743C28.0362 29.0737 28.6535 17.1006 28.5409 17.1141C22.8742 17.8025 13.1953 21.5789 7.52781 22.2665C4.48067 22.6361 5.10113 19.8238 2.66402 17.8637C1.08609 16.595 0.239221 14.5753 0.0440109 12.472Z" fill="#4AADB7"/>
</svg>
