<svg width="59" height="59" viewBox="0 0 59 59" fill="none" xmlns="http://www.w3.org/2000/svg">
<path fill-rule="evenodd" clip-rule="evenodd" d="M8.11331 36.0704C7.90335 36.0866 7.70721 36.1814 7.56412 36.3359C7.42103 36.4904 7.34154 36.6932 7.34154 36.9038C7.34154 37.1144 7.42103 37.3172 7.56412 37.4717C7.70721 37.6262 7.90335 37.721 8.11331 37.7372C19.9871 37.9093 40.8337 35.1387 45.3227 37.4913C45.4701 37.4913 45.716 37.983 45.9594 38.1059C44.2926 40.3873 38.4541 39.6276 35.4377 39.898C30.3366 40.3897 25.1619 40.0701 20.0338 40.316C13.5339 40.5839 8.16248 42.1523 2.86477 41.196C1.02594 40.8519 1.56677 38.7451 3.30727 38.4501C3.30727 38.4501 6.29907 37.688 6.32365 37.5897C6.35188 37.4581 6.34794 37.3217 6.31215 37.192C6.27635 37.0622 6.20977 36.9431 6.11806 36.8446C6.02635 36.7461 5.91222 36.6713 5.78538 36.6264C5.65853 36.5815 5.52272 36.5678 5.38948 36.5867C4.80194 36.5867 3.28269 36.8817 2.93852 36.9308C-0.495768 37.5675 -1.25539 42.0786 2.47144 42.9144C4.23836 43.2833 6.04053 43.4564 7.84536 43.4307C7.84536 43.674 5.39194 51.2285 4.80194 54.4907C4.01773 58.8567 10.1242 59.6163 11.7689 55.7666C12.4424 53.9999 13.0144 52.2012 13.4848 50.3705C14.1469 50.4689 14.809 50.4689 15.4711 50.3705C19.2128 50.8421 22.9894 50.9738 26.7549 50.7639C34.1126 50.3705 32.2738 50.7639 34.1126 50.5672C35.9515 50.3705 34.5797 48.9226 37.2028 55.7174C38.8228 59.5426 44.9293 58.8075 44.1451 54.417C43.6534 52.111 41.2492 43.379 40.7354 42.4719C42.0726 42.4614 43.4016 42.2627 44.6835 41.8819C46.9894 41.1715 49.4674 38.9147 48.4619 36.8546C45.9102 31.0923 23.5418 35.8492 8.11331 36.0704ZM9.36706 54.6874C8.97373 55.5945 7.52331 55.7666 7.64623 54.9332C9.07206 46.2258 9.34248 44.2886 9.61044 43.379C10.9109 43.379 12.2114 43.2315 13.4848 43.1086C12.4316 47.0748 11.056 50.9475 9.36706 54.6874ZM33.8889 48.7997C27.6841 48.2588 32.0501 47.5975 13.9986 48.7997C14.4411 46.9608 14.859 45.0483 15.2253 43.0373C22.5831 42.3982 26.9245 43.1848 33.9627 42.8161C34.356 44.9008 34.7739 46.8871 35.2631 48.7997C34.8206 48.8882 34.3659 48.8611 33.9381 48.7259L33.8889 48.7997ZM41.6401 54.9308C41.6401 55.7666 40.315 55.5699 39.9241 54.6849C38.1797 50.7953 36.7605 46.7679 35.6811 42.644H39.4571C39.3833 42.8161 39.3833 40.1906 41.6892 54.9332L41.6401 54.9308Z" fill="#020202"/>
<path fill-rule="evenodd" clip-rule="evenodd" d="M4.01773 35.6305C4.05654 35.8133 4.16468 35.974 4.31944 36.0788C4.4742 36.1836 4.66355 36.2244 4.84773 36.1926C5.03192 36.1608 5.19662 36.0588 5.30726 35.9082C5.41789 35.7575 5.46587 35.5699 5.44111 35.3846C5.28809 32.5796 5.35384 29.767 5.63777 26.9722C5.50893 23.7442 5.65697 20.5112 6.08027 17.3085C6.66781 14.8551 6.32365 15.3222 11.523 14.5601C15.9345 13.7365 20.405 13.2696 24.8914 13.1637C25.105 13.1522 25.3059 13.0592 25.453 12.9039C25.6 12.7487 25.682 12.543 25.682 12.3291C25.682 12.1153 25.6 11.9096 25.453 11.7544C25.3059 11.5991 25.105 11.5061 24.8914 11.4945H23.9081C24.0287 11.4249 24.1287 11.3245 24.1978 11.2035C24.2669 11.0826 24.3027 10.9455 24.3014 10.8062C24.4322 9.54266 24.3491 8.26613 24.0556 7.0302C22.4626 1.51125 17.1649 4.25966 17.9491 11.5191C16.452 11.5191 7.99286 12.1337 6.54244 12.527C3.03686 13.4563 3.62686 15.4672 3.35644 16.6693C2.87461 20.0864 2.87461 23.5527 3.35644 26.9697C3.36136 29.8739 3.58261 32.7608 4.02019 35.6305M21.4326 7.02775C22.9026 11.7625 22.7822 11.4183 23.001 11.5658H19.9625C20.0578 9.95221 20.5622 8.38987 21.4326 7.02775ZM44.7081 27.1197C44.6972 26.9318 44.6149 26.7551 44.478 26.6259C44.3411 26.4967 44.16 26.4248 43.9718 26.4248C43.7836 26.4248 43.6025 26.4967 43.4656 26.6259C43.3287 26.7551 43.2464 26.9318 43.2355 27.1197C42.7066 28.0815 42.4292 29.1614 42.4292 30.259C42.4292 31.3566 42.7066 32.4365 43.2355 33.3983C43.8255 34.77 45.0768 33.89 44.9785 33.3983C44.9293 29.6444 45.6914 30.9227 44.7081 27.1197Z" fill="#0C6FFF"/>
<path fill-rule="evenodd" clip-rule="evenodd" d="M58.6149 6.61471C57.8774 5.41013 56.6777 4.97009 53.4155 3.27875C45.0031 0.0657102 44.5852 -0.327623 43.973 0.188627C43.8968 0.26406 43.8364 0.353847 43.7951 0.452796C43.7538 0.551745 43.7326 0.657894 43.7326 0.765106C43.7326 0.872318 43.7538 0.978467 43.7951 1.07742C43.8364 1.17637 43.8968 1.26615 43.973 1.34159C46.7755 2.81659 49.6616 4.10803 52.6313 5.21592C52.8279 5.36342 56.2352 7.83896 56.4319 7.88813C56.6285 7.93729 47.7736 12.0599 47.309 12.2541C46.591 12.7821 45.7429 13.105 44.8556 13.1883C44.6343 13.1883 32.8368 9.0165 31.8067 8.28146C32.7163 7.81438 28.4708 10.4645 40.9321 2.56584C41.0866 2.46543 41.198 2.31079 41.2442 2.13237C41.2904 1.95396 41.2682 1.7647 41.1818 1.60187C41.0955 1.43905 40.9513 1.31445 40.7777 1.25263C40.604 1.1908 40.4136 1.19623 40.2437 1.26784L32.7384 5.04384C30.6046 6.02717 27.8341 7.34975 29.4271 9.18859C29.0546 12.6417 28.9641 16.1195 29.1567 19.5873C28.5141 19.7691 27.9307 20.1169 27.4653 20.5958C27 21.0747 26.669 21.6678 26.5057 22.3153C26.3425 22.9629 26.3527 23.642 26.5354 24.2843C26.7181 24.9266 27.0668 25.5094 27.5464 25.9741L27.5637 25.9888C29.5254 28.1472 33.5497 28.0022 34.3585 25.008C34.5322 24.4555 34.5896 23.8731 34.5271 23.2973C34.4646 22.7216 34.2835 22.165 33.9953 21.6627C33.7071 21.1604 33.318 20.7232 32.8525 20.3787C32.3869 20.0342 31.8551 19.7899 31.2905 19.6611C31.7649 16.7603 31.8657 13.8103 31.5855 10.8824C32.913 11.6174 35.2902 12.5 40.7354 14.6584C41.8884 15.0517 43.9239 16.571 45.4431 16.0572C49.9673 14.2242 54.3111 11.9742 58.4182 9.33608C58.7544 8.97184 58.957 8.50422 58.9927 8.00981C59.0284 7.5154 58.8952 7.02351 58.6149 6.61471ZM31.8067 21.7482C32.4705 22.557 32.2001 25.1309 31.0692 25.18C29.9433 25.2292 28.6183 23.2429 28.8887 22.2128C29.4049 20.3986 31.6347 21.5491 31.8067 21.7457" fill="#020202"/>
<path fill-rule="evenodd" clip-rule="evenodd" d="M53.4892 13.997C52.3363 13.997 52.6534 15.2237 52.3854 16.448C52.115 17.6772 50.6695 17.6526 49.0495 18.3876C47.4319 19.1251 45.7627 20.2756 44.2902 20.8386C41.8449 20.2566 39.4628 19.4357 37.1782 18.3876C36.834 16.6692 37.1782 15.7375 36.1727 15.7375C36.0759 15.7375 35.98 15.7566 35.8905 15.7937C35.801 15.8307 35.7197 15.8851 35.6512 15.9535C35.5828 16.022 35.5284 16.1033 35.4914 16.1928C35.4543 16.2823 35.4352 16.3782 35.4352 16.475V18.926C35.4446 19.2227 35.5679 19.5044 35.7794 19.7127C37.0577 21.0107 43.1397 24.1991 44.7081 23.7837C46.6684 23.0543 48.5049 22.0278 50.1533 20.7402C51.4021 20.1994 52.5477 19.4447 53.5384 18.5105C54.3497 17.478 54.1776 16.5463 54.2022 15.2237C54.277 15.0994 54.317 14.9572 54.3182 14.8121C54.3193 14.6669 54.2815 14.5242 54.2087 14.3986C54.1359 14.2731 54.0307 14.1694 53.9042 14.0983C53.7776 14.0272 53.6343 13.9939 53.4892 13.997Z" fill="#020202"/>
</svg>
