<svg width="72" height="72" viewBox="0 0 72 72" fill="none" xmlns="http://www.w3.org/2000/svg">
<path d="M36 51.75C35.6083 51.75 35.2235 51.6477 34.8834 51.4533L15.1875 40.1963C15.0164 40.0974 14.8222 40.0455 14.6246 40.0455C14.427 40.0456 14.2329 40.0977 14.0618 40.1967C13.8907 40.2956 13.7487 40.4379 13.6501 40.6091C13.5515 40.7804 13.4997 40.9746 13.5 41.1722V51.75C13.4997 52.1516 13.6068 52.5459 13.8103 52.8921C14.0138 53.2383 14.3063 53.5237 14.6573 53.7188L34.9073 64.9688C35.2416 65.1544 35.6176 65.2519 36 65.2519C36.3824 65.2519 36.7584 65.1544 37.0927 64.9688L57.3427 53.7188C57.6937 53.5237 57.9862 53.2383 58.1897 52.8921C58.3932 52.5459 58.5003 52.1516 58.5 51.75V41.1722C58.5003 40.9746 58.4485 40.7804 58.3499 40.6091C58.2513 40.4379 58.1093 40.2956 57.9382 40.1967C57.7672 40.0977 57.573 40.0456 57.3754 40.0455C57.1778 40.0455 56.9836 40.0974 56.8125 40.1963L37.1166 51.4533C36.7765 51.6477 36.3917 51.75 36 51.75Z" fill="#FFCD29"/>
<path d="M69.7387 26.7891V26.7736C69.7023 26.4169 69.5813 26.0742 69.3856 25.7738C69.1899 25.4734 68.9253 25.2241 68.6137 25.0467L37.1137 7.04672C36.7737 6.85236 36.3888 6.75012 35.9972 6.75012C35.6055 6.75012 35.2206 6.85236 34.8806 7.04672L3.3806 25.0467C3.03633 25.2436 2.7502 25.5279 2.55119 25.8709C2.35219 26.2139 2.24738 26.6034 2.24738 27C2.24738 27.3966 2.35219 27.7861 2.55119 28.1291C2.7502 28.4721 3.03633 28.7564 3.3806 28.9533L34.8806 46.9533C35.2206 47.1476 35.6055 47.2499 35.9972 47.2499C36.3888 47.2499 36.7737 47.1476 37.1137 46.9533L64.8281 31.1175C64.8709 31.0928 64.9195 31.0798 64.969 31.0798C65.0185 31.0799 65.067 31.093 65.1098 31.1178C65.1526 31.1426 65.1881 31.1783 65.2127 31.2212C65.2373 31.2641 65.2502 31.3127 65.25 31.3622V51.6867C65.25 52.8975 66.1809 53.9367 67.3917 53.9972C67.6959 54.0118 67.9999 53.9646 68.2854 53.8583C68.5708 53.7519 68.8316 53.5888 69.0521 53.3787C69.2726 53.1686 69.4482 52.9159 69.5681 52.6359C69.6881 52.356 69.7499 52.0546 69.75 51.75V27C69.7497 26.9295 69.746 26.8591 69.7387 26.7891Z" fill="#FFCD29"/>
</svg>
