<svg width="524" height="438" viewBox="0 0 524 438" fill="none" xmlns="http://www.w3.org/2000/svg">
<mask id="mask0_1_102" style="mask-type:luminance" maskUnits="userSpaceOnUse" x="0" y="0" width="524" height="438">
<path d="M524 0H0V437.95H524V0Z" fill="white"/>
</mask>
<g mask="url(#mask0_1_102)">
<rect x="-77.718" y="-2.46777" width="638.68" height="442.295" fill="#C4C4C4"/>
<path opacity="0.5" d="M523.815 -0.29541H6.10352e-05V438.237H523.815V-0.29541Z" fill="#00416B"/>
</g>
<path fill-rule="evenodd" clip-rule="evenodd" d="M258.039 167.308H265.979C266.492 167.47 267.017 167.595 267.549 167.681C277.898 168.715 287.692 172.79 295.661 179.375C303.63 185.96 309.406 194.753 312.239 204.612C313.289 208.322 313.739 212.189 314.462 215.986V222.877C314.297 223.448 314.168 224.028 314.074 224.615C312.977 234.727 308.852 244.29 302.223 252.087C295.595 259.884 286.761 265.563 276.847 268.401C273.318 269.418 269.604 269.905 265.979 270.634H258.039C257.529 270.472 257.007 270.347 256.478 270.261C246.245 269.239 236.549 265.253 228.614 258.807C220.679 252.361 214.861 243.744 211.894 234.043C210.817 230.419 210.324 226.631 209.556 222.92V214.231C209.72 213.732 209.856 213.224 209.962 212.71C213.323 191.343 225.444 177.083 246.06 169.932C249.888 168.524 254.034 168.133 258.039 167.308ZM212.82 218.732C212.785 225.105 214.029 231.423 216.479 237.322C218.929 243.221 222.538 248.585 227.099 253.107C231.66 257.628 237.082 261.217 243.055 263.669C249.027 266.121 255.433 267.386 261.903 267.393C288.844 267.393 311.216 245.67 311.18 219.532C311.18 192.212 289.32 170.488 261.921 170.497C248.926 170.513 236.467 175.595 227.266 184.634C218.065 193.673 212.871 205.932 212.82 218.732Z" fill="white"/>
<path fill-rule="evenodd" clip-rule="evenodd" d="M248.715 196.027L289.117 219.002L248.715 241.994V196.027Z" fill="white"/>
</svg>
