<svg width="75" height="75" viewBox="0 0 75 75" fill="none" xmlns="http://www.w3.org/2000/svg">
<path d="M69 21H51V15.036C51 10.7595 48.2385 6 43.9665 6H29.5785C25.302 6 22.5 10.7595 22.5 15.036V21H6C4.35 21 3 22.35 3 24V67.5C3 69.15 4.35 70.5 6 70.5H69C70.65 70.5 72 69.15 72 67.5V24C72 22.35 70.65 21 69 21ZM45 66H28.5V64.3995C28.5 64.365 29.4195 64.32 29.859 64.2675C30.2985 64.215 30.684 64.1265 31.0005 64.0035C31.563 63.792 32.193 63.489 32.4225 63.0945C32.652 62.7 33 62.175 33 61.5255V46.1805C33 45.5655 32.628 45.024 32.346 44.559C32.064 44.094 31.5975 43.719 31.176 43.4385C30.8595 43.227 30.6375 43.026 29.9955 42.8325C29.3535 42.639 28.5 42.5145 28.5 42.462V40.5375L40.7625 39.852L40.5 40.2465V61.182C40.5 61.797 40.974 62.3205 41.238 62.751C41.502 63.1815 42.051 63.5025 42.543 63.714C42.894 63.8715 43.2705 64.0125 43.6935 64.1355C44.1165 64.2585 45 64.3455 45 64.3995V66ZM30.9285 30.3585C30.9285 29.0225 31.4425 27.88 32.4705 26.931C34.0125 25.5075 34.725 25.5075 36.1485 25.5075C37.572 25.5075 38.7945 25.9815 39.813 26.931C40.8315 27.8805 41.343 29.0235 41.343 30.3585C41.343 31.6935 40.8285 32.832 39.801 33.7725C38.7735 34.713 37.5555 35.1825 36.1485 35.1825C34.7245 35.1825 33.4985 34.7125 32.4705 33.7725C30.9285 32.3625 30.9285 31.695 30.9285 30.3585ZM46.5 21H27V15.036C27 13.4355 28.62 10.5 30.2205 10.5H42.2985C43.896 10.5 46.5 13.4355 46.5 15.036V21Z" fill="#24BE88"/>
</svg>
