<svg width="41" height="42" viewBox="0 0 41 42" fill="none" xmlns="http://www.w3.org/2000/svg">
<rect width="41" height="42" rx="12" fill="#FC7C05" fill-opacity="0.26"/>
<path d="M25.0632 13.8052L18.5443 20.4831L15.9367 17.812C15.8264 17.6801 15.6907 17.5729 15.5381 17.4973C15.3855 17.4217 15.2193 17.3792 15.0499 17.3725C14.8805 17.3658 14.7116 17.395 14.5537 17.4584C14.3959 17.5217 14.2525 17.6178 14.1327 17.7406C14.0128 17.8634 13.919 18.0102 13.8572 18.1719C13.7953 18.3336 13.7668 18.5066 13.7733 18.6802C13.7799 18.8537 13.8214 19.024 13.8952 19.1803C13.969 19.3366 14.0736 19.4756 14.2024 19.5885L17.6833 23.1543C17.9124 23.3871 18.2216 23.5183 18.5443 23.5197C18.7061 23.5206 18.8666 23.4889 19.0165 23.4262C19.1663 23.3635 19.3026 23.2711 19.4176 23.1543L26.7976 15.5944C26.9128 15.4773 27.0043 15.3379 27.0668 15.1844C27.1292 15.0308 27.1614 14.8661 27.1614 14.6998C27.1614 14.5335 27.1292 14.3688 27.0668 14.2153C27.0043 14.0617 26.9128 13.9224 26.7976 13.8052C26.5671 13.5706 26.2554 13.4388 25.9304 13.4388C25.6055 13.4388 25.2937 13.5706 25.0632 13.8052ZM29.1099 8.3999H11.89C10.9113 8.3999 9.97274 8.79815 9.28073 9.50702C8.58872 10.2159 8.19995 11.1773 8.19995 12.1798V24.7797C8.19995 25.7822 8.58872 26.7436 9.28073 27.4525C9.97274 28.1614 10.9113 28.5596 11.89 28.5596H26.1456L30.6966 33.2342C30.8116 33.3509 30.9479 33.4433 31.0977 33.506C31.2476 33.5687 31.4081 33.6005 31.57 33.5995C31.7313 33.6038 31.8914 33.5693 32.0373 33.4988C32.262 33.4042 32.4543 33.2437 32.59 33.0374C32.7257 32.8311 32.7987 32.5883 32.7999 32.3396V12.1798C32.7999 11.1773 32.4112 10.2159 31.7192 9.50702C31.0272 8.79815 30.0886 8.3999 29.1099 8.3999ZM30.3399 29.303L27.5232 26.4051C27.4083 26.2883 27.272 26.1959 27.1222 26.1332C26.9723 26.0705 26.8118 26.0387 26.65 26.0397H11.89C11.5637 26.0397 11.2509 25.9069 11.0202 25.6706C10.7895 25.4343 10.66 25.1138 10.66 24.7797V12.1798C10.66 11.8457 10.7895 11.5252 11.0202 11.2889C11.2509 11.0526 11.5637 10.9199 11.89 10.9199H29.1099C29.4362 10.9199 29.749 11.0526 29.9797 11.2889C30.2104 11.5252 30.3399 11.8457 30.3399 12.1798V29.303Z" fill="#FC7C05"/>
</svg>
