<svg width="53" height="49" viewBox="0 0 53 49" fill="none" xmlns="http://www.w3.org/2000/svg">
<path d="M45.2675 7.67956C35.4463 -2.04995 18.9151 -2.60954 8.34389 6.42968C-2.22728 15.4689 -2.83528 30.684 6.98589 40.4135C16.8071 50.143 33.3383 50.7026 43.9095 41.6633C54.4807 32.6241 55.0887 17.4091 45.2675 7.67956ZM9.21432 38.508C0.536555 29.9112 1.07377 16.4675 10.4142 8.48068C19.7547 0.493835 34.3613 0.988276 43.0391 9.58504C51.7168 18.1818 51.1796 31.6255 41.8392 39.6123C32.4987 47.5992 17.8921 47.1047 9.21432 38.508Z" fill="#8B8B8B"/>
<path d="M37.9079 2.58364C33.6198 0.589742 28.8174 -0.277327 24.0286 0.077763C19.2398 0.432853 14.6502 1.99635 10.7642 4.59637C6.87819 7.19638 3.84637 10.7322 2.00202 14.8152C0.157678 18.8982 -0.427768 23.3701 0.310049 27.7394C1.04787 32.1087 3.08037 36.2062 6.18412 39.5814C9.28787 42.9565 13.3427 45.4787 17.9027 46.8706C22.4628 48.2624 27.3515 48.4701 32.0315 47.4707C36.7115 46.4714 41.0015 44.3037 44.4298 41.206L42.4044 39.3071C39.3554 42.0621 35.5402 43.9899 31.3781 44.8786C27.216 45.7674 22.8682 45.5827 18.8128 44.3449C14.7573 43.107 11.1512 40.864 8.39094 37.8623C5.63064 34.8606 3.82305 31.2166 3.16688 27.3308C2.51071 23.445 3.03137 19.4679 4.67162 15.8367C6.31188 12.2056 9.0082 9.06099 12.4642 6.74869C15.9201 4.43639 20.0019 3.04591 24.2608 2.73011C28.5196 2.41431 32.7906 3.18543 36.6042 4.95869L37.9079 2.58364Z" fill="#5E549B"/>
</svg>
