<svg width="472" height="429" viewBox="0 0 472 429" fill="none" xmlns="http://www.w3.org/2000/svg">
<mask id="mask0_1_3296" style="mask-type:luminance" maskUnits="userSpaceOnUse" x="0" y="0" width="472" height="429">
<path d="M471.118 0H0V428.934H471.118V0Z" fill="white"/>
</mask>
<g mask="url(#mask0_1_3296)">
<rect x="-69.875" y="-2.41699" width="574.225" height="433.189" fill="#C4C4C4"/>
<path opacity="0.5" d="M470.952 -0.289307H0V429.215H470.952V-0.289307Z" fill="#00416B"/>
</g>
<path fill-rule="evenodd" clip-rule="evenodd" d="M231.999 163.863H239.137C239.598 164.022 240.07 164.144 240.548 164.229C249.853 165.242 258.659 169.232 265.824 175.682C272.988 182.132 278.181 190.743 280.728 200.399C281.672 204.033 282.077 207.82 282.727 211.539V218.288C282.579 218.848 282.462 219.416 282.378 219.99C281.392 229.895 277.684 239.261 271.724 246.897C265.764 254.534 257.822 260.095 248.908 262.875C245.736 263.871 242.396 264.348 239.137 265.063H231.999C231.54 264.904 231.07 264.781 230.595 264.697C221.395 263.696 212.677 259.792 205.543 253.479C198.409 247.165 193.177 238.725 190.51 229.224C189.542 225.676 189.098 221.965 188.408 218.331V209.82C188.556 209.332 188.677 208.834 188.773 208.331C191.795 187.403 202.692 173.437 221.228 166.433C224.67 165.055 228.398 164.672 231.999 163.863ZM191.343 214.229C191.311 220.471 192.429 226.659 194.633 232.436C196.836 238.214 200.08 243.467 204.181 247.896C208.281 252.324 213.156 255.839 218.526 258.241C223.896 260.642 229.655 261.881 235.472 261.888C259.695 261.888 279.808 240.612 279.777 215.012C279.777 188.254 260.123 166.978 235.488 166.987C223.805 167.002 212.603 171.98 204.331 180.833C196.058 189.686 191.389 201.692 191.343 214.229Z" fill="white"/>
<path fill-rule="evenodd" clip-rule="evenodd" d="M223.615 191.991L259.94 214.493L223.615 237.012V191.991Z" fill="white"/>
</svg>
