<svg width="39" height="40" viewBox="0 0 39 40" fill="none" xmlns="http://www.w3.org/2000/svg">
<path d="M4.875 0H34.125V40H4.875V0ZM31.6875 37.5V2.5H7.3125V37.5H31.6875ZM19.5 10V12.5H9.75V10H19.5ZM19.5 20V22.5H9.75V20H19.5ZM19.5 30V32.5H9.75V30H19.5ZM28.8882 8.37891L24.375 13.0078L21.0806 9.62891L22.7944 7.87109L24.375 9.49219L27.1743 6.62109L28.8882 8.37891ZM28.8882 18.3789L24.375 23.0078L21.0806 19.6289L22.7944 17.8711L24.375 19.4922L27.1743 16.6211L28.8882 18.3789ZM28.8882 28.3789L24.375 33.0078L21.0806 29.6289L22.7944 27.8711L24.375 29.4922L27.1743 26.6211L28.8882 28.3789Z" fill="#FC7C05"/>
</svg>
