<svg width="68" height="68" viewBox="0 0 68 68" fill="none" xmlns="http://www.w3.org/2000/svg">
<path d="M27.625 59.0751C32.6683 57.0917 31.5633 51.6234 29.0133 48.1667C26.4917 44.6251 23.0067 42.1884 19.4933 39.8367C16.9861 38.2574 14.7477 36.2869 12.8633 34.0001C12.07 33.0651 10.455 31.3367 12.0983 30.9967C13.77 30.6567 16.66 32.3001 18.1333 32.9234C20.7117 34.0001 23.2617 35.2467 25.6417 36.7201L28.5033 31.9034C24.0833 28.9851 18.4167 26.4067 13.1467 25.6417C10.1433 25.1884 6.97002 25.8117 5.95002 29.0701C5.04335 31.8751 6.48835 34.7084 8.13168 36.9184C12.0133 42.1034 18.0483 44.5967 22.5533 49.0734C23.5167 50.0084 24.6783 51.1134 25.245 52.4167C25.84 53.6634 25.6983 53.7484 24.3667 53.7484C20.8533 53.7484 16.4617 51.0001 13.6 49.1867L10.7383 54.0034C15.0733 56.6667 22.3267 60.8317 27.625 59.0751ZM59.0467 14.8751C59.67 14.2517 59.67 13.2317 59.0467 12.6367L55.3633 8.9534C55.0673 8.66608 54.6709 8.50537 54.2583 8.50537C53.8458 8.50537 53.4494 8.66608 53.1533 8.9534L50.2633 11.8434L56.1567 17.7367M31.1667 30.9401V36.8334H37.06L54.485 19.4084L48.5917 13.5151L31.1667 30.9401Z" fill="#FC7C05"/>
</svg>
