<svg width="24" height="24" viewBox="0 0 24 24" fill="none" xmlns="http://www.w3.org/2000/svg">
<path fill-rule="evenodd" clip-rule="evenodd" d="M12.3149 2C14.7449 2 15.0989 2.013 16.1229 2.06C17.1869 2.109 17.9139 2.278 18.5499 2.525C19.2174 2.77587 19.8221 3.16936 20.3219 3.678C20.8305 4.17777 21.224 4.7825 21.4749 5.45C21.7219 6.086 21.7909 6.813 21.8389 7.877C21.8869 8.901 21.8989 9.255 21.8989 11.685C21.8989 14.115 21.8869 14.469 21.8389 15.493C21.7899 16.557 21.6209 17.284 21.3739 17.92C21.123 18.5875 20.7295 19.1922 20.2209 19.692C19.7211 20.2006 19.1164 20.5941 18.4489 20.845C17.8129 21.092 17.0859 21.161 16.0219 21.209C14.9979 21.257 14.6439 21.269 12.2139 21.269C9.78388 21.269 9.42988 21.257 8.40588 21.209C7.34188 21.16 6.61488 20.991 5.97888 20.744C5.31138 20.4931 4.70666 20.0996 4.20688 19.591C3.69824 19.0912 3.30476 18.4865 3.05388 17.819C2.80688 17.183 2.73788 16.456 2.68988 15.392C2.64188 14.368 2.62988 14.014 2.62988 11.584C2.62988 9.154 2.64188 8.8 2.68988 7.776C2.73888 6.712 2.90788 5.985 3.15488 5.349C3.40576 4.6815 3.79924 4.07677 4.30788 3.577C4.89418 3.07025 5.59227 2.70972 6.34488 2.525C6.98088 2.278 7.70788 2.209 8.77188 2.161C9.79288 2.013 10.1479 2 12.3149 2ZM11.1539 3.545C8.79888 3.545 8.48688 3.555 7.53688 3.601C6.43688 3.651 5.90388 3.821 5.40188 4.011C4.93207 4.20913 4.5125 4.50979 4.17388 4.891C3.83723 5.31544 3.60622 5.81379 3.49988 6.345C3.30988 6.847 3.13988 7.38 3.08988 8.48C3.04388 9.43 3.03388 9.742 3.03388 12.097C3.03388 14.452 3.04388 14.764 3.08988 15.714C3.13988 16.814 3.30988 17.347 3.49988 17.849C3.69801 18.3188 3.99868 18.7384 4.37988 19.077C4.7185 19.4582 5.13807 19.7589 5.60788 19.957C6.10988 20.147 6.64288 20.317 7.74288 20.367C8.69288 20.413 9.00488 20.423 11.3599 20.423C13.7149 20.423 14.0269 20.413 14.9769 20.367C16.0769 20.317 16.6099 20.147 17.1119 19.957C17.5817 19.7589 18.0013 19.4582 18.3399 19.077C18.7211 18.7384 19.0218 18.3188 19.2199 17.849C19.4099 17.347 19.5799 16.814 19.6299 15.714C19.6759 14.764 19.6859 14.452 19.6859 12.097C19.6859 9.742 19.6759 9.43 19.6299 8.48C19.5799 7.38 19.4099 6.847 19.2199 6.345C19.0218 5.87519 18.7211 5.45562 18.3399 5.117C18.0013 4.73579 17.5817 4.43513 17.1119 4.237C16.6099 4.047 16.0769 3.877 14.9769 3.827C14.0269 3.781 13.7149 3.771 11.3599 3.771L11.1539 3.545ZM11.9999 8.232C11.5051 8.232 11.0151 8.32946 10.5579 8.51882C10.1008 8.70818 9.6854 8.98573 9.3355 9.33562C8.98561 9.68551 8.70806 10.1009 8.5187 10.558C8.32934 11.0152 8.23188 11.5052 8.23188 12C8.23188 12.4948 8.32934 12.9848 8.5187 13.442C8.70806 13.8991 8.98561 14.3145 9.3355 14.6644C9.6854 15.0143 10.1008 15.2918 10.5579 15.4812C11.0151 15.6705 11.5051 15.768 11.9999 15.768C12.9992 15.768 13.9576 15.371 14.6643 14.6644C15.3709 13.9577 15.7679 12.9993 15.7679 12C15.7679 11.0007 15.3709 10.0423 14.6643 9.33562C13.9576 8.62898 12.9992 8.232 11.9999 8.232ZM11.9999 14.262C11.7028 14.262 11.4087 14.2035 11.1343 14.0898C10.8598 13.9761 10.6105 13.8095 10.4004 13.5995C10.1904 13.3894 10.0237 13.1401 9.91007 12.8656C9.79639 12.5912 9.73788 12.2971 9.73788 12C9.73788 11.7029 9.79639 11.4088 9.91007 11.1344C10.0237 10.8599 10.1904 10.6106 10.4004 10.4005C10.6105 10.1905 10.8598 10.0239 11.1343 9.91018C11.4087 9.79651 11.7028 9.738 11.9999 9.738C12.5998 9.738 13.1752 9.97632 13.5994 10.4005C14.0236 10.8247 14.2619 11.4001 14.2619 12C14.2619 12.5999 14.0236 13.1753 13.5994 13.5995C13.1752 14.0237 12.5998 14.262 11.9999 14.262ZM16.5359 6.345C16.2176 6.345 15.9124 6.47143 15.6874 6.69647C15.4623 6.92152 15.3359 7.22674 15.3359 7.545C15.3359 7.86326 15.4623 8.16848 15.6874 8.39353C15.9124 8.61857 16.2176 8.745 16.5359 8.745C16.8541 8.745 17.1594 8.61857 17.3844 8.39353C17.6095 8.16848 17.7359 7.86326 17.7359 7.545C17.7359 7.22674 17.6095 6.92152 17.3844 6.69647C17.1594 6.47143 16.8541 6.345 16.5359 6.345Z" fill="#9CA3AF"/>
</svg>
