<svg width="46" height="44" viewBox="0 0 46 44" fill="none" xmlns="http://www.w3.org/2000/svg">
<rect width="46" height="44" rx="12" fill="#FC7C05" fill-opacity="0.26"/>
<path d="M28.12 14.4628L20.806 21.4587L17.8804 18.6603C17.7567 18.5221 17.6044 18.4099 17.4332 18.3307C17.262 18.2514 17.0755 18.2069 16.8855 18.1999C16.6954 18.1929 16.5059 18.2235 16.3288 18.2899C16.1517 18.3562 15.9909 18.4569 15.8564 18.5855C15.7219 18.7142 15.6167 18.868 15.5473 19.0374C15.4779 19.2068 15.4459 19.3881 15.4533 19.5698C15.4606 19.7516 15.5071 19.93 15.59 20.0938C15.6728 20.2575 15.7901 20.4032 15.9346 20.5215L19.84 24.257C20.097 24.5009 20.444 24.6384 20.806 24.6398C20.9876 24.6408 21.1677 24.6075 21.3358 24.5418C21.5039 24.4762 21.6568 24.3794 21.7858 24.257L30.0658 16.3371C30.1951 16.2144 30.2978 16.0684 30.3679 15.9076C30.4379 15.7467 30.474 15.5742 30.474 15.4C30.474 15.2257 30.4379 15.0532 30.3679 14.8923C30.2978 14.7315 30.1951 14.5855 30.0658 14.4628C29.8072 14.2169 29.4575 14.0789 29.0929 14.0789C28.7283 14.0789 28.3786 14.2169 28.12 14.4628ZM32.6602 8.80005H13.3402C12.2422 8.80005 11.1892 9.21726 10.4128 9.95989C9.63637 10.7025 9.2002 11.7098 9.2002 12.76V25.9598C9.2002 27.0101 9.63637 28.0173 10.4128 28.7599C11.1892 29.5025 12.2422 29.9198 13.3402 29.9198H29.3344L34.4404 34.8169C34.5693 34.9392 34.7223 35.036 34.8904 35.1017C35.0585 35.1674 35.2386 35.2007 35.4202 35.1997C35.6012 35.2041 35.7808 35.168 35.9446 35.0941C36.1966 34.9951 36.4123 34.8269 36.5646 34.6108C36.7169 34.3947 36.7988 34.1403 36.8002 33.8797V12.76C36.8002 11.7098 36.364 10.7025 35.5876 9.95989C34.8112 9.21726 33.7582 8.80005 32.6602 8.80005ZM34.0402 30.6985L30.88 27.6626C30.751 27.5402 30.5981 27.4435 30.43 27.3778C30.2619 27.3121 30.0818 27.2788 29.9002 27.2798H13.3402C12.9742 27.2798 12.6232 27.1407 12.3644 26.8932C12.1056 26.6456 11.9602 26.3099 11.9602 25.9598V12.76C11.9602 12.4099 12.1056 12.0742 12.3644 11.8266C12.6232 11.5791 12.9742 11.44 13.3402 11.44H32.6602C33.0262 11.44 33.3772 11.5791 33.636 11.8266C33.8948 12.0742 34.0402 12.4099 34.0402 12.76V30.6985Z" fill="#FC7C05"/>
</svg>
