<svg width="55" height="55" viewBox="0 0 55 55" fill="none" xmlns="http://www.w3.org/2000/svg">
<path d="M47.6469 8.68846C37.3095 -2.31926 19.9093 -2.95236 8.78247 7.27438C-2.34435 17.5011 -2.98431 34.7151 7.35309 45.7228C17.6905 56.7305 35.0907 57.3636 46.2175 47.1369C57.3443 36.9101 57.9843 19.6962 47.6469 8.68846ZM9.69865 43.567C0.564758 33.8408 1.13021 18.631 10.9616 9.59483C20.793 0.558713 36.1674 1.11811 45.3013 10.8443C54.4352 20.5705 53.8698 35.7803 44.0384 44.8164C34.207 53.8525 18.8325 53.2931 9.69865 43.567Z" fill="#8B8B8B"/>
<path d="M39.9005 2.92307C35.387 0.66722 30.3321 -0.31376 25.2916 0.0879791C20.2511 0.489719 15.4202 2.25862 11.33 5.20021C7.23973 8.14181 4.04855 12.1422 2.10726 16.7615C0.165966 21.3809 -0.450252 26.4404 0.326346 31.3837C1.10294 36.327 3.24229 40.9628 6.50918 44.7814C9.77607 48.6 14.044 51.4535 18.8438 53.0282C23.6435 54.6029 28.7892 54.8379 33.7152 53.7072C38.6412 52.5766 43.1566 50.1241 46.7652 46.6194L44.6333 44.4711C41.4241 47.588 37.4083 49.769 33.0274 50.7746C28.6466 51.7801 24.0703 51.5712 19.8016 50.1707C15.533 48.7702 11.7374 46.2325 8.83199 42.8365C5.92661 39.4405 4.024 35.3177 3.33334 30.9214C2.64268 26.525 3.19071 22.0255 4.91718 17.9173C6.64365 13.8091 9.4817 10.2514 13.1193 7.6353C16.757 5.01922 21.0533 3.44606 25.536 3.08878C30.0187 2.73149 34.5142 3.60392 38.5283 5.61014L39.9005 2.92307Z" fill="#5E549B"/>
</svg>
