<svg width="40" height="40" viewBox="0 0 40 40" fill="none" xmlns="http://www.w3.org/2000/svg">
<g clip-path="url(#clip0_142_245)">
<path d="M39.6289 28.3789L28.75 39.2773L23.4961 34.0039L25.2539 32.2461L28.75 35.7227L37.8711 26.6211L39.6289 28.3789ZM20 7.5V17.5H27.5V20H17.5V7.5H20ZM18.75 35C18.9583 35 19.1667 34.9935 19.375 34.9805C19.5833 34.9674 19.7917 34.9544 20 34.9414L22.2266 37.168C21.6406 37.2721 21.0612 37.3503 20.4883 37.4023C19.9154 37.4544 19.3359 37.487 18.75 37.5C17.0312 37.5 15.3776 37.2786 13.7891 36.8359C12.2005 36.3932 10.7031 35.7617 9.29688 34.9414C7.89062 34.1211 6.6276 33.1445 5.50781 32.0117C4.38802 30.8789 3.41146 29.6094 2.57812 28.2031C1.74479 26.7969 1.11328 25.306 0.683594 23.7305C0.253906 22.1549 0.0260417 20.4948 0 18.75C0 17.0312 0.221354 15.3776 0.664062 13.7891C1.10677 12.2005 1.73828 10.7031 2.55859 9.29688C3.37891 7.89062 4.35547 6.6276 5.48828 5.50781C6.62109 4.38802 7.89062 3.41146 9.29688 2.57812C10.7031 1.74479 12.194 1.11328 13.7695 0.683594C15.3451 0.253906 17.0052 0.0260417 18.75 0C20.4688 0 22.1224 0.221354 23.7109 0.664062C25.2995 1.10677 26.7969 1.73828 28.2031 2.55859C29.6094 3.37891 30.8724 4.35547 31.9922 5.48828C33.112 6.62109 34.0885 7.89062 34.9219 9.29688C35.7552 10.7031 36.3867 12.194 36.8164 13.7695C37.2461 15.3451 37.474 17.0052 37.5 18.75C37.5 19.401 37.4609 20.0586 37.3828 20.7227L34.1016 24.0234C34.7005 22.2917 35 20.5339 35 18.75C35 17.2526 34.8047 15.8138 34.4141 14.4336C34.0234 13.0534 33.4766 11.7643 32.7734 10.5664C32.0703 9.36849 31.224 8.26823 30.2344 7.26562C29.2448 6.26302 28.151 5.41667 26.9531 4.72656C25.7552 4.03646 24.4596 3.48958 23.0664 3.08594C21.6732 2.68229 20.2344 2.48698 18.75 2.5C17.2526 2.5 15.8138 2.69531 14.4336 3.08594C13.0534 3.47656 11.7643 4.02344 10.5664 4.72656C9.36849 5.42969 8.26823 6.27604 7.26562 7.26562C6.26302 8.25521 5.41667 9.34896 4.72656 10.5469C4.03646 11.7448 3.48958 13.0404 3.08594 14.4336C2.68229 15.8268 2.48698 17.2656 2.5 18.75C2.5 20.2474 2.69531 21.6862 3.08594 23.0664C3.47656 24.4466 4.02344 25.7357 4.72656 26.9336C5.42969 28.1315 6.27604 29.2318 7.26562 30.2344C8.25521 31.237 9.34896 32.0833 10.5469 32.7734C11.7448 33.4635 13.0404 34.0104 14.4336 34.4141C15.8268 34.8177 17.2656 35.013 18.75 35Z" fill="#FC7C05"/>
</g>
<defs>
<clipPath id="clip0_142_245">
<rect width="40" height="40" fill="white"/>
</clipPath>
</defs>
</svg>
