<svg width="493" height="428" viewBox="0 0 493 428" fill="none" xmlns="http://www.w3.org/2000/svg">
<mask id="mask0_1_1880" style="mask-type:luminance" maskUnits="userSpaceOnUse" x="0" y="0" width="493" height="428">
<path d="M492.068 0H0V428H492.068V0Z" fill="white"/>
</mask>
<g mask="url(#mask0_1_1880)">
<rect x="-72.9819" y="-2.41162" width="599.759" height="432.246" fill="#C4C4C4"/>
<path opacity="0.5" d="M491.894 -0.288574H0V428.28H491.894V-0.288574Z" fill="#00416B"/>
</g>
<path fill-rule="evenodd" clip-rule="evenodd" d="M242.314 163.506H249.77C250.252 163.665 250.745 163.787 251.244 163.871C260.963 164.882 270.16 168.864 277.644 175.299C285.127 181.735 290.551 190.328 293.211 199.963C294.197 203.589 294.619 207.368 295.299 211.079V217.813C295.144 218.371 295.022 218.938 294.934 219.511C293.904 229.394 290.031 238.74 283.806 246.36C277.581 253.98 269.286 259.529 259.976 262.303C256.662 263.297 253.175 263.772 249.77 264.486H242.314C241.835 264.327 241.345 264.205 240.848 264.12C231.239 263.121 222.134 259.226 214.682 252.927C207.231 246.627 201.767 238.206 198.981 228.725C197.97 225.184 197.506 221.482 196.786 217.856V209.363C196.94 208.876 197.067 208.38 197.167 207.877C200.323 186.995 211.705 173.06 231.065 166.071C234.66 164.695 238.553 164.313 242.314 163.506ZM199.851 213.762C199.818 219.991 200.986 226.165 203.287 231.93C205.588 237.695 208.977 242.937 213.26 247.356C217.542 251.775 222.634 255.282 228.243 257.678C233.851 260.074 239.866 261.311 245.943 261.318C271.242 261.318 292.25 240.088 292.217 214.544C292.217 187.845 271.689 166.615 245.959 166.623C233.757 166.639 222.056 171.606 213.416 180.439C204.776 189.273 199.899 201.253 199.851 213.762Z" fill="white"/>
<path fill-rule="evenodd" clip-rule="evenodd" d="M233.558 191.573L271.499 214.026L233.558 236.496V191.573Z" fill="white"/>
</svg>
