<svg width="35" height="37" viewBox="0 0 35 37" fill="none" xmlns="http://www.w3.org/2000/svg">
<rect width="35" height="37" rx="12" fill="#FC7C05" fill-opacity="0.26"/>
<path d="M21.3955 12.1617L15.8305 18.0447L13.6045 15.6915C13.5104 15.5753 13.3945 15.4809 13.2643 15.4143C13.134 15.3477 12.9921 15.3102 12.8475 15.3043C12.7029 15.2984 12.5587 15.3242 12.424 15.38C12.2892 15.4358 12.1668 15.5204 12.0645 15.6286C11.9622 15.7368 11.8821 15.8661 11.8293 16.0086C11.7765 16.151 11.7522 16.3035 11.7578 16.4563C11.7633 16.6092 11.7988 16.7592 11.8618 16.8969C11.9248 17.0346 12.0141 17.1571 12.124 17.2566L15.0955 20.3978C15.2911 20.6029 15.555 20.7185 15.8305 20.7197C15.9687 20.7206 16.1057 20.6926 16.2336 20.6373C16.3615 20.5821 16.4779 20.5007 16.576 20.3978L22.876 13.7379C22.9744 13.6347 23.0525 13.512 23.1058 13.3767C23.1591 13.2414 23.1866 13.0964 23.1866 12.9498C23.1866 12.8033 23.1591 12.6582 23.1058 12.523C23.0525 12.3877 22.9744 12.2649 22.876 12.1617C22.6793 11.955 22.4131 11.839 22.1357 11.839C21.8584 11.839 21.5922 11.955 21.3955 12.1617ZM24.85 7.3999H10.15C9.31457 7.3999 8.51335 7.75074 7.92261 8.37522C7.33187 8.99971 7 9.8467 7 10.7299V21.8297C7 22.7129 7.33187 23.5598 7.92261 24.1843C8.51335 24.8088 9.31457 25.1597 10.15 25.1597H22.3195L26.2045 29.2777C26.3026 29.3806 26.419 29.462 26.5469 29.5172C26.6748 29.5724 26.8118 29.6004 26.95 29.5996C27.0877 29.6033 27.2244 29.5729 27.349 29.5108C27.5407 29.4275 27.7049 29.2861 27.8207 29.1044C27.9366 28.9227 27.999 28.7087 28 28.4896V10.7299C28 9.8467 27.6681 8.99971 27.0774 8.37522C26.4866 7.75074 25.6854 7.3999 24.85 7.3999ZM25.9 25.8145L23.4955 23.2616C23.3974 23.1587 23.281 23.0773 23.1531 23.0221C23.0252 22.9668 22.8882 22.9388 22.75 22.9397H10.15C9.87152 22.9397 9.60445 22.8227 9.40754 22.6146C9.21062 22.4064 9.1 22.1241 9.1 21.8297V10.7299C9.1 10.4355 9.21062 10.1531 9.40754 9.94498C9.60445 9.73682 9.87152 9.61987 10.15 9.61987H24.85C25.1285 9.61987 25.3955 9.73682 25.5925 9.94498C25.7894 10.1531 25.9 10.4355 25.9 10.7299V25.8145Z" fill="#FC7C05"/>
</svg>
