<svg width="53" height="31" viewBox="0 0 53 31" fill="none" xmlns="http://www.w3.org/2000/svg">
<path d="M48.5833 0H19.875C17.4458 0 15.4583 2.14615 15.4583 4.76923V26.2308C15.4583 27.4956 15.9237 28.7087 16.7519 29.6031C17.5802 30.4975 18.7036 31 19.875 31H48.5833C51.0346 31 53 28.8777 53 26.2308V4.76923C53 3.50435 52.5347 2.29128 51.7064 1.39688C50.8781 0.502471 49.7547 0 48.5833 0ZM48.5833 8.75154L34.2292 16.6923L19.875 8.75154V4.76923L34.2292 12.6623L48.5833 4.76923V8.75154ZM11.0417 26.2308C11.0417 26.6362 11.1079 27.0177 11.1521 27.4231H2.20833C0.989333 27.4231 0 26.35 0 25.0385C0 23.7269 0.989333 22.6538 2.20833 22.6538H11.0417V26.2308ZM6.625 3.57692H11.1521C11.1079 3.98231 11.0417 4.36385 11.0417 4.76923V8.34615H6.625C5.41042 8.34615 4.41667 7.27308 4.41667 5.96154C4.41667 4.65 5.41042 3.57692 6.625 3.57692ZM2.20833 15.5C2.20833 14.1885 3.20208 13.1154 4.41667 13.1154H11.0417V17.8846H4.41667C3.20208 17.8846 2.20833 16.8115 2.20833 15.5Z" fill="#FC7C05"/>
</svg>
