<svg width="40" height="44" viewBox="0 0 40 44" fill="none" xmlns="http://www.w3.org/2000/svg">
<path d="M0 6.5H11.946C12.6702 6.50011 13.3832 6.32416 14.0218 5.98778C14.6604 5.65139 15.2049 5.16497 15.6068 4.57167L17.3932 1.92833C17.7951 1.33503 18.3396 0.848607 18.9782 0.512222C19.6168 0.175838 20.3298 -0.000106606 21.054 1.25708e-07H30.9276C31.8514 -0.000218966 32.7519 0.285953 33.5014 0.817949C34.2508 1.34995 34.8113 2.10077 35.1032 2.964L36.3 6.5M39.6 6.5H11" stroke="black" stroke-width="1.5" stroke-linecap="round"/>
<path d="M36.3 6.5L35.2 20.5833M3.30005 6.5L4.63105 29.328C4.96985 34.8963 5.14145 37.6827 6.55385 39.6847C7.25125 40.677 8.15105 41.5112 9.19385 42.1395C10.4742 42.9108 12.0186 43.2142 14.3 43.3333" stroke="black" stroke-width="1.5" stroke-linecap="round"/>
<path d="M17.6001 29.2458L20.0993 32.4221C20.5532 30.7532 21.5033 29.2561 22.8275 28.1229C24.1517 26.9896 25.7895 26.272 27.5308 26.0622C29.2721 25.8524 31.0374 26.1599 32.5999 26.9453C34.1625 27.7307 35.451 28.9581 36.3001 30.4699M39.6001 40.0791L37.1009 36.9071C36.6506 38.5629 35.7118 40.0501 34.4032 41.1804C33.0947 42.3108 31.4751 43.0336 29.7494 43.2574C28.0237 43.4812 26.2694 43.196 24.7083 42.4378C23.1472 41.6796 21.8495 40.4825 20.9793 38.9979" stroke="black" stroke-width="1.5" stroke-linecap="round" stroke-linejoin="round"/>
</svg>
