<svg width="75" height="75" viewBox="0 0 75 75" fill="none" xmlns="http://www.w3.org/2000/svg">
<path fill-rule="evenodd" clip-rule="evenodd" d="M31.9328 9.5375L28.6453 6.25L26.6094 8.28594L29.6625 11.3391L11.3391 29.6625L8.28594 26.6094L6.25 28.6453L9.5375 31.9328C12.2183 34.6136 15.4882 36.6311 19.0867 37.8247C22.6851 39.0183 26.5125 39.3549 30.2641 38.8078C30.4984 37.7703 30.7953 36.7432 31.1547 35.7266C28.0062 36.3875 24.7797 36.3234 21.7078 35.5828L35.5828 21.7078C36.6283 26.0185 36.3089 30.5475 34.6687 34.6687L34.6594 34.6922C34.5896 34.863 34.5187 35.0333 34.4469 35.2031C33.8422 36.9063 34.0141 36.4578 34.0141 36.4578L33.8984 36.7828L25 45.6797L39.1 59.7797C41.8426 62.5214 45.5618 64.0617 49.4398 64.0617C53.3179 64.0617 57.0371 62.5214 59.7797 59.7797C62.5214 57.0371 64.0617 53.3179 64.0617 49.4398C64.0617 45.5618 62.5214 41.8426 59.7797 39.1L45.6797 25L38.4344 32.2453C39.3671 28.2196 39.2596 24.0227 38.1222 20.05C36.9848 16.0773 34.8547 12.4596 31.9328 9.5375ZM18.6297 34.5875L34.5891 18.6297C33.8348 16.7828 32.8261 15.0504 31.5922 13.4828L13.4828 31.5922C15.0505 32.8256 16.7829 33.8337 18.6297 34.5875ZM35.4891 44.2172L43.7234 52.6078C45.1484 54.0578 46.7672 54.7516 48.2984 54.7906C49.8172 54.8297 51.4 54.2297 52.7906 52.8109L55.0219 55C53.0781 56.9813 50.6781 57.9781 48.2188 57.9141C45.7672 57.8516 43.4062 56.7422 41.4953 54.7969L33.2609 46.4062L35.4891 44.2172Z" fill="#FF210D"/>
</svg>
