<svg width="68" height="68" viewBox="0 0 68 68" fill="none" xmlns="http://www.w3.org/2000/svg">
<path d="M50.9999 52.4168C52.1271 52.4168 53.2081 51.9691 54.0051 51.172C54.8021 50.375 55.2499 49.294 55.2499 48.1668C55.2499 47.0397 54.8021 45.9587 54.0051 45.1616C53.2081 44.3646 52.1271 43.9168 50.9999 43.9168C49.8727 43.9168 48.7917 44.3646 47.9947 45.1616C47.1977 45.9587 46.7499 47.0397 46.7499 48.1668C46.7499 49.294 47.1977 50.375 47.9947 51.172C48.7917 51.9691 49.8727 52.4168 50.9999 52.4168ZM55.2499 26.9168H48.1666V34.0002H60.8032L55.2499 26.9168ZM16.9999 52.4168C18.1271 52.4168 19.2081 51.9691 20.0051 51.172C20.8022 50.375 21.2499 49.294 21.2499 48.1668C21.2499 47.0397 20.8022 45.9587 20.0051 45.1616C19.2081 44.3646 18.1271 43.9168 16.9999 43.9168C15.8727 43.9168 14.7917 44.3646 13.9947 45.1616C13.1977 45.9587 12.7499 47.0397 12.7499 48.1668C12.7499 49.294 13.1977 50.375 13.9947 51.172C14.7917 51.9691 15.8727 52.4168 16.9999 52.4168ZM56.6666 22.6668L65.1666 34.0002V48.1668H59.4999C59.4999 50.4212 58.6044 52.5832 57.0103 54.1772C55.4163 55.7713 53.2543 56.6668 50.9999 56.6668C48.7456 56.6668 46.5836 55.7713 44.9895 54.1772C43.3955 52.5832 42.4999 50.4212 42.4999 48.1668H25.4999C25.4999 50.4212 24.6044 52.5832 23.0103 54.1772C21.4163 55.7713 19.2543 56.6668 16.9999 56.6668C14.7456 56.6668 12.5836 55.7713 10.9895 54.1772C9.39545 52.5832 8.49992 50.4212 8.49992 48.1668H2.83325V17.0002C2.83325 13.8552 5.35492 11.3335 8.49992 11.3335H48.1666V22.6668H56.6666ZM22.6666 17.0002V25.5002H14.1666V31.1668H22.6666V39.6668H28.3333V31.1668H36.8333V25.5002H28.3333V17.0002H22.6666Z" fill="#0B0B0B"/>
</svg>
