<svg width="448" height="411" viewBox="0 0 448 411" fill="none" xmlns="http://www.w3.org/2000/svg">
<mask id="mask0_1_926" style="mask-type:luminance" maskUnits="userSpaceOnUse" x="0" y="0" width="448" height="411">
<path d="M447.046 0H0V410.6H447.046V0Z" fill="white"/>
</mask>
<g mask="url(#mask0_1_926)">
<rect x="-66.3042" y="-2.3136" width="544.884" height="414.673" fill="#C4C4C4"/>
<path opacity="0.5" d="M446.888 -0.276978H0V410.868H446.888V-0.276978Z" fill="#00416B"/>
</g>
<path fill-rule="evenodd" clip-rule="evenodd" d="M220.144 156.859H226.917C227.355 157.011 227.803 157.128 228.257 157.209C237.086 158.179 245.442 161.998 252.241 168.173C259.039 174.347 263.967 182.59 266.384 191.833C267.279 195.312 267.663 198.937 268.28 202.497V208.958C268.14 209.493 268.029 210.037 267.949 210.587C267.014 220.068 263.495 229.034 257.839 236.344C252.184 243.654 244.648 248.978 236.189 251.639C233.179 252.592 230.01 253.048 226.917 253.733H220.144C219.708 253.581 219.263 253.463 218.812 253.382C210.082 252.424 201.81 248.687 195.04 242.644C188.27 236.6 183.306 228.521 180.775 219.426C179.857 216.029 179.436 212.477 178.781 208.999V200.852C178.921 200.384 179.036 199.908 179.127 199.426C181.994 179.393 192.335 166.024 209.923 159.319C213.19 157.999 216.727 157.633 220.144 156.859ZM181.565 205.072C181.536 211.047 182.596 216.97 184.687 222.501C186.778 228.031 189.857 233.061 193.747 237.3C197.638 241.539 202.264 244.904 207.36 247.202C212.455 249.501 217.92 250.688 223.44 250.694C246.425 250.694 265.511 230.327 265.481 205.821C265.481 180.208 246.831 159.841 223.455 159.849C212.369 159.864 201.739 164.629 193.89 173.103C186.04 181.578 181.609 193.071 181.565 205.072Z" fill="white"/>
<path fill-rule="evenodd" clip-rule="evenodd" d="M212.189 183.784L246.658 205.325L212.189 226.881V183.784Z" fill="white"/>
</svg>
