<svg width="476" height="429" viewBox="0 0 476 429" fill="none" xmlns="http://www.w3.org/2000/svg">
<mask id="mask0_1_472" style="mask-type:luminance" maskUnits="userSpaceOnUse" x="0" y="0" width="476" height="429">
<path d="M475.839 0H0V428.934H475.839V0Z" fill="white"/>
</mask>
<g mask="url(#mask0_1_472)">
<rect x="-70.575" y="-2.41699" width="579.979" height="433.189" fill="#C4C4C4"/>
<path opacity="0.5" d="M475.671 -0.289307H6.10352e-05V429.215H475.671V-0.289307Z" fill="#00416B"/>
</g>
<path fill-rule="evenodd" clip-rule="evenodd" d="M234.323 163.863H241.532C241.999 164.022 242.475 164.144 242.958 164.229C252.356 165.242 261.25 169.232 268.487 175.682C275.723 182.132 280.968 190.743 283.541 200.399C284.494 204.033 284.903 207.82 285.559 211.539V218.288C285.41 218.848 285.292 219.416 285.207 219.99C284.211 229.895 280.465 239.261 274.446 246.897C268.426 254.534 260.405 260.095 251.402 262.875C248.197 263.871 244.825 264.348 241.532 265.063H234.323C233.859 264.904 233.385 264.781 232.905 264.697C223.612 263.696 214.808 259.792 207.602 253.479C200.396 247.165 195.113 238.725 192.418 229.224C191.441 225.676 190.992 221.965 190.296 218.331V209.82C190.444 209.332 190.567 208.834 190.664 208.331C193.716 187.403 204.723 173.437 223.444 166.433C226.921 165.055 230.686 164.672 234.323 163.863ZM193.26 214.229C193.228 220.471 194.357 226.659 196.582 232.436C198.807 238.214 202.085 243.467 206.226 247.896C210.368 252.324 215.291 255.839 220.715 258.241C226.139 260.642 231.956 261.881 237.831 261.888C262.296 261.888 282.611 240.612 282.579 215.012C282.579 188.254 262.729 166.978 237.847 166.987C226.047 167.002 214.733 171.98 206.378 180.833C198.022 189.686 193.306 201.692 193.26 214.229Z" fill="white"/>
<path fill-rule="evenodd" clip-rule="evenodd" d="M225.855 191.991L262.545 214.493L225.855 237.012V191.991Z" fill="white"/>
</svg>
