<svg width="54" height="54" viewBox="0 0 54 54" fill="none" xmlns="http://www.w3.org/2000/svg">
<path d="M27 6.75C17.055 6.75 9 10.7775 9 15.75C9 20.7225 17.055 24.75 27 24.75C36.945 24.75 45 20.7225 45 15.75C45 10.7775 36.945 6.75 27 6.75ZM9 20.25V27C9 31.9725 17.055 36 27 36C36.945 36 45 31.9725 45 27V20.25C45 25.2225 36.945 29.25 27 29.25C17.055 29.25 9 25.2225 9 20.25ZM9 31.5V38.25C9 43.2225 17.055 47.25 27 47.25C36.945 47.25 45 43.2225 45 38.25V31.5C45 36.4725 36.945 40.5 27 40.5C17.055 40.5 9 36.4725 9 31.5Z" fill="#FC7C05"/>
</svg>
