<svg width="130" height="130" viewBox="0 0 130 130" fill="none" xmlns="http://www.w3.org/2000/svg">
<ellipse cx="64.8419" cy="64.8421" rx="64.8419" ry="64.8421" fill="#FF8CA0"/>
<path d="M95.7891 61.0647C105.11 61.0647 112.842 68.3316 112.842 76.7864C112.842 79.6724 111.786 83.0064 110.121 86.4436C108.464 89.8653 106.244 93.3067 104.007 96.385C101.772 99.4601 99.5355 102.154 97.8564 104.079C97.0175 105.041 96.3189 105.811 95.8311 106.338C95.8172 106.353 95.8026 106.367 95.7891 106.382C95.7756 106.368 95.7618 106.353 95.748 106.338C95.2602 105.811 94.5607 105.042 93.7217 104.079C92.0427 102.154 89.8066 99.4599 87.5723 96.385C85.3355 93.3067 83.1146 89.8653 81.457 86.4436C79.792 83.0065 78.7363 79.6723 78.7363 76.7864C78.7364 68.3317 86.468 61.0647 95.7891 61.0647ZM102.719 37.175L105.766 51.2883C102.593 50.1454 99.3075 49.509 95.7891 49.509C79.8366 49.5091 66.421 61.8301 66.4209 76.7864C66.4209 82.4028 68.6696 88.3211 71.5791 93.7581V97.2864H22V68.6194H16.8418V60.1711L21.8076 37.175H102.719ZM30.3154 89.7307H63.2627V68.6194H30.3154V89.7307ZM95.7891 70.5305C92.272 70.5306 88.5998 73.246 88.5996 77.2639C88.5996 80.701 91.6447 83.9973 95.7891 83.9973C97.8523 83.9973 99.7695 83.1815 101.11 81.9397C102.423 80.7234 103.267 79.0041 102.976 77.178C102.946 75.4236 102.005 73.7763 100.724 72.5891C99.416 71.3779 97.6355 70.5305 95.7891 70.5305ZM102.526 22.842V30.3977H22V22.842H102.526Z" fill="#FFCD29" stroke="black" stroke-width="2"/>
</svg>
