<svg width="541" height="407" viewBox="0 0 541 407" fill="none" xmlns="http://www.w3.org/2000/svg">
<mask id="mask0_1_2281" style="mask-type:luminance" maskUnits="userSpaceOnUse" x="0" y="0" width="541" height="407">
<path d="M541 0H0V407H541V0Z" fill="white"/>
</mask>
<g mask="url(#mask0_1_2281)">
<rect x="-80.2393" y="-2.29333" width="659.401" height="411.038" fill="#C4C4C4"/>
<path opacity="0.5" d="M540.809 -0.274536H0V407.266H540.809V-0.274536Z" fill="#00416B"/>
</g>
<path fill-rule="evenodd" clip-rule="evenodd" d="M266.277 147H274.837C275.391 147.178 275.957 147.315 276.53 147.409C287.689 148.543 298.25 153.008 306.842 160.226C315.435 167.443 321.663 177.08 324.717 187.885C325.849 191.951 326.334 196.19 327.114 200.351V207.904C326.937 208.529 326.797 209.166 326.696 209.808C325.513 220.892 321.066 231.372 313.918 239.918C306.771 248.463 297.246 254.687 286.556 257.798C282.751 258.912 278.747 259.446 274.837 260.246H266.277C265.726 260.068 265.164 259.931 264.593 259.836C253.56 258.716 243.105 254.347 234.549 247.283C225.993 240.218 219.72 230.773 216.521 220.141C215.36 216.17 214.828 212.018 214 207.951V198.428C214.177 197.881 214.323 197.324 214.438 196.761C218.061 173.342 231.131 157.714 253.36 149.876C257.488 148.333 261.958 147.905 266.277 147ZM217.519 203.361C217.482 210.346 218.823 217.27 221.465 223.735C224.107 230.201 227.998 236.08 232.916 241.035C237.833 245.991 243.68 249.925 250.12 252.612C256.56 255.299 263.466 256.686 270.443 256.693C299.492 256.693 323.614 232.884 323.576 204.237C323.576 174.295 300.006 150.486 270.462 150.495C256.451 150.513 243.016 156.083 233.096 165.99C223.175 175.896 217.575 189.332 217.519 203.361Z" fill="white"/>
<path fill-rule="evenodd" clip-rule="evenodd" d="M256.223 178.476L299.787 203.656L256.223 228.856V178.476Z" fill="white"/>
</svg>
