<svg width="6" height="5" viewBox="0 0 6 5" fill="none" xmlns="http://www.w3.org/2000/svg">
<path d="M1.31289 0.311263C1.05377 0.14752 0.775008 -0.030533 0.505309 0.00444134C0.120781 0.0545183 -0.0847037 0.56562 0.0331479 0.955107C0.150244 1.3438 0.484167 1.61485 0.822612 1.81357C1.4436 2.18001 2.14164 2.39383 2.73316 2.81034C3.09578 3.06629 3.41007 3.39139 3.77118 3.65052C4.13229 3.90886 4.56439 4.10201 4.99652 4.03921C5.42939 3.97642 5.83735 3.58773 5.81846 3.12829C5.80713 2.83896 5.63715 2.58301 5.44678 2.37396C4.76157 1.62121 3.8029 1.22934 2.87746 0.920928C2.4612 0.782621 2.03738 0.67849 1.63548 0.495669C1.53349 0.449567 1.4247 0.382007 1.31289 0.311263Z" fill="#D98C73"/>
</svg>
