<svg width="39" height="78" viewBox="0 0 39 78" fill="none" xmlns="http://www.w3.org/2000/svg">
<path d="M1.75822 13.4593C1.16854 10.5612 0.666978 7.64401 0.183862 4.76737C0.00660009 3.71019 -0.16144 2.57035 0.285815 1.60537C0.952345 0.166655 2.79566 -0.294364 4.24809 0.17938C5.70051 0.653918 6.84043 1.82238 7.89119 2.97971C14.186 9.91179 19.2293 17.9607 23.0656 26.6454C24.9858 30.991 26.4146 35.5098 28.4854 39.7632C30.757 44.4299 32.6572 49.2969 34.166 54.2934C36.453 61.8678 37.6605 69.6536 38.3445 77.5411C36.5534 73.0055 34.7475 68.4764 32.9272 63.9535C30.8533 58.8004 28.2559 54.0558 24.4714 50.0862C20.7719 46.2056 16.3373 43.1867 12.7577 39.1702C6.54942 32.204 3.68556 22.9342 1.75822 13.4593Z" fill="#239C96"/>
</svg>
