<svg width="34" height="88" viewBox="0 0 34 88" fill="none" xmlns="http://www.w3.org/2000/svg">
<path d="M33.5428 4.82184C31.8015 14.5757 25.1708 21.0666 21.0989 29.5201C16.715 38.6214 12.0992 47.9444 10.2301 58.0473C8.37927 68.0539 5.5531 77.8594 1.81207 87.2628C1.11327 87.479 0.637332 86.5291 0.496817 85.7772C-0.752711 79.0867 0.572358 72.1864 2.06892 65.5524C4.70321 53.8758 7.88218 42.335 11.5885 30.9851C14.6738 21.534 19.3455 11.3708 25.5614 3.66054C26.6931 2.256 28.0031 0.880868 29.6447 0.295842C29.7822 0.24656 29.9219 0.203642 30.0647 0.166283C33.4393 -0.722384 34.0263 2.11292 33.5428 4.82184Z" fill="#239C96"/>
</svg>
