<svg width="18" height="14" viewBox="0 0 18 14" fill="none" xmlns="http://www.w3.org/2000/svg">
<path d="M0.130376 13.1603C-0.0448906 12.6087 -0.0177028 11.9338 0.0623758 11.3806C0.549646 7.98488 0.688654 4.07651 1.56725 0.881125C1.97218 -0.591772 3.11519 0.16573 4.33752 0.437576C5.75854 0.753935 7.30043 1.24358 8.6595 1.18158C8.42379 1.57504 8.15788 1.97248 8.05287 2.47007C7.83681 3.49545 7.62074 4.52003 7.40543 5.54462C7.2619 6.22264 7.13045 6.9897 7.45832 7.6868C7.7318 8.26785 8.25986 8.64225 8.76979 8.87673C10.604 9.72248 12.4572 9.24078 14.3232 9.54442C15.9474 9.80911 17.4364 11.6564 17.0217 13.1595H0.130376V13.1603Z" fill="black"/>
</svg>
