<svg width="13" height="8" viewBox="0 0 13 8" fill="none" xmlns="http://www.w3.org/2000/svg">
<path d="M1.87187 6.40186C1.98745 5.75563 2.44903 5.19048 3.0398 4.97427C3.64945 4.75012 4.49783 4.76362 4.70029 4.11978C4.80152 3.79706 4.65949 3.42825 4.41322 3.20807C4.16694 2.98789 3.8368 2.89807 3.51422 2.8774C2.52381 2.81302 1.52132 3.39884 1.04992 4.31771C0.904869 4.60068 0.695616 4.9695 0.403254 4.88047C0.264249 4.83755 0.174357 4.69766 0.117697 4.55776C-0.226792 3.70804 0.249888 2.75817 0.711473 1.97204C1.07485 1.35363 1.4624 0.70978 2.06299 0.351293C2.73686 -0.0501175 3.55955 -0.0246758 4.33239 0.03176C5.89316 0.144632 7.52874 0.269427 8.84702 1.24632C9.19302 1.50227 9.5088 1.80035 9.85329 2.05788C10.7379 2.71842 11.7842 3.08803 12.8132 3.4497C12.4921 4.62293 12.1703 5.79617 11.8492 6.9694C11.8326 7.0306 11.8122 7.09658 11.7608 7.12917C11.7064 7.16335 11.6377 7.14903 11.5757 7.13314C9.68104 6.64588 7.92157 6.47181 6.02235 6.15863C4.66176 5.97501 3.21809 6.15704 1.87187 6.40186Z" fill="#DAEFED"/>
</svg>
