<svg width="26" height="91" viewBox="0 0 26 91" fill="none" xmlns="http://www.w3.org/2000/svg">
<path d="M11.9943 90.9944C13.9509 90.9729 15.8977 90.6955 17.8536 90.6303C19.8563 90.5636 21.8613 90.5866 23.8618 90.4388C24.2916 90.407 24.726 90.3672 25.1597 90.3164C25.2866 90.0922 25.3659 89.8291 25.3772 89.5716C25.4226 88.4961 24.8688 87.4095 24.7668 86.3309C24.6769 85.377 24.6936 84.4335 24.5704 83.4797C24.2992 81.3844 24.3 79.2255 23.8285 77.1636C23.1585 74.2345 21.5531 71.594 21.0462 68.6291C20.5604 65.7898 21.1172 62.8837 21.2267 60.0015C21.4028 55.3738 20.4003 50.8557 19.1893 46.4418C18.2155 42.8935 18.2079 39.7347 18.0916 36.0385C17.7509 25.2633 19.1183 12.9642 12.9681 3.86611C11.4149 1.56814 8.87049 -0.194898 6.28304 0.0173324C4.39062 0.173127 2.93258 1.25733 1.84396 2.81131C-1.3335 7.34843 0.438809 19.6769 1.00389 25.059C1.75331 32.1953 3.03608 39.1719 3.71977 46.3385C5.11812 61.0118 6.6192 75.6796 8.21171 90.341C9.40685 90.8068 10.6571 91.0087 11.9943 90.9944Z" fill="#4AADB7"/>
</svg>
