<svg width="19" height="10" viewBox="0 0 19 10" fill="none" xmlns="http://www.w3.org/2000/svg">
<path d="M17.8621 0.0754624C17.8054 -0.180486 15.3819 0.29406 15.1757 0.326649C13.8634 0.534906 12.5029 1.07383 11.2163 0.720107C10.8242 2.193 9.49839 3.14605 8.22997 3.89482C6.51206 4.90907 4.72315 5.78901 2.88134 6.52426C1.65447 7.0147 0.20624 7.67681 0 9.04001C0.515978 9.75619 1.5011 9.81583 2.35553 9.80709C7.37404 9.7586 12.3903 9.5869 17.4035 9.33334C17.958 9.30472 18.6122 9.2125 18.8691 8.69425C19.0255 8.37868 18.9771 7.99874 18.925 7.64661C18.5526 5.13959 18.3924 2.54513 17.8621 0.0754624Z" fill="#161111"/>
</svg>
