<svg width="38" height="34" viewBox="0 0 38 34" fill="none" xmlns="http://www.w3.org/2000/svg">
<path d="M29.1349 4.74894e-05C26.3057 -0.0110807 23.8271 1.93556 21.7005 3.71925C17.0054 7.65864 12.3873 11.7562 8.4912 16.5644C4.595 21.3726 1.42374 26.9486 0 33.0866C0.561986 33.3195 1.12405 33.5524 1.68656 33.7853C3.41822 24.1697 10.3069 16.5246 17.5794 10.424C20.7531 7.76197 23.6888 4.94654 27.3996 3.10164C28.0078 2.7988 28.6431 2.51423 29.3147 2.48323C29.8307 2.45859 30.3414 2.58577 30.8408 2.72646C32.9251 3.31387 35.3335 4.07615 37.034 5.4783C37.201 4.62461 36.7311 3.70176 36.1811 3.08812C35.5956 2.43474 34.8364 1.98564 34.0771 1.57708C32.7475 0.86249 31.3484 0.231354 29.8662 0.046149C29.6199 0.0167387 29.3752 0.00163723 29.1349 4.74894e-05Z" fill="#4AADB7"/>
</svg>
