<svg width="87" height="6" viewBox="0 0 87 6" fill="none" xmlns="http://www.w3.org/2000/svg">
<path d="M65.1408 0.193659C68.3863 0.256454 71.6325 0.335139 74.878 0.428933C77.4193 0.502062 79.969 0.586321 82.4794 1.0084C83.815 1.23335 87.5168 2.56873 85.4733 4.08137C84.4081 4.86988 82.261 4.8047 81.0266 4.90246C77.9119 5.14967 74.7971 5.02169 71.6778 5.036C65.2368 5.06541 58.8018 4.83808 52.3615 4.81344C41.6599 4.77131 30.9586 5.22043 20.2553 5.1783C16.3499 5.1624 12.4419 5.11789 8.53902 4.94858C7.08711 4.88578 -0.89741 5.17114 0.0831746 2.04968C0.713378 0.0450116 7.53796 0.692027 9.22143 0.633206C27.8534 -0.0225628 46.5014 -0.168802 65.1408 0.193659Z" fill="#DAEFED"/>
</svg>
