<svg width="27" height="18" viewBox="0 0 27 18" fill="none" xmlns="http://www.w3.org/2000/svg">
<path d="M18.675 0.81122C19.4116 0.478963 20.1746 0.220628 20.9656 0.0743719C22.7454 -0.254705 24.7995 0.580701 26.4525 1.16334C22.8006 4.86903 18.8805 8.32116 15.762 12.6325C14.801 13.9616 13.8831 15.3566 12.6465 16.4034C10.6709 18.075 8.96435 17.9161 6.76174 17.0648C4.91071 16.3486 1.42337 15.3327 0.327575 13.4076C-0.568475 11.8329 0.503749 11.9871 1.97364 11.3464C3.20776 10.8083 4.41635 10.2026 5.59569 9.54368C9.296 7.47621 12.5399 4.7188 16.0445 2.32465C16.8778 1.75552 17.7549 1.22535 18.675 0.81122Z" fill="#4AADB7"/>
</svg>
