<svg width="13" height="26" viewBox="0 0 13 26" fill="none" xmlns="http://www.w3.org/2000/svg">
<path d="M12.159 7.96515C12.2829 6.33407 11.7677 4.69822 10.8098 3.40894C10.0241 2.35176 9.2883 0.845483 7.97682 0.421022C6.51123 -0.0535169 5.14838 0.0259708 3.65182 0.000534885C2.46801 -0.0193369 1.35901 0.514022 0.787123 1.6793C0.572573 2.11728 0.456997 2.60056 0.361809 3.08225C0.035451 4.73479 -0.0695679 6.43581 0.0445063 8.11935C0.138939 9.5231 0.256781 11.3036 1.0689 12.4832C1.42699 13.003 2.1001 13.3345 2.66519 13.0929C3.35341 15.6031 2.97794 18.1188 2.58964 20.6426C2.3834 21.9827 2.397 23.512 3.27711 24.5048C3.90036 25.2083 4.85527 25.4992 5.76937 25.4913C7.09974 25.4801 8.3402 24.8919 9.63506 24.6829C10.8589 24.485 10.7773 23.6607 10.7947 22.6107C10.8166 21.3158 10.7698 20.0226 10.7327 18.7285C10.6595 16.2286 10.6232 13.6779 11.3129 11.2575C11.5683 10.3601 11.9218 9.48971 12.0835 8.56846C12.119 8.36736 12.1439 8.16625 12.159 7.96515Z" fill="#D98C73"/>
</svg>
