<svg width="4" height="3" viewBox="0 0 4 3" fill="none" xmlns="http://www.w3.org/2000/svg">
<path d="M3.15359 0.0953929C3.23141 0.186803 3.23971 0.327495 3.21402 0.449111C3.16643 0.678034 3.02063 0.882313 2.82497 0.99439C2.64064 1.10011 2.41475 1.12872 2.26366 1.27975C2.17829 1.36401 2.12691 1.47847 2.06119 1.5818C1.84135 1.92836 1.4878 2.11199 1.13651 2.27652C0.881919 2.39575 0.427905 2.80749 0.161984 2.50862C0.0592413 2.39336 0.0206947 2.22962 0.00634098 2.07224C-0.0148119 1.82821 0.0146698 1.57306 0.1295 1.35924C0.3025 1.0397 0.615241 0.968956 0.91818 0.858469C1.29818 0.719366 1.66686 0.550059 2.02193 0.350546C2.27878 0.205879 2.53639 0.0429261 2.82573 0.00556716C2.93527 -0.00874054 3.0569 0.000800209 3.13849 0.0786976C3.14378 0.0842617 3.1483 0.0898288 3.15359 0.0953929Z" fill="#161111"/>
</svg>
