<svg width="13" height="35" viewBox="0 0 13 35" fill="none" xmlns="http://www.w3.org/2000/svg">
<path d="M6.87866 26.8904C7.31985 25.6059 7.86075 24.3269 8.08815 23.0329C8.74389 19.2898 8.83303 15.7987 10.3915 12.2528C11.2611 10.2768 12.3686 8.37224 12.7418 6.23085C13.1157 4.08867 12.5325 1.56098 10.7323 0.488699C8.83001 -0.643993 6.29922 0.321781 4.86612 2.05858C1.61311 5.99955 0.127882 11.4118 0.00776404 16.5586C-0.0534281 19.1841 0.244224 21.8406 1.0027 24.3476C1.78309 26.9269 3.46776 28.8545 4.51936 31.2637C4.92655 32.1961 5.03081 33.2581 5.49768 34.1595C5.66161 32.1461 5.99251 30.1486 6.48356 28.1956C6.5931 27.76 6.72983 27.3244 6.87866 26.8904Z" fill="#DAEFED"/>
</svg>
