<svg width="20" height="18" viewBox="0 0 20 18" fill="none" xmlns="http://www.w3.org/2000/svg">
<path d="M17.7253 1.36587C17.7306 1.36984 17.7351 1.3746 17.7404 1.37858C18.4234 1.97791 19.2634 2.72191 19.3261 3.65509C19.4304 5.20509 18.6991 6.83538 18.0434 8.1962C17.4458 9.43859 16.5362 10.6102 15.391 11.3312C14.3575 11.9814 12.7212 12.2969 11.6326 11.6308C11.5887 11.6038 11.5442 11.5752 11.4943 11.572C11.4444 11.5688 11.3968 11.5919 11.3515 11.6134C10.5228 12.0171 9.86478 12.4774 9.23246 13.1713C7.90663 14.6243 6.69714 16.1942 5.62061 17.8595C3.83169 17.2148 1.19891 14.761 0 13.223C2.76876 8.68902 6.62084 6.12317 10.0227 2.09476C12.0798 -0.341524 15.3086 -0.742133 17.7253 1.36587Z" fill="#D98C73"/>
</svg>
