<svg width="20" height="18" viewBox="0 0 20 18" fill="none" xmlns="http://www.w3.org/2000/svg">
<path fill-rule="evenodd" clip-rule="evenodd" d="M9.74963 17.9942C7.82473 18.0007 5.94112 17.4774 4.33789 16.4907C2.73466 15.504 1.48407 14.0984 0.744856 12.4523C0.00563824 10.8061 -0.188869 8.99372 0.185986 7.24503C0.56084 5.49635 1.48816 3.89023 2.85028 2.63052C4.2124 1.3708 5.94793 0.514304 7.83655 0.169689C9.72517 -0.174927 11.6817 0.00790211 13.458 0.694963C15.2342 1.38202 16.75 2.54232 17.813 4.02864C18.876 5.51496 19.4383 7.26029 19.4284 9.04308C19.3881 11.4077 18.355 13.6648 16.5482 15.3358C14.7413 17.0068 12.3028 17.9603 9.74963 17.9942ZM9.65028 17.015C11.3654 17.0267 13.0457 16.5663 14.4779 15.6921C15.91 14.818 17.0296 13.5695 17.6944 12.1051C18.3592 10.6407 18.5394 9.02639 18.212 7.46702C17.8846 5.90764 17.0645 4.47347 15.8557 3.34649C14.6468 2.2195 13.1038 1.45046 11.4223 1.137C9.74087 0.82355 7.99672 0.979776 6.41126 1.58586C4.8258 2.19195 3.47047 3.22059 2.51723 4.54124C1.56399 5.8619 1.0558 7.41507 1.05716 9.00365C1.04778 10.0537 1.26323 11.0951 1.69105 12.0675C2.11887 13.04 2.75058 13.9243 3.54965 14.6692C4.34872 15.4142 5.29929 16.0051 6.34643 16.4077C7.39357 16.8103 8.51649 17.0168 9.65028 17.015Z" fill="white"/>
<path fill-rule="evenodd" clip-rule="evenodd" d="M9.17436 6.11843C9.17436 5.1852 9.17436 4.24538 9.17436 3.31215C9.15704 3.19539 9.17912 3.07654 9.23755 2.97184C9.29598 2.86713 9.38792 2.78172 9.50079 2.72727C9.86978 2.5564 10.2104 2.80612 10.2104 3.24645C10.2104 4.65287 10.2104 6.0527 10.2104 7.45911C10.2281 7.7634 10.2281 8.06836 10.2104 8.37264C10.1971 8.50817 10.2295 8.64417 10.3032 8.76189C10.377 8.87961 10.4883 8.97325 10.6219 9.02984C11.6721 9.63447 12.7081 10.2588 13.7512 10.8832C14.0918 11.0869 14.177 11.3629 13.9925 11.6192C13.808 11.8755 13.5029 11.9018 13.1623 11.6981C11.9276 10.9686 10.6858 10.2523 9.46532 9.49647C9.37755 9.4306 9.30517 9.34882 9.25271 9.25616C9.20024 9.1635 9.16875 9.06189 9.16016 8.95756C9.16016 8.01119 9.16016 7.05823 9.16016 6.11185L9.17436 6.11843Z" fill="white"/>
</svg>
